<?xml version="1.0" encoding="utf-8"?>
<!-- Generator: Adobe Illustrator 23.1.0, SVG Export Plug-In . SVG Version: 6.00 Build 0)  -->
<svg version="1.0" id="Layer_1" xmlns="http://www.w3.org/2000/svg" xmlns:xlink="http://www.w3.org/1999/xlink" x="0px" y="0px"
	 viewBox="0 0 337.9 68.2" style="enable-background:new 0 0 337.9 68.2;" xml:space="preserve">
<style type="text/css">
	.st0{fill:#FFFFFF;}
</style>
<g>
	<path class="st0" d="M17.4,65.1c-0.4-0.5-0.6-1.2-0.5-2c0.9-11.4,1.3-21,1.3-28.9c-1.7-0.3-2.9-0.5-3.6-0.5c-2.9-0.2-5-0.1-6.3,0.2
		c-0.2,3-0.3,7.7-0.1,13.9C8.3,54.4,8.2,59,8,61.7c0,0.5-0.3,1-0.7,1.5c-0.5,0.4-1,0.6-1.6,0.6c-0.9,0-1.7-1.3-2.2-3.9
		c-0.8-3.8-1.2-11.6-1-23.4c0.1-8,0.5-16.6,1.2-25.8C3.7,9,3.8,6.6,4.1,3.5C4.2,2.5,4.8,2,6,2.1c0.7,0,1.4,0.2,2.1,0.5
		c0.7,0.3,1.2,0.6,1.6,1C9.3,5.3,9,7.4,8.8,9.7c-0.2,2.3-0.2,5.1-0.2,8.4c-0.1,3.8-0.2,6.6-0.3,8.5l-0.1,1.5C8,28.5,8,29,7.9,29.6
		c0,0.5,0,1.3,0,2.1c0.4,0,1.1,0,2.1,0c1,0,2,0,3-0.1c2.3,0,4.1,0,5.2,0c0.4-4.7,0.6-9.1,0.8-13.2l0.8-13.6L20,2.7
		c0.9,0,1.7,0.2,2.4,0.5c0.7,0.3,1.2,0.6,1.5,1c0.6,0.6,0.9,1.7,0.9,3.2l-0.1,1.9c-0.4,4.7-0.7,13.7-1,26.9c-0.3,12-0.6,21-1.1,27
		c-0.1,0.8-0.4,1.4-1.1,2C21,65.7,20.2,66,19.4,66C18.5,65.9,17.8,65.6,17.4,65.1z"/>
	<path class="st0" d="M55.5,64.4c-0.8-0.4-1.2-1.2-1.2-2.3c0-1.8-0.4-4.8-1.1-9l-0.4-1.9l-10.5-1.3c-0.4,1.4-1,4.1-1.8,8.2
		c-0.4,2.9-1.1,4.8-2,5.8c-0.5,0.5-1.2,0.8-2.1,0.8c-0.8,0-1.6-0.2-2.3-0.7c-0.7-0.4-1.1-1-1.1-1.6l0.2-0.4l0.1-0.4
		c4.7-15.2,8.2-30.1,10.6-44.9c0-0.2,0-0.6,0.1-1.2c0.1-0.6,0.1-1.4,0.2-2.4c0.2-2.2,0.4-3.9,0.7-5.2c0.2-1.3,0.7-2.3,1.2-2.9h3.6
		c1,0,1.8,0.2,2.5,0.6c0.7,0.4,1.1,0.9,1.1,1.6c0,4.5,0.7,11.1,2.2,20c1.4,9.1,2.1,15.5,2.1,19.1c0,0.4,0.2,1.3,0.5,2.7
		c0.4,1.4,0.5,2.2,0.5,2.7c0,0.4,0.4,2.2,1.1,5.3c0.6,2.8,1,4.7,1,5.5v0.1c0,1.3-0.6,2.1-1.7,2.5C57.5,65,56.3,64.8,55.5,64.4z
		 M51.8,44.8c0-5.3-0.6-12.1-1.7-20.3l-1.1-9.2c-3,13.9-5.1,24.3-6.2,31.4c1.1,0.6,4.2,1.1,9.3,1.4C51.9,47.2,51.8,46.1,51.8,44.8z"
		/>
	<path class="st0" d="M76.8,64.6c-1.1,0.6-2.3,0.9-3.6,0.9c-0.8,0-1.6-0.3-2.2-0.9c-0.6-0.6-0.9-1.3-0.9-2c0-5,0.2-11.6,0.7-19.8
		c0.4-8.8,0.6-15.4,0.6-19.7v-0.6c-0.4-3.7-0.6-6.5-0.6-8.3c0-5.6,1.2-8.4,3.7-8.4c0.7,0,1.3,0.2,1.9,0.7s0.8,1,0.8,1.5
		c0,0.7-0.1,1.8-0.3,3.4c-0.2,1.5-0.3,2.6-0.3,3.4c0,4,0,7.5,0.1,10.7c0.1,3.1,0.1,6.7,0.1,10.6c-0.4,0.9-0.5,2.1-0.5,3.7v1.1
		l-0.2,7c-0.1,2.1-0.2,4.4-0.2,7.1c0,4.1,1.2,6.1,3.5,6.1c0.1,0,0.4,0,0.7,0c0.3,0,0.8,0,1.3,0c0.6-0.1,1.4-0.1,2.4-0.1
		c3.8,0,5.7,0.9,5.7,2.7c0,0.6-0.3,1.1-1,1.5c-0.6,0.4-1.4,0.7-2.3,0.8C83.6,65,80.5,64.6,76.8,64.6z"/>
	<path class="st0" d="M96.6,63.7c0.6-4.9,1-12.3,1.4-22.4c0.4-10.5,0.6-16.8,0.7-18.9v-2.1c0.3-5.7,0.4-9.7,0.4-12
		c0-0.8,0.4-1.5,1.2-1.9c0.8-0.5,1.7-0.7,2.8-0.7c2.5,0,5.1,0.2,7.9,0.5c1.8,0.2,3.3,0.6,4.4,1.1c1.1,0.5,1.6,1.2,1.6,1.9
		c0,1.6-1.8,2.5-5.4,2.5c-1.3-0.6-3.2-0.9-5.5-0.9H105v1.1c0,2.3-0.1,5.2-0.4,8.7c-0.4,3.3-0.5,6.2-0.5,8.9v2.4h0.8h1.1
		c3.5,0,5.2,0.8,5.2,2.3c0,0.8-0.4,1.4-1.1,1.8c-0.7,0.5-1.6,0.7-2.7,0.7c-1.7,0-3.1-0.1-4.1-0.4v24.9c0,2.6-0.9,3.9-2.7,3.9
		C99.4,65,98.1,64.6,96.6,63.7z"/>
	<path class="st0" d="M127.4,35.4c-0.7-0.6-1.1-1.3-1.1-2.2c0-0.8,0.8-1.6,2.5-2.2c2.4-0.9,6.6-1.5,12.5-1.9
		c2.3-0.1,3.7-0.2,4.3-0.2c0.9,0,1.7,0.3,2.4,0.9c0.7,0.6,1.1,1.3,1.1,2.2c0,0.8-0.8,1.6-2.5,2.2c-2.4,0.9-6.6,1.6-12.5,1.9
		c-2.3,0.1-3.7,0.2-4.3,0.2C128.9,36.3,128.1,36,127.4,35.4z"/>
	<path class="st0" d="M205.1,35.4c-0.7-0.6-1.1-1.3-1.1-2.2c0-0.8,0.8-1.6,2.5-2.2c2.4-0.9,6.6-1.5,12.5-1.9
		c2.3-0.1,3.7-0.2,4.3-0.2c0.9,0,1.7,0.3,2.4,0.9c0.7,0.6,1.1,1.3,1.1,2.2c0,0.8-0.8,1.6-2.5,2.2c-2.4,0.9-6.6,1.6-12.5,1.9
		c-2.3,0.1-3.7,0.2-4.3,0.2C206.6,36.3,205.8,36,205.1,35.4z"/>
	<path class="st0" d="M251,64.6c-1.7-0.7-3.1-1.6-4.3-2.7c-1.1-1.1-2-2.5-2.9-4.2c-0.8-1.7-1.5-3.4-1.9-5.3
		c-0.8-3.1-1.4-7.1-1.7-12.1c-0.1-1.2-0.1-3.2-0.1-6.1v-4.9c0.1-1.4,0.1-2.9,0.1-4.4c0-3.1,0.2-5.5,0.7-7.2
		c-0.2-0.8-0.3-1.6-0.3-2.4c0-3.1,1.6-5.6,4.8-7.5c3.2-1.9,7.2-2.9,12.1-2.9c1.8,0,3.5,0.4,5.1,1.1c1.5,0.7,2.3,1.6,2.3,2.7
		c0,0.5-0.3,0.9-0.8,1.2c-0.6,0.3-1.3,0.5-2.1,0.5c-0.7,0-1.5-0.1-2.3-0.2c-0.8-0.2-1.3-0.4-1.5-0.7h-1.4V9.4
		c-2.6,0-4.8,0.4-6.6,1.2c-1.3,0.7-2.3,1.8-3,3.3c-0.3,0.6-0.5,1.3-0.6,2.2c-0.1,0.9-0.2,1.7-0.2,2.4c-0.1,0.4-0.1,1.2-0.1,2.5
		l0.2,2.7l0.1,2.6c0,0.8-0.1,1.7-0.4,2.7c-0.4,1.3-0.5,2.2-0.5,2.7v1.9c0,2,0.1,4.8,0.3,8.3c0.1,3,0.5,5.9,1.4,8.9
		c0.6,2.8,1.8,5.1,3.6,7c1.7,2,4,3,6.9,3c1.2,0,2.7-0.5,4.4-1.4c1.9-0.9,3.2-1.4,4-1.4c1,0,2,0.4,3.1,1.2c0,1.9-1,3.4-3,4.4
		c-1.8,0.9-4,1.5-6.6,1.8c-1.4,0.1-2.5,0.2-3.4,0.2C254.4,65.7,252.6,65.3,251,64.6z"/>
	<path class="st0" d="M284.3,64.6c-1.3-0.6-2.4-1.5-3.3-2.7c-1.7-2.5-2.8-5.3-3.3-8.4c-0.5-2.7-0.7-6-0.7-9.7
		c-0.2-6.4-0.3-14.2-0.3-23.4l-0.1-6.8c-0.1-0.4-0.1-0.9-0.1-1.8c-0.1-2.2-0.2-3.6-0.2-4.1c0.6-1.2,1.4-1.9,2.2-1.9
		c0.8,0,1.6,0.5,2.3,1.6c0.7,1.1,1,2.2,1,3.5V35c0,2.4,0.2,5.5,0.7,9.4c0.5,4.8,0.7,8,0.7,9.4c0,4.4,2.2,6.5,6.7,6.5
		c5.1,0,7.6-15.9,7.6-47.6v-5V7c-0.1-0.2-0.1-0.4-0.1-0.7c0-0.7,0.2-1.2,0.6-1.5c0.4-0.3,1.1-0.5,2.3-0.5c0.9,0,1.6,0.2,2.2,0.7
		c0.5,0.4,0.9,1,1,1.5c0.1,0.4,0.1,1,0.1,2c0,0.9-0.1,2.4-0.3,4.5c-0.3,1.7-0.4,3.2-0.4,4.4c0,1.4-0.1,2.6-0.2,3.6l-0.2,3.7v0.7
		c0.1,0.2,0.1,0.5,0.1,0.8c0,26.2-4.5,39.3-13.6,39.3C287.2,65.6,285.7,65.3,284.3,64.6z"/>
	<path class="st0" d="M318,64.9c-0.9-3.1-1.4-7.5-1.4-13l0.2-7.9c0.1-2.4,0.2-5,0.2-7.9c-0.4-0.8-0.6-1.6-0.6-2.2v-0.3
		c0.7-1.1,1.1-3.7,1.1-7.6l0.1-4.1c0.1-1.3,0.1-2.7,0.1-4.3c0-3.5-0.3-6.2-0.8-8.2c0.2-0.8,0.6-1.5,1.1-2.2c0.5-0.6,1.1-0.9,1.8-0.9
		h4.7c2,0,3.7,0.4,5.2,1.1c1.5,0.7,2.6,1.8,3.4,3.1c1.4,2.4,2.1,5.3,2.1,8.6c0,2.4,0,4.2-0.1,5.6c-0.1,1.7-0.5,3.3-1.1,4.7
		c-0.2,0.8-0.5,1.4-0.9,1.9c-0.4,0.5-0.9,1.1-1.6,1.8c-1,1-2.6,1.9-4.9,2.8c-0.9,0.4-2.1,0.8-3.6,1.1v9.5l0.2,5.7l0.2,2.7
		c0.3,3.3,0.4,6.1,0.4,8.4c0,0.7-0.4,1.3-1.1,1.8c-0.7,0.5-1.5,0.8-2.4,0.8L318,64.9z M329.3,18.5c0-1.7-0.1-3-0.3-4
		c-0.2-0.7-0.5-1.3-0.8-1.7c-0.4-0.4-0.9-0.8-1.6-1.1c-0.8-0.4-1.6-0.5-2.5-0.5c0-0.1-0.4-0.1-1.2-0.1v5c0,3.5,0,6.6,0.1,9.3
		c0,3.1,0,5.1,0.1,6v1.9v0.2C327.2,32.9,329.3,27.9,329.3,18.5z"/>
	<g>
		<path class="st0" d="M187.1,37.5c-1,2.1-2.1,4-3.4,5.6c-1.3,1.7-2.7,3.1-4.2,4.3c-1.5,1.2-3.2,2-5,2.6c-1.8,0.6-3.7,0.7-5.6,0.5
			c-0.7,0-1.5-0.1-2.3-0.3c-0.8-0.2-1.5-0.6-2.2-1.1c-0.7-0.5-1.2-1.2-1.7-2c-0.4-0.8-0.7-1.9-0.7-3.1c-0.4-2.6-0.3-5.2,0.2-7.9
			c0.5-2.7,1.3-5.2,2.4-7.7c1.1-2.5,2.5-4.8,4.1-6.9c1.6-2.1,3.3-3.9,5.1-5.3c1.8-1.5,3.7-2.5,5.6-3.1c1.9-0.6,3.8-0.7,5.6-0.3
			c1.4,0,2.4,0.6,3.2,1.9c0.8,1.2,1.3,2.9,1.7,5c0.4,2.1,0.6,4.5,0.7,7.2s0.2,5.5,0.3,8.3c0.1,2.9,0.2,5.7,0.3,8.5
			c0.1,2.8,0.4,5.3,0.8,7.6h-3.7c-0.2-1.6-0.3-3-0.4-4.2c-0.1-1.2-0.2-2.3-0.2-3.4c-0.1-1-0.2-2-0.3-3
			C187.5,39.8,187.3,38.7,187.1,37.5z M183.3,19.1c-1.3-0.1-2.6,0.1-4,0.7c-1.4,0.6-2.7,1.5-4,2.6c-1.3,1.1-2.5,2.5-3.6,4
			c-1.1,1.5-2.1,3.1-2.9,4.8c-0.8,1.7-1.5,3.3-1.9,4.9c-0.5,1.6-0.6,3.1-0.6,4.5c0.1,1.4,0.5,2.6,1.1,3.5c0.7,1,1.7,1.6,3.1,1.9
			c2,0,3.9-0.7,5.8-2.1c1.9-1.4,3.5-3,5-5.1c1.5-2,2.7-4.2,3.6-6.5c1-2.3,1.6-4.5,1.9-6.5c0.3-2,0.2-3.6-0.4-5
			C185.8,19.7,184.8,19.1,183.3,19.1z"/>
	</g>
</g>
</svg>
