<?xml version="1.0" standalone="no"?>
<!DOCTYPE svg PUBLIC "-//W3C//DTD SVG 20010904//EN"
 "http://www.w3.org/TR/2001/REC-SVG-20010904/DTD/svg10.dtd">
<svg version="1.0" xmlns="http://www.w3.org/2000/svg"
 width="400.000000pt" height="400.000000pt" viewBox="0 0 400.000000 400.000000"
 preserveAspectRatio="xMidYMid meet">
<metadata>
Created by potrace 1.11, written by Peter Selinger 2001-2013
</metadata>
<g transform="translate(0.000000,400.000000) scale(0.100000,-0.100000)"
fill="#000000" stroke="none">
<path d="M0 2000 l0 -2000 2000 0 2000 0 0 2000 0 2000 -2000 0 -2000 0 0
-2000z m1111 1755 c30 -16 30 -17 28 -93 -2 -42 1 -166 5 -274 l8 -198 37 1
c20 0 56 4 80 7 l43 7 -1 283 c-2 252 0 282 14 282 24 0 65 -46 65 -72 0 -13
5 -142 10 -288 29 -763 30 -824 14 -847 -16 -25 -56 -31 -71 -10 -6 7 -13 137
-17 301 -3 159 -9 292 -12 295 -8 8 -142 6 -151 -2 -6 -6 4 -209 24 -473 4
-66 3 -83 -11 -97 -71 -71 -104 173 -121 896 -5 202 -4 272 5 283 15 17 14 17
51 -1z m765 -56 c6 -5 14 -51 17 -101 3 -51 17 -183 31 -293 13 -110 27 -243
31 -295 3 -52 18 -166 32 -253 29 -185 27 -207 -21 -207 -18 0 -38 6 -44 13
-6 7 -16 56 -22 108 -17 156 -9 143 -102 157 -45 6 -83 10 -85 9 -2 -2 -12
-54 -23 -115 -23 -126 -35 -159 -62 -168 -20 -6 -68 19 -68 36 0 5 11 54 25
107 61 231 135 643 164 911 5 45 14 88 19 95 12 14 89 11 108 -4z m392 -16 c4
-10 4 -240 -1 -511 -11 -578 -17 -542 88 -542 72 0 109 -11 118 -34 16 -42
-27 -68 -88 -53 -22 5 -74 6 -116 3 -120 -10 -114 -34 -99 374 7 188 10 412 7
498 -5 155 2 242 24 268 16 20 57 17 67 -3z m610 -3 c36 -13 55 -40 46 -64 -9
-24 -69 -40 -106 -27 -17 6 -43 11 -58 11 l-28 0 -8 -137 c-4 -76 -8 -167 -8
-203 l-1 -65 42 -5 c42 -6 73 -24 73 -43 0 -27 -34 -47 -82 -47 l-48 0 0 -256
c0 -157 -4 -263 -10 -275 -12 -22 -58 -26 -82 -6 -14 10 -15 27 -8 119 5 58
14 303 21 544 15 521 3 480 138 471 47 -3 101 -11 119 -17z m-776 -1367 c30
-27 47 -106 53 -250 3 -76 8 -186 11 -245 l5 -108 -29 0 -30 0 -7 98 c-4 53
-9 101 -12 105 -3 5 -16 -11 -30 -35 -36 -63 -81 -107 -138 -134 -83 -40 -197
-27 -223 24 -19 36 -22 121 -7 193 35 172 145 318 272 365 45 16 110 10 135
-13z m-635 -269 c16 -26 16 -27 -4 -44 -26 -21 -106 -37 -229 -46 -86 -6 -93
-5 -113 15 -12 12 -21 28 -19 34 11 34 133 63 280 66 63 1 69 -1 85 -25z
m1258 6 c43 -47 -15 -75 -190 -92 -116 -11 -126 -10 -145 7 -49 44 -8 78 117
94 127 16 198 13 218 -9z m-536 -574 c11 -9 12 -37 7 -151 -4 -77 -9 -223 -11
-325 -9 -315 -34 -481 -89 -593 -26 -52 -39 -66 -77 -85 -39 -19 -52 -21 -88
-13 -51 11 -76 32 -104 86 -46 90 -48 119 -58 589 -6 320 -5 454 3 463 15 19
32 16 54 -8 18 -20 19 -47 26 -383 8 -403 18 -570 37 -604 15 -29 75 -55 103
-46 68 21 108 315 108 804 0 140 4 260 8 266 16 24 50 24 81 0z m-664 -13 c44
-21 57 -59 29 -80 -11 -8 -29 -12 -44 -8 -71 18 -135 16 -167 -4 -56 -35 -66
-69 -71 -236 -11 -355 0 -530 41 -627 22 -53 65 -97 108 -109 36 -11 44 -9
109 20 67 31 72 32 95 17 23 -15 24 -18 12 -49 -22 -53 -85 -81 -182 -82 -95
0 -149 25 -191 88 -72 109 -89 226 -88 608 0 296 1 307 23 352 13 26 37 57 54
69 76 54 204 74 272 41z m1105 -35 c18 -13 41 -39 51 -58 38 -74 46 -242 17
-356 -15 -60 -58 -107 -124 -135 l-56 -24 5 -262 c6 -228 4 -264 -9 -278 -35
-34 -69 -15 -83 46 -14 62 -11 1055 3 1078 4 7 39 11 85 11 64 0 84 -4 111
-22z"/>
<path d="M1781 3298 c-34 -201 -61 -367 -61 -385 0 -11 80 -33 123 -33 21 0
22 3 20 87 -4 123 -35 485 -43 501 -4 8 -21 -69 -39 -170z"/>
<path d="M1949 2211 c-92 -50 -193 -217 -193 -319 0 -47 4 -58 27 -78 34 -29
56 -30 106 -4 115 58 232 297 190 386 -12 24 -21 29 -54 31 -24 2 -54 -5 -76
-16z"/>
<path d="M2520 1145 c0 -118 3 -215 8 -215 23 0 52 36 68 83 13 38 18 84 19
175 0 123 0 124 -28 148 -15 13 -37 24 -48 24 -18 0 -19 -9 -19 -215z"/>
</g>
</svg>
