<?xml version="1.0" standalone="no"?>
<!DOCTYPE svg PUBLIC "-//W3C//DTD SVG 20010904//EN"
 "http://www.w3.org/TR/2001/REC-SVG-20010904/DTD/svg10.dtd">
<svg version="1.0" xmlns="http://www.w3.org/2000/svg"
 width="260.000000pt" height="260.000000pt" viewBox="0 0 260.000000 260.000000"
 preserveAspectRatio="xMidYMid meet">
<metadata>
Created by potrace 1.11, written by Peter Selinger 2001-2013
</metadata>
<g transform="translate(0.000000,260.000000) scale(0.100000,-0.100000)"
fill="#000000" stroke="none">
<path d="M0 1300 l0 -1300 1300 0 1300 0 0 1300 0 1300 -1300 0 -1300 0 0
-1300z m1441 816 c130 -30 207 -109 246 -251 7 -27 16 -107 20 -177 l6 -128
-106 0 -107 0 0 93 c-1 232 -34 294 -165 305 -72 6 -128 -12 -164 -53 -54 -62
-56 -80 -56 -560 0 -498 3 -525 70 -583 60 -53 186 -55 246 -4 49 41 60 79 66
238 l6 144 105 0 105 0 -6 -128 c-7 -139 -24 -216 -61 -291 -65 -127 -183
-180 -374 -168 -155 9 -250 63 -310 175 -64 119 -67 151 -67 617 0 373 2 427
18 485 48 174 118 251 262 286 67 17 197 17 266 0z"/>
</g>
</svg>
