<?xml version="1.0" standalone="no"?>
<!DOCTYPE svg PUBLIC "-//W3C//DTD SVG 20010904//EN"
 "http://www.w3.org/TR/2001/REC-SVG-20010904/DTD/svg10.dtd">
<svg version="1.0" xmlns="http://www.w3.org/2000/svg"
 width="500.000000pt" height="500.000000pt" viewBox="0 0 500.000000 500.000000"
 preserveAspectRatio="xMidYMid meet">
<metadata>
Created by potrace 1.11, written by Peter Selinger 2001-2013
</metadata>
<g transform="translate(0.000000,500.000000) scale(0.100000,-0.100000)"
fill="#000000" stroke="none">
<path d="M2312 4980 c-505 -39 -984 -230 -1377 -547 -117 -95 -295 -274 -385
-388 -282 -356 -465 -800 -521 -1260 -15 -129 -15 -431 0 -560 56 -460 239
-904 521 -1260 90 -114 268 -293 385 -388 364 -294 809 -481 1280 -538 55 -7
181 -12 280 -12 287 0 512 36 781 124 524 173 985 528 1297 999 200 304 342
696 388 1075 15 129 15 431 0 560 -56 460 -239 904 -521 1260 -90 114 -268
293 -385 388 -355 286 -791 474 -1235 531 -154 20 -370 26 -508 16z m454
-1081 c273 -38 481 -136 644 -305 86 -88 94 -69 -77 -192 l-112 -81 -41 49
c-84 100 -214 180 -367 226 -115 34 -305 39 -426 11 -527 -124 -854 -680 -742
-1262 101 -531 549 -869 1065 -806 205 26 374 107 523 253 57 57 93 85 101 80
7 -4 58 -45 113 -92 l101 -85 -32 -40 c-153 -195 -378 -326 -654 -382 -125
-25 -424 -25 -542 1 -538 117 -921 529 -1006 1081 -21 135 -14 414 14 535 109
469 410 809 845 955 59 20 146 42 194 49 109 17 296 20 399 5z"/>
</g>
</svg>
