<?xml version="1.0" encoding="utf-8"?>
<!-- Generator: Adobe Illustrator 24.0.2, SVG Export Plug-In . SVG Version: 6.00 Build 0)  -->
<svg version="1.1" xmlns="http://www.w3.org/2000/svg" xmlns:xlink="http://www.w3.org/1999/xlink" x="0px" y="0px"
	 viewBox="0 0 458.2 347.8" style="enable-background:new 0 0 458.2 347.8;" xml:space="preserve">
<style type="text/css">
	.st0{display:none;}
	.st1{display:inline;fill:none;stroke:#070707;stroke-width:4;stroke-linecap:round;stroke-linejoin:round;}
	.st2{display:inline;}
	.st3{fill:#F7F3EF;stroke:#070707;stroke-width:4;stroke-linecap:round;stroke-linejoin:round;}
	.st4{fill:none;stroke:#070707;stroke-width:4;stroke-linecap:round;stroke-linejoin:round;}
	.st5{fill:#FF7B7B;stroke:#000000;stroke-width:4;stroke-linecap:round;stroke-linejoin:round;}
	.st6{fill:#EFAF00;stroke:#000000;stroke-width:4;stroke-linecap:round;stroke-linejoin:round;}
	.st7{fill:#EA631F;stroke:#070707;stroke-width:4;stroke-linecap:round;stroke-linejoin:round;}
	.st8{fill:#A82F2F;stroke:#070707;stroke-width:4;stroke-linecap:round;stroke-linejoin:round;}
</style>
<g id="Layer_1" class="st0">
	<line id="FLOOR" class="st1" x1="545" y1="105.1" x2="-83.2" y2="105.1"/>
	<g id="COOKER" class="st2">
		<rect x="-52.7" y="-254.4" class="st3" width="550.8" height="320.6"/>
		<rect x="-52.7" y="-229.2" class="st3" width="550.8" height="62.9"/>
		<rect x="313.1" y="-166.3" class="st3" width="185.1" height="232.5"/>
		<rect x="332.2" y="-154.3" class="st3" width="147.3" height="187.5"/>
		<rect x="-33.1" y="-154.3" class="st3" width="323.6" height="187.5"/>
		<polygon class="st3" points="498.2,105.1 479.9,105.1 479.5,66.2 498.2,66.2 		"/>
		<polygon class="st3" points="-52.7,105.1 -34.5,105.1 -34.1,66.2 -52.7,66.2 		"/>
		<rect x="294.3" y="66.2" class="st3" width="18.6" height="38.9"/>
		<path class="st3" d="M354.1-143.2h103.6c2.5,0,4.5,2,4.5,4.5v2.7c0,2.5-2,4.5-4.5,4.5H354.1c-2.5,0-4.5-2-4.5-4.5v-2.7
			C349.6-141.2,351.6-143.2,354.1-143.2z"/>
		
			<ellipse transform="matrix(0.1613 -0.9869 0.9869 0.1613 518.1113 213.6367)" class="st3" cx="384.7" cy="-198" rx="10.8" ry="10.8"/>
		
			<ellipse transform="matrix(0.2317 -0.9728 0.9728 0.2317 514.4795 255.2237)" class="st3" cx="418.8" cy="-198.1" rx="10.8" ry="10.8"/>
		<line class="st4" x1="384.7" y1="-198.1" x2="384.7" y2="-208.9"/>
		<line class="st4" x1="418.9" y1="-198.1" x2="418.9" y2="-208.9"/>
		
			<ellipse transform="matrix(0.7071 -0.7071 0.7071 0.7071 145.2872 -45.3389)" class="st3" cx="17.9" cy="-198" rx="10.8" ry="10.8"/>
		
			<ellipse transform="matrix(0.7071 -0.7071 0.7071 0.7071 155.3072 -21.1429)" class="st3" cx="52.1" cy="-198" rx="10.8" ry="10.8"/>
		
			<ellipse transform="matrix(0.2317 -0.9728 0.9728 0.2317 277.2818 -45.1123)" class="st3" cx="110.1" cy="-198.1" rx="10.8" ry="10.8"/>
		
			<ellipse transform="matrix(0.7071 -0.7071 0.7071 0.7071 182.3243 44.0692)" class="st3" cx="144.4" cy="-198.1" rx="10.8" ry="10.8"/>
		
			<ellipse transform="matrix(0.2317 -0.9728 0.9728 0.2317 348.1323 44.6018)" class="st3" cx="202.3" cy="-198.1" rx="10.8" ry="10.8"/>
		
			<ellipse transform="matrix(0.2317 -0.9728 0.9728 0.2317 374.4207 77.8918)" class="st3" cx="236.5" cy="-198.1" rx="10.8" ry="10.8"/>
		<line class="st4" x1="202.4" y1="-198.1" x2="210.6" y2="-191"/>
		<line class="st4" x1="236.6" y1="-198.1" x2="236.6" y2="-208.9"/>
		<line class="st4" x1="17.9" y1="-198.1" x2="27.5" y2="-203.1"/>
		<line class="st4" x1="52.1" y1="-198.1" x2="52.1" y2="-208.9"/>
		<line class="st4" x1="110.1" y1="-198.1" x2="110.1" y2="-208.9"/>
		<line class="st4" x1="144.4" y1="-198.1" x2="144.4" y2="-208.9"/>
		<path class="st3" d="M-15-143.2h283.9c2.2,0,4,1.8,4,4v3.7c0,2.2-1.8,4-4,4H-15c-2.2,0-4-1.8-4-4v-3.7
			C-18.9-141.4-17.2-143.2-15-143.2z"/>
		<polyline class="st3" points="172.1,-254.4 183.9,-263.8 240.1,-263.8 251.9,-254.4 		"/>
		<line class="st4" x1="212" y1="-263.8" x2="212" y2="-254.4"/>
		<polyline class="st3" points="364.5,-254.4 376.3,-263.8 432.6,-263.8 444.4,-254.4 		"/>
		<line class="st4" x1="404.4" y1="-263.8" x2="404.4" y2="-254.4"/>
		<polyline class="st3" points="10.3,-254.4 22.1,-263.8 78.4,-263.8 90.2,-254.4 		"/>
		<line class="st4" x1="50.2" y1="-263.8" x2="50.2" y2="-254.4"/>
	</g>
</g>
<g id="Layer_3">
</g>
<g id="Layer_2">
	<g id="CAKE-2">
		<ellipse class="st5" cx="80.3" cy="263.1" rx="65" ry="26.2"/>
		<ellipse class="st5" cx="117.4" cy="230.9" rx="34.2" ry="13.8"/>
		<ellipse class="st3" cx="232.9" cy="278.1" rx="137.9" ry="31.7"/>
		<path class="st3" d="M345.4,116.5C345.4,116.5,345.4,116.5,345.4,116.5c9.6-11,8.5-27.8-2.5-37.4l-64.4-56.4L81.1,248.3L94,259.6
			l135-10L345.4,116.5z"/>
		<path class="st3" d="M378.9,175.8C378.9,175.8,378.9,175.8,378.9,175.8c7.7-8.8,6.8-22.1-2-29.8l-34.1-29.8L225.9,249.8l94.4-7
			L378.9,175.8z"/>
		<path class="st5" d="M345.5,114c8.4-9.6,7.4-24.2-2.2-32.6l-38.6-33.8c0,0,0,0,0,0c-6.3,7.2-5.6,18.1,1.6,24.4l11.5,10
			c8,7,8.8,19.1,1.8,27.1c-7,8-19.1,8.8-27.1,1.8l-4.1-3.5c0,0,0,0,0,0c-5.4-4.8-13.7-4.2-18.5,1.2l-0.3,0.3c0,0,0,0,0,0
			c-4.9,5.6-4.3,14.1,1.3,19l19.4,17c5.4,4.7,5.2,12.2,0.5,17.6l-0.3,0.3c-4.8,5.5-12.5,6.8-18.1,1.9L247,142.6
			c-6.9-6-17.3-5.3-23.3,1.6c-6,6.9-5.3,17.3,1.6,23.3l10.6,9.3c5.4,4.7,5.9,12.9,1.2,18.3l-0.3,0.3c-4.9,5.6-13.3,6.1-18.9,1.3
			l-19.6-17.1c-8.7-7.3-21.7-6.5-29.4,2c-7.9,8.7-7.3,22.1,1.3,30.1l30.6,26.8c0.3,0.3,0.6,0.5,0.9,0.8c3.5,3.3,5.5,7.7,5.8,12.1
			l19.2-1.4L345.5,114z"/>
		<path class="st3" d="M183,250.1c-2.2-1.9-5.5-1.7-7.4,0.5c-0.8,0.9-1.2,2-1.3,3.1l11.7-0.9L183,250.1z"/>
		<path class="st3" d="M282.1,43c1.9-2.2,5.2-2.4,7.4-0.5c0,0,0,0,0,0l3.9,3.4c2.3,1.8,2.6,5.1,0.8,7.4c-1.8,2.3-5.1,2.6-7.4,0.8
			c-0.1-0.1-0.2-0.2-0.3-0.3l-3.9-3.4C280.4,48.5,280.2,45.2,282.1,43z"/>
		<path class="st6" d="M281.7,244.6c-3.3-2.9-8.7-2.2-12,1.6l-0.2,0.2c-0.1,0.1-0.1,0.2-0.2,0.2l13.6-1L281.7,244.6z"/>
		<path class="st5" d="M379,175.8c7.2-8.3,6.9-20.7-0.7-28.6c-2.1-1.4-4.7-2-7.2-1.6c-3.2,0.5-6,2-8.1,4.5c-4.5,5.1-4.5,12.5,0,16.4
			l1.5,1.3c2.2,2,3.5,4.9,3.4,7.9c0,3.2-1.2,6.4-3.4,8.8c-4.6,5.2-12,6.2-16.5,2.2l-18.2-15.9c-2.6-2.3-6.1-3.3-9.6-2.8
			c-3.7,0.5-7.1,2.4-9.5,5.2c-5.3,6-5.2,14.6,0,19.2l11.7,10.2c3.3,2.9,3.3,8.3,0.1,12.1l-0.2,0.2c-3.2,3.6-8.4,4.3-11.6,1.5
			l-6.3-5.5c-2-1.7-4.7-2.5-7.4-2.1c-2.9,0.4-5.5,1.9-7.4,4c-4.1,4.6-4,11.3,0,14.9L305,241c0.9,0.8,1.5,1.8,1.9,2.8l13.4-1
			L379,175.8z"/>
		
			<ellipse transform="matrix(0.2919 -0.9565 0.9565 0.2919 -215.8534 282.9832)" class="st7" cx="83.2" cy="287.3" rx="9.2" ry="9.2"/>
		<path class="st5" d="M373.1,230.9h-96.8c-6.6,0-12,5.4-12,12v12c0,6.6,5.4,12,12,12h96.8c6.6,0,12-5.4,12-12v-12
			C385.1,236.3,379.7,230.9,373.1,230.9z"/>
		<ellipse class="st3" cx="345.5" cy="266.9" rx="33.8" ry="14.3"/>
		<path class="st3" d="M254.9,245.1H86c-6.6,0-12,5.4-12,12v12c0,6.6,5.4,12,12,12h168.9c6.6,0,12-5.4,12-12v-12
			C266.9,250.5,261.5,245.1,254.9,245.1z"/>
		<path class="st7" d="M314.9,263.7c-4.8-1.7-10.1,0.7-11.8,5.5c-1.7,4.8,0.7,10.1,5.5,11.8s10.1-0.7,11.8-5.5
			C322.2,270.7,319.7,265.4,314.9,263.7z"/>
		<path class="st7" d="M245.3,301.6c-4.8-1.7-10.1,0.7-11.8,5.5c-1.7,4.8,0.7,10.1,5.5,11.8s10.1-0.7,11.8-5.5
			C252.5,308.6,250.1,303.3,245.3,301.6z"/>
		
			<ellipse transform="matrix(0.9067 -0.4218 0.4218 0.9067 -76.0021 190.2101)" class="st7" cx="391.9" cy="266.9" rx="9.2" ry="9.2"/>
		<ellipse class="st5" cx="103.5" cy="313.5" rx="25.7" ry="10.4"/>
		<ellipse class="st3" cx="421.2" cy="231.8" rx="25.7" ry="8.3"/>
		<ellipse class="st5" cx="232.8" cy="272.3" rx="33.8" ry="14.3"/>
		<path class="st4" d="M242.1,236.3c0,0,20.8-0.6,20.2-20.2"/>
		<circle class="st8" cx="236.7" cy="242.4" r="10.6"/>
		<path class="st3" d="M267.2,242.2c0,0-8.6-6.7-7-15.8"/>
		<path class="st3" d="M233.7,315.9c0,0-10.2,3.8-17.2-2.4"/>
		<path class="st4" d="M401.3,264.4c0,0,7.9-7.5,16.7-4.6"/>
		<circle class="st8" cx="267.9" cy="248.8" r="8.7"/>
	</g>
</g>
</svg>
