<?xml version="1.0" encoding="utf-8"?>
<!-- Generator: Adobe Illustrator 22.0.1, SVG Export Plug-In . SVG Version: 6.00 Build 0)  -->
<svg version="1.1" xmlns="http://www.w3.org/2000/svg" xmlns:xlink="http://www.w3.org/1999/xlink" x="0px" y="0px"
	 viewBox="0 0 2000 1561.3" style="enable-background:new 0 0 2000 1561.3;" xml:space="preserve">
<style type="text/css">
	.st0{fill:#F7F3EF;stroke:#070707;stroke-width:4;stroke-linecap:round;stroke-linejoin:round;}
	.st1{fill:none;stroke:#070707;stroke-width:4;stroke-linecap:round;stroke-linejoin:round;}
	.st2{fill:#FCBE9F;stroke:#070707;stroke-width:4;stroke-linecap:round;stroke-linejoin:round;}
	.st3{fill:#1C0E0C;}
	.st4{fill:#FF7B7B;stroke:#070707;stroke-width:4;stroke-miterlimit:10;}
	.st5{fill:#E57B07;stroke:#070707;stroke-width:4;stroke-linecap:round;stroke-linejoin:round;}
	.st6{fill:#070707;}
	.st7{fill:#A82F2F;stroke:#070707;stroke-width:4;stroke-miterlimit:10;}
	.st8{fill:#FFFFFF;stroke:#070707;stroke-width:4;stroke-linecap:round;stroke-linejoin:round;}
</style>
<g id="Layer_2">
</g>
<g id="Layer_1">
	<g id="LEGS">
		<path id="PANTS_1_" class="st0" d="M934,874.6h153.9c0,0,107.8,90.3,98.8,248.5"/>
		<path id="SHADOW_1_" class="st1" d="M1002.9,1104.1"/>
	</g>
	<path id="SHIRT" class="st0" d="M1067.7,590.9c21.4,5.3,75.2,19.1,91,42.5c20.5,30.5,54.3,177.4,54.3,177.4l-58.9-17.4
		c0,0-37.8-68.4-40.3-68.4s-25.8,149.6-25.8,149.6H934L921.2,799c0,0-32.7-26.6-30.6-42.9s2.7-21.1,2.7-21.1s-17.5,6.4-65.5,53.9
		l-56.2-24.6c0,0,86.8-122.8,111.8-137.5s54.6-17.8,54.6-17.8L1067.7,590.9z"/>
	<g id="HEAD">
		<g id="NECK">
			<path class="st2" d="M993.5,489.3c0,0,19.2,77.5,83,104.5c0,0-46.6,32.3-144.6,20.3c0,0,34.8-39.5,28.2-83.5L993.5,489.3z"/>
			<path class="st3" d="M951,599.9c-2.7,0.1-5.3-0.4-7.7-1.6c9.5-15.5,21-40.8,17-67.7l32.2-39.9c1.3,1.8,2,2.9,2,2.9
				C998.9,507.6,1001.6,597.7,951,599.9z"/>
		</g>
		<path id="HEAD-2" class="st2" d="M993.5,489.3c4.5,14-1.7,80.7-38.7,85.2c-27.8,3.4-58.6-52.4-62.6-65s0.9-42.5,30.6-51.5
			C962.8,445.9,993.5,489.3,993.5,489.3z"/>
		<g id="HAIR">
			<path class="st3" d="M907.5,474.6c0,0,27.5,23.3,86,14.8c0,0,17.1,78.8,83,104.5c0,0,42.6-48.2,13.9-81.4c-18.2-21-59-2.6-59-2.6
				s36.3-91.5-53.8-91.9s-109.5,95.3-82.4,98.8C895.3,516.8,882,489.3,907.5,474.6z"/>
			<path class="st1" d="M1094.8,504.2c-31.2-23.7-65,6-65,6"/>
			<path class="st1" d="M906.7,473.7c0,0,15.3,34.5,73.9,25.9"/>
		</g>
		<path id="SHAWL" class="st4" d="M884.2,497.3c0,0-9-33.6,0.5-49.4s52.1-47.4,82.5-49.6s96.6,34.6,96.6,34.6s-55.5,2.8-65.5,71.2
			c0,0-25.3-57.1-70.4-47.4S884.2,497.3,884.2,497.3z"/>
	</g>
	<path id="APRON" class="st4" d="M1050.4,581c0,0-19.4,53.9-21.4,93.3c0,0-68.1,9.6-83.8,1c-9.8-5.4,2.7-79.9,2.7-79.9l-23.5,16.1
		c0,0-28.5,102.4-31.1,123.5s-10.8,33.9,28,64l12.8,75.6l-41.6,212.8c0,0,159.6,11.4,216.3-3.4s-20.7-209.4-20.7-209.4l11.5-71.9
		c0,0-64.8-60.3-31.7-211.8L1050.4,581z"/>
	<g id="HANDS">
		<g id="RIGHT_HAND">
			<path class="st0" d="M1154.4,827.7c-4.5-1.8-17.9-43,14.4-51.9c42.4-11.6,50.9,10.3,49.8,28.5
				C1216.5,839.2,1194.2,844,1154.4,827.7z"/>
			<path class="st0" d="M995.1,867.2l-0.5-0.2c-1.7-0.9-2.4-3-1.5-4.7c0,0,0,0,0,0l26.7-57.9c0.9-1.7,3-2.4,4.7-1.5l6.1,3.2
				c1.7,0.9,2.4,3,1.5,4.7c0,0,0,0,0,0l-32.3,55C998.9,867.5,996.8,868.2,995.1,867.2z"/>
			
				<rect x="918.5" y="910.4" transform="matrix(0.4638 -0.886 0.886 0.4638 -287.9318 1349.6836)" class="st0" width="105.1" height="4.5"/>
			<path class="st0" d="M952.9,984.2c-6.3,12.1-21.6,23.6-29.5,19.5s-7.1-23.3-0.8-35.3s16.6-13.6,24.3-9.6S959.2,972.2,952.9,984.2
				z"/>
			<path class="st2" d="M1189,836.8c-37.6,22.5-114.8,55.5-158.4,65.2c-5.3,11.9-23.1,30.4-27.5,31.3c-5.1,1.1-7-1.4-12-3.3
				c-8.6-3.2-4.5-9.3-10.1-10.4s-6.9-9.6-6.9-9.6s-5.3,0.7-8.5,9.5c-4,11-9.8,8.4-9.8,8.4s3-17.8,5.5-21.1c4.1-5.4,8.8-10.4,14-14.9
				c3.2-2.7,30.6-7.8,44.2-7.7c34.1-29.2,92.1-72.1,130.4-88C1177.3,784.8,1222.8,816.6,1189,836.8z"/>
		</g>
		<g id="LEFT_HAND">
			<path class="st0" d="M757.5,818.9c-4.5-1.8-17.7-46.3,14.4-55.7s55.4,12.6,56.7,30.8C829.3,802.4,797.4,835.2,757.5,818.9z"/>
			<path class="st2" d="M789.8,852.1c-5.1-2-56.8-33.9-25.3-58.7c41.2-32.5,55.9,25.9,55.9,25.9L789.8,852.1z"/>
			<path class="st0" d="M840,829.3l-0.5,0.2c-1.8,0.8-3.8-0.1-4.6-1.8c0,0,0,0,0,0l-27.8-57.4c-0.8-1.8,0.1-3.8,1.8-4.6c0,0,0,0,0,0
				l6.3-2.7c1.8-0.8,3.8,0.1,4.6,1.9l22,59.9C842.6,826.5,841.8,828.6,840,829.3C840,829.3,840,829.3,840,829.3z"/>
			
				<rect x="857.5" y="824.3" transform="matrix(0.9206 -0.3906 0.3906 0.9206 -274.1714 405.4514)" class="st0" width="4.5" height="105.1"/>
			<path class="st0" d="M903.6,936.2c5.3,12.5,4.5,31.7-3.7,35.2s-22.5-9.3-27.8-21.8s0-21.4,8-24.9
				C888.4,921.2,898.3,923.7,903.6,936.2z"/>
			<path class="st2" d="M816.8,819.5c2.7-1.8,9.5-4.9,19.1,3.7s35.5,37.6,31.9,41.2c-7,7-20.9-16.5-23.7-13.9
				c-0.8,0.8-0.5,2.6-0.7,4.5s-1.2,3.9-4.4,5.1c-4.3,1.5,0,7.1-6.1,10.4s-3.1,5-7.5,10.2c-5,5.9-32.9-11.5-37.3-20.8
				S805.2,827,816.8,819.5z"/>
		</g>
	</g>
	<path class="st1" d="M907.3,524.6c0,0,9.3,5.1,13.1-5.1"/>
	<path class="st1" d="M938.9,512.7c0,0,10.4,6.2,18-5.8"/>
	<polyline class="st1" points="927.8,518 927.8,534.3 935.3,539.4 	"/>
	<path class="st1" d="M941.4,549.7c0,0,10.3-3.2,11.8-10.9"/>
	<line class="st1" x1="941.8" y1="693.1" x2="1027.5" y2="693.1"/>
	<line class="st1" x1="945.5" y1="836.6" x2="988" y2="836.6"/>
	
		<ellipse transform="matrix(0.672 -0.7406 0.7406 0.672 -41.9882 928.6244)" class="st5" cx="1027.3" cy="511.7" rx="25.3" ry="9.6"/>
	<g id="TABLE">
		<polygon class="st0" points="1628.2,1357.6 1578.2,1127.8 1619.4,1122.8 1657.9,1357.6 		"/>
		<polygon class="st3" points="1578.2,1127.8 1619.4,1122.8 1623.5,1147.6 1581.1,1141.3 		"/>
		<polygon class="st0" points="371.7,1357.6 421.7,1127.8 380.4,1122.8 342,1357.6 		"/>
		<polygon class="st6" points="380.4,1122.8 421.7,1127.8 415.8,1155.1 378.7,1133.3 		"/>
		<ellipse class="st0" cx="999.5" cy="1071.6" rx="699.5" ry="51.5"/>
		<path class="st0" d="M1699,1071.6v27.3c0,28.5-313.2,51.5-699.5,51.5c-337.9,0-619.8-17.6-685.2-41.1c-9.4-3.3-14.4-6.8-14.4-10.4
			v-27.3c0,3.6,4.9,7.1,14.3,10.4c3,1.1,6.6,2.2,10.5,3.2c81.3,21.8,352.5,37.8,674.6,37.8s593.3-16,674.6-37.8
			C1690.3,1080.9,1699,1076.3,1699,1071.6z"/>
		<path class="st0" d="M1280.2,1118.6c-20.2,130.1-242.2,207.4-404.8,192.1c-199.6-18.8-306.7-115.1-351.1-167.7
			c-7.9-9.4-9.7-22.5-4.5-33.6c124.7,8.5,291.6,13.7,474.9,13.7C1096.4,1123.1,1193.1,1121.5,1280.2,1118.6z"/>
		<path class="st0" d="M1487.9,1033.9l-2.3,0.9l-205.3,83.6v0.2c-87.2,2.9-183.8,4.5-285.5,4.5c-183.3,0-350.2-5.2-474.9-13.7
			c3.4-7.3,9.4-13,16.9-16l171.5-68.7c0,0,4.4-0.2,12.6-0.6l0,0C791,1021.2,1140.7,1008.5,1487.9,1033.9z"/>
	</g>
	<g id="LEMON">
		<path class="st0" d="M663,1088.6c7.3,6.3,15.7,9.8,24.4,7.1l7.9-2.4c5.5-1.7,9.3-5,12.6-9.3c3.1-4.1,3.8-11.6,2.2-17
			c-3.3-11.1-16.4-17-27.5-13.6l-6.1,1.9c-8.1,2.5-12.2,6.2-14.7,11c-1.3,2.4-2.1,6.1-3.7,8.4c-1.5,2-3.9,3.4-3.1,7.2
			S658.3,1084.6,663,1088.6z"/>
		<path class="st0" d="M788.5,1035.6c1.1,0,2,0.9,2,2c0,0,0,0.1,0,0.1c-1,16.8-14.3,30-30.5,30s-29.5-13.3-30.5-30
			c-0.1-1.1,0.8-2.1,1.9-2.1c0,0,0.1,0,0.1,0H788.5z"/>
		<path class="st0" d="M788.9,1035.6c0,16-13,24.7-28.9,24.7s-28.9-8.7-28.9-24.7H788.9z"/>
	</g>
	<g id="GROCERY_BAG">
		<g id="BAGUETTE">
			<path class="st0" d="M1580.7,878.8L1580.7,878.8c-8,30.2-32.4,114.5-55.3,112.7c-27.9-2.2,6.6-128.5,6.6-128.5
				s27.8-111.2,55.8-110.2S1580.7,878.8,1580.7,878.8z"/>
			
				<ellipse transform="matrix(4.361939e-02 -0.999 0.999 4.361939e-02 536.9411 2430.0815)" class="st0" cx="1537.7" cy="934.6" rx="3.3" ry="10.1"/>
			<ellipse class="st0" cx="1577.7" cy="795.4" rx="10.1" ry="3.3"/>
			<ellipse class="st0" cx="1570.6" cy="823.6" rx="13.4" ry="4.4"/>
			<ellipse class="st0" cx="1559.1" cy="852.6" rx="15.1" ry="5"/>
			
				<ellipse transform="matrix(4.361939e-02 -0.999 0.999 4.361939e-02 570.6389 2412.8076)" class="st0" cx="1545.5" cy="908.4" rx="4.4" ry="13.4"/>
			
				<ellipse transform="matrix(4.361939e-02 -0.999 0.999 4.361939e-02 597.5443 2395.082)" class="st0" cx="1549.7" cy="885.4" rx="5" ry="15.1"/>
		</g>
		<g id="RED_PEPPER">
			<path class="st0" d="M1431,852.1c0,0,5.6-7.4-2.9-15.1l2.9-1.1c4.5,2.8,7.6,7.5,8.4,12.7L1431,852.1z"/>
			<path class="st7" d="M1442.1,916.1L1442.1,916.1c-7.2,2.6-15.1-0.6-18.5-7.4l-16.9-30.6c-3.9-8,1.6-18.1,9.9-21.2l0.2-0.1
				c7.7-2.8,16.3,1.2,19.1,8.9c0,0,0,0,0,0L1451,897C1453.8,904.7,1449.8,913.3,1442.1,916.1z"/>
			<path class="st7" d="M1471.4,905.4L1471.4,905.4c7.2-2.6,11.2-10.2,9.4-17.6l-6.4-34.4c-2.1-8.6-13.2-12.8-21.5-9.7l-0.2,0.1
				c-7.7,2.8-11.7,11.4-8.9,19.1c0,0,0,0,0,0l8.6,33.6C1455.1,904.3,1463.6,908.2,1471.4,905.4z"/>
			<path class="st7" d="M1457.7,912.7L1457.7,912.7c-6.5,2.4-13.8-1-16.1-7.5c0,0,0,0,0,0l-14.5-39.8c-2.4-6.5,1-13.8,7.5-16.2l0,0
				c6.5-2.4,13.8,1,16.2,7.5c0,0,0,0,0,0l14.5,39.8C1467.7,903.1,1464.3,910.3,1457.7,912.7z"/>
		</g>
		<g id="PARSLEY">
			<path class="st1" d="M1390.3,880.5c0,0-22.5-42.4-88.7-7.7"/>
			<path class="st0" d="M1331.2,861.2c0,0-13.7,3.6-13.7,7.1s6.8,1.6,6.8,1.6s-9.9,4.9-9.6,8.1s7.3,0,7.3,0s-4.8,9.9-1,11
				s3.9-6.6,3.9-6.6s4.8,3.8,6.1,2.4s-3.2-10.7-3.2-10.7s4.4,5.8,7.2,3.8S1330,866.9,1331.2,861.2z"/>
			<path class="st0" d="M1307.5,869.8c0,0-12.5-3.4-14.4,0s4.1,1.9,4.1,1.9s-11.4,5.2-10.5,8.8s6.9,0,6.9,0s-1,8.5,3.4,6.9
				S1300.7,874.2,1307.5,869.8z"/>
			<path class="st0" d="M1376.3,836.3c0,0,10-4.8,9.7-7.8s-3.7,1.1-3.7,1.1s5.2-9.3,2.8-11s-4.7,3.8-4.7,3.8s-3.4-5.7-5.6-2.3
				S1378.8,830,1376.3,836.3z"/>
			<path class="st1" d="M1394,880.5c0,0-11-41.3-59.2-38.8"/>
			<path class="st0" d="M1337.4,841.1c0,0-5.4,14.1-10.8,11.3s2.3-5.3,2.3-5.3s-15.9,4-15.2-1.7s11.9-3.4,11.9-3.4s-6-3.4,0-4.8
				S1337.4,841.1,1337.4,841.1z"/>
			<path class="st0" d="M1364.4,846.7c0,0-1.7-13.8-7.4-13.8s1.2,8.7,1.2,8.7s-6.9-5.7-8.1-1.8s7,5.9,7,5.9s-5.3,6.7-1.3,6.3
				S1364.4,846.7,1364.4,846.7z"/>
			<path class="st0" d="M1363.5,861.2c0,0-13.2-4.2-15.6,1s8.4,2.5,8.4,2.5s-8.1,3.9-5,6.7s8.2-3.9,8.2-3.9s3.9,7.6,5.2,3.8
				S1363.5,861.2,1363.5,861.2z"/>
			<path class="st0" d="M1373.4,847.6c0,0,11-6.3,9-9.3s-8.7,4.8-8.7,4.8s-2.3-8.7-5.1-7.3S1373.4,847.6,1373.4,847.6z"/>
			<path class="st1" d="M1382.7,880c0,0-17.8-34.6-3.7-47.6"/>
		</g>
		<g id="ONION">
			<path class="st0" d="M1470.6,784.8c0,0,15.2,26.8,9.8,134.9l10.7,0.3C1491.1,920.1,1494.7,818.3,1470.6,784.8z"/>
			<path class="st0" d="M1480.4,919.8c0,0,20.6-139.1,6-173.4c0,0,22.6,34.4,4.7,173.8L1480.4,919.8z"/>
			<path class="st0" d="M1480.4,919.8c6.2-50,50.5-115,50.5-115s-35.4,78.7-39.7,115.3L1480.4,919.8z"/>
			<path class="st0" d="M1475.8,959.4c0,0,3.3-19.1,4.6-39.6c0,0,5.7-4.7,10.7,0.3c-1,14.2-0.9,28.5,0.5,42.7L1475.8,959.4z"/>
			
				<ellipse transform="matrix(0.2748 -0.9615 0.9615 0.2748 151.2597 2124.0432)" class="st0" cx="1483.7" cy="961.7" rx="4.8" ry="8.2"/>
			<path class="st0" d="M1489.9,963.4L1489.9,963.4c-0.4,1.2-1.4,2-2.6,2.2c-1.5,0.3-3,0.3-4.5-0.2c-3.3-1-5.5-3.3-5-5.4V960
				c0.4-1.1,1.4-2,2.6-2.2c1.5-0.3,3-0.3,4.5,0.2C1488.3,959,1490.5,961.3,1489.9,963.4z M1478.8,960.3c-0.4,1.5,1.6,3.5,4.3,4.3
				c1.3,0.4,2.7,0.5,4,0.2c0.9-0.1,1.7-0.7,2-1.5l0,0c0.4-1.5-1.6-3.5-4.3-4.3c-1.3-0.4-2.7-0.5-4-0.2
				C1479.9,958.9,1479.1,959.5,1478.8,960.3L1478.8,960.3z"/>
			<path class="st0" d="M1486.7,962.5L1486.7,962.5c-0.3,1-1.8,1.5-3.4,1s-2.6-1.6-2.3-2.7l0,0c0.3-1,1.8-1.5,3.4-1l0,0
				C1485.9,960.3,1487,961.5,1486.7,962.5z M1481.8,961.2c-0.1,0.5,0.6,1.2,1.7,1.5s2.1,0,2.3-0.4l0,0c0.1-0.5-0.6-1.2-1.7-1.5l0,0
				C1482.9,960.4,1481.9,960.7,1481.8,961.2L1481.8,961.2z"/>
		</g>
		<g id="PACK">
			<polygon class="st0" points="1597.7,880 1571.1,1082.3 1559.4,1082.3 1529,880 			"/>
			<polygon class="st0" points="1605.2,886.5 1579.1,1083.4 1567.3,1083.4 1537.4,886.5 			"/>
			<polygon class="st0" points="1598.4,880 1571.9,1082.3 1560.1,1082.3 1529.8,880 			"/>
			<polygon class="st0" points="1560.1,1082.3 1394.8,1082.3 1368.3,880 1529.8,880 			"/>
		</g>
	</g>
	<g id="YELLOW_PEPPER">
		<path class="st0" d="M1304.2,979.5c0,0,7.1-4.6,2.3-14h2.9c3,4,4.1,9.2,3.2,14.1L1304.2,979.5z"/>
		<path class="st7" d="M1292.8,1038.3L1292.8,1038.3c-7-0.1-12.9-5.4-13.5-12.4l-4.7-31.9c-0.8-8.1,7.2-15.1,15.4-15h0.2
			c7.6,0.1,13.7,6.3,13.6,13.9l2.8,31.8C1306.6,1032.3,1300.4,1038.4,1292.8,1038.3z"/>
		<path class="st7" d="M1321.5,1038.6L1321.5,1038.6c7,0.1,13-5.2,13.8-12.1l5.7-31.8c1-8.1-7.2-15.3-15.4-15.4h-0.2
			c-7.6-0.1-13.8,6-13.9,13.6l-3.5,31.8C1307.8,1032.3,1313.9,1038.5,1321.5,1038.6z"/>
		<path class="st7" d="M1307.4,1040.4L1307.4,1040.4c-6.4-0.1-11.6-5.3-11.5-11.8l0.4-39c0.1-6.4,5.3-11.6,11.8-11.5l0,0
			c6.4,0.1,11.6,5.3,11.5,11.8l-0.4,39C1319.1,1035.4,1313.8,1040.5,1307.4,1040.4C1307.4,1040.5,1307.4,1040.4,1307.4,1040.4z"/>
	</g>
	<g id="SALAD">
		<g id="BOWL">
			<path class="st0" d="M1038.5,936.8c0,65.4-53,118.5-118.5,118.5l0,0c-65.4,0-118.5-53-118.5-118.5H1038.5z"/>
			<path class="st0" d="M1038.2,936.4c0,65.4-53,118.5-118.5,118.5l0,0c-65.4,0-118.5-53-118.5-118.5H1038.2z"/>
		</g>
	</g>
	<g id="CUTTING_BOARD">
		<g id="CUTTING_BOARD-2">
			<path class="st0" d="M1303.5,1050.6c0,1.1-0.7,2.2-1.8,2.6l-6.5,2.7l-60.7,24.7c-3.2,1.3-6.6,2-10.1,2H986.3
				c-1.5,0-2.8-1.2-2.8-2.7c0,0,0-0.1,0-0.1c0-1.1,0.7-2.2,1.8-2.6l67.2-27.4c3.2-1.3,6.6-2,10.1-2h238.2c1.5,0,2.8,1.2,2.8,2.7
				C1303.5,1050.5,1303.5,1050.5,1303.5,1050.6z"/>
			<path class="st0" d="M1303.5,1050.6v8.1c0,1.1-0.7,2.2-1.8,2.6l-67.2,27.3c-3.2,1.3-6.6,2-10.1,2H986.3c-1.5,0-2.8-1.2-2.8-2.7
				c0,0,0-0.1,0-0.1v-8.1c0,1.5,1.2,2.8,2.7,2.8c0,0,0.1,0,0.1,0h238.2c3.5,0,6.9-0.7,10.1-2l60.7-24.7l6.5-2.7
				C1302.9,1052.7,1303.6,1051.7,1303.5,1050.6z"/>
		</g>
		<g id="KNIFE">
			<path class="st0" d="M1115.9,1054.1l50.2-14.1c1.3-0.4,2-1.7,1.7-2.9c0,0,0,0,0-0.1l-2.1-7c-0.4-1.3-1.7-2-2.9-1.7c0,0,0,0,0,0
				l-50.2,14.1c-1.3,0.4-2,1.7-1.7,3c0,0,0,0,0,0l2.1,7C1113.3,1053.7,1114.7,1054.5,1115.9,1054.1L1115.9,1054.1z"/>
			<path class="st0" d="M1035.3,1065.6l75.4-21.2l5.1,18C1115.8,1062.4,1066.6,1084.3,1035.3,1065.6z"/>
		</g>
		<g id="TOMATO">
			<ellipse class="st0" cx="1230.4" cy="1043.4" rx="24.2" ry="22.1"/>
			<ellipse class="st0" cx="1225.9" cy="1045.1" rx="19" ry="19.4"/>
			<path class="st0" d="M1228.5,1038.6c0,1.3-2.6,5-2.6,5s-2.6-3.7-2.6-5c0.1-1.4,1.3-2.5,2.7-2.4
				C1227.4,1036.3,1228.4,1037.3,1228.5,1038.6z"/>
			<path class="st0" d="M1223.4,1051.5c0-1.3,2.6-5,2.6-5s2.6,3.7,2.6,5c-0.1,1.4-1.3,2.5-2.7,2.4
				C1224.5,1053.8,1223.5,1052.8,1223.4,1051.5z"/>
			<path class="st0" d="M1219.2,1042.6c1.4,0,5.3,2.4,5.3,2.4s-3.8,2.4-5.3,2.4c-1.4,0-2.4-1.1-2.4-2.5
				C1216.8,1043.7,1217.9,1042.6,1219.2,1042.6L1219.2,1042.6z"/>
			<path class="st0" d="M1232.7,1047.5c-1.4,0-5.3-2.4-5.3-2.4s3.8-2.4,5.3-2.4c1.4,0,2.4,1.1,2.4,2.4
				C1235.1,1046.4,1234,1047.5,1232.7,1047.5L1232.7,1047.5z"/>
			
				<ellipse transform="matrix(0.8552 -0.5183 0.5183 0.8552 -367.8813 775.6846)" class="st0" cx="1204.2" cy="1046.2" rx="22.2" ry="18.1"/>
			
				<ellipse transform="matrix(0.8113 -0.5847 0.5847 0.8113 -385.2441 900.5407)" class="st0" cx="1202.3" cy="1047" rx="19.8" ry="16.2"/>
			<path class="st0" d="M1205.9,1041.3c-0.2,1.2-3.4,4.5-3.4,4.5s-1.8-3.3-1.6-4.5c0.4-1.3,1.6-2.2,2.9-2.2c1-0.1,1.9,0.6,2.1,1.7
				C1205.9,1040.9,1205.9,1041.1,1205.9,1041.3z"/>
			<path class="st0" d="M1198.7,1052.9c0.2-1.2,3.4-4.5,3.4-4.5s1.8,3.3,1.6,4.5c-0.4,1.3-1.6,2.2-2.9,2.2c-1,0.1-1.9-0.6-2.1-1.7
				C1198.6,1053.2,1198.6,1053,1198.7,1052.9z"/>
			<path class="st0" d="M1196.2,1044.9c1.4,0,4.6,2.2,4.6,2.2s-4.1,2.2-5.5,2.2c-1,0.1-1.9-0.7-2-1.7c0-0.2,0-0.3,0-0.5
				C1193.7,1045.8,1194.9,1044.9,1196.2,1044.9z"/>
			<path class="st0" d="M1208.3,1049.3c-1.4,0-4.6-2.2-4.6-2.2s4.1-2.2,5.5-2.2c1-0.1,1.9,0.7,2,1.7c0,0.2,0,0.3,0,0.5
				C1210.9,1048.4,1209.7,1049.3,1208.3,1049.3z"/>
			
				<ellipse transform="matrix(0.9459 -0.3246 0.3246 0.9459 -276.3055 442.9704)" class="st0" cx="1189.7" cy="1049.7" rx="20.2" ry="15.1"/>
			
				<ellipse transform="matrix(0.9302 -0.367 0.367 0.9302 -302.6592 509.2043)" class="st0" cx="1187.8" cy="1050.5" rx="17.9" ry="13.6"/>
			<path class="st0" d="M1191.2,1045.8c-0.2,1-3.2,3.7-3.2,3.7s-1.7-2.7-1.5-3.7c0.4-1.1,1.5-1.9,2.7-1.8
				C1190.6,1044,1191.4,1044.8,1191.2,1045.8z"/>
			<path class="st0" d="M1184.4,1055.2c0.2-1,3.2-3.7,3.2-3.7s1.7,2.7,1.5,3.7c-0.4,1.1-1.5,1.8-2.7,1.8
				C1185.1,1057,1184.2,1056.2,1184.4,1055.2z"/>
			<path class="st0" d="M1182.2,1048.7c1.3,0,4.3,1.8,4.3,1.8s-3.9,1.8-5.2,1.8s-2.1-0.8-1.9-1.8
				C1179.8,1049.4,1180.9,1048.6,1182.2,1048.7z"/>
			<path class="st0" d="M1193.5,1052.3c-1.3,0-4.3-1.8-4.3-1.8s3.9-1.8,5.2-1.8s2.1,0.8,1.9,1.8
				C1195.8,1051.6,1194.7,1052.3,1193.5,1052.3z"/>
		</g>
	</g>
	<g id="OIL">
		<path class="st0" d="M673.4,822.6h14.4c2.6,0,4.7,2.1,4.7,4.6v0v30.8l0,0h-23.7l0,0v-30.8C668.8,824.7,670.9,822.6,673.4,822.6z"
			/>
		<path class="st3" d="M685.7,858.1h5.6c14.9,0,26.9,12,26.9,26.9l0,0v150.6c0,4.4-3.6,8-8,8h-43.4c-4.4,0-8-3.6-8-8V885
			C658.9,870.2,670.9,858.1,685.7,858.1z"/>
		<path class="st0" d="M670.8,858.1h5.6c14.9,0,26.9,12,26.9,26.9l0,0v150.6c0,4.4-3.6,8-8,8H652c-4.4,0-8-3.6-8-8V885
			C644,870.2,656,858.1,670.8,858.1z"/>
		<path class="st3" d="M714.7,887.5v143.7c0,6-3.3,9.3-8.8,9.3h-49c-5.5,0-8.8-3.7-8.8-9.7V887.5H714.7z"/>
		<path class="st0" d="M656.2,931.8h34.6c3,0,5.5,2.4,5.5,5.5V960c0,3-2.4,5.5-5.5,5.5h-34.6c-3,0-5.5-2.4-5.5-5.5v-22.7
			C650.7,934.2,653.2,931.8,656.2,931.8z"/>
		<path class="st0" d="M670.8,858.1h5.6c14.9,0,26.9,12,26.9,26.9l0,0v150.6c0,4.4-3.6,8-8,8H652c-4.4,0-8-3.6-8-8V885
			C644,870.2,656,858.1,670.8,858.1z"/>
	</g>
	<g id="SALT_PEPPER">
		<g id="SALT">
			<circle class="st0" cx="452.1" cy="996.8" r="16.7"/>
			<circle class="st0" cx="449.4" cy="993.9" r="17.2"/>
			<path class="st0" d="M447.5,1007.9H464c7.7,0,14,6.3,14,14v32.8c0,2.4-1.9,4.3-4.3,4.3c0,0,0,0,0,0h-36c-2.4,0-4.3-1.9-4.3-4.3
				l0,0V1022c0-7.7,6.2-14,13.9-14.1C447.4,1007.9,447.5,1007.9,447.5,1007.9z"/>
			<path class="st3" d="M447.1,1007.9h16.5c7.7,0,14,6.3,14,14v32.8c0,2.4-1.9,4.3-4.3,4.3c0,0,0,0,0,0h-36.1
				c-2.4,0-4.3-1.9-4.3-4.3l0,0V1022c0-7.7,6.2-14,13.9-14.1C447.1,1007.9,447.1,1007.9,447.1,1007.9z"/>
			<path class="st0" d="M435.2,1007.9h16.5c7.7,0,14,6.3,14,14v32.8c0,2.4-1.9,4.3-4.3,4.3c0,0,0,0,0,0h-36.1
				c-2.4,0-4.3-1.9-4.3-4.3l0,0V1022c0-7.7,6.2-14,13.9-14.1C435.1,1007.9,435.2,1007.9,435.2,1007.9z"/>
			<path class="st0" d="M435,1026.5h21.8c1.9,0,3.4,1.5,3.4,3.4v11c0,1.9-1.5,3.4-3.4,3.4H435c-1.9,0-3.4-1.5-3.4-3.4v-11
				C431.6,1028.1,433.1,1026.5,435,1026.5z"/>
			<path class="st0" d="M432.3,1024.2h21.8c1.9,0,3.4,1.5,3.4,3.4v11c0,1.9-1.5,3.4-3.4,3.4h-21.8c-1.9,0-3.4-1.5-3.4-3.4v-11
				C428.9,1025.8,430.4,1024.2,432.3,1024.2z"/>
		</g>
		<g id="PEPPER">
			<circle class="st0" cx="529.1" cy="981.7" r="16.7"/>
			<circle class="st0" cx="526.7" cy="978.5" r="17.2"/>
			<path class="st0" d="M524.4,992.5h16.5c7.7,0,14,6.3,14,14v32.8c0,2.4-1.9,4.3-4.3,4.3l0,0h-36c-2.4,0-4.3-1.9-4.3-4.3l0,0v-32.8
				C510.3,998.8,516.6,992.5,524.4,992.5C524.3,992.5,524.3,992.5,524.4,992.5z"/>
			<path class="st3" d="M524.4,992.5h16.5c7.7,0,14,6.3,14,14v32.8c0,2.4-1.9,4.3-4.3,4.3l0,0h-36c-2.4,0-4.3-1.9-4.3-4.3l0,0v-32.8
				C510.3,998.8,516.6,992.5,524.4,992.5C524.3,992.5,524.3,992.5,524.4,992.5z"/>
			<path class="st0" d="M512.4,992.5H529c7.7,0,14,6.3,14,14v32.8c0,2.4-1.9,4.3-4.3,4.3l0,0h-36.1c-2.4,0-4.3-1.9-4.3-4.3l0,0
				v-32.8C498.4,998.8,504.7,992.5,512.4,992.5C512.4,992.5,512.4,992.5,512.4,992.5z"/>
			<path class="st0" d="M512.3,1011.3h21.8c1.9,0,3.4,1.5,3.4,3.4v11c0,1.9-1.5,3.4-3.4,3.4h-21.8c-1.9,0-3.4-1.5-3.4-3.4v-11
				C508.9,1012.9,510.4,1011.3,512.3,1011.3z"/>
			<path class="st0" d="M509.6,1009h21.8c1.9,0,3.4,1.5,3.4,3.4v11c0,1.9-1.5,3.4-3.4,3.4h-21.8c-1.9,0-3.4-1.5-3.4-3.4v-11
				C506.2,1010.6,507.7,1009,509.6,1009z"/>
		</g>
	</g>
	<g id="SHELVES">
		<g id="RIGHT">
			<path id="TOWEL" class="st3" d="M1300.8,636.4v125.7h101.6V645.4c0-5-5.1-9-11.4-9L1300.8,636.4z"/>
			<g id="SHELF">
				<polygon class="st0" points="1239.2,597 1265,597 1265,611.1 1239.2,606.8 				"/>
				<line class="st1" x1="1264.6" y1="640.9" x2="1675.2" y2="640.9"/>
				<rect x="1219.1" y="571.2" class="st0" width="502.5" height="25.8"/>
				<rect x="1239.2" y="597" class="st0" width="25.8" height="43.8"/>
				<polygon class="st0" points="1676,597 1701.8,597 1701.8,611.1 1676,606.8 				"/>
				<rect x="1676" y="597" class="st0" width="25.8" height="43.8"/>
			</g>
			<g id="TOWEL-2">
				<path class="st0" d="M1391.1,636.4c-6.6,0-12,4-12,9v89.2h-94.4v-89.2c0-5,5.4-9,12-9L1391.1,636.4z"/>
			</g>
			<g id="DISHES">
				<circle class="st0" cx="1309.3" cy="494.1" r="75.5"/>
				
					<ellipse transform="matrix(0.3414 -0.9399 0.9399 0.3414 397.9418 1556.0671)" class="st0" cx="1309.3" cy="494.1" rx="42.1" ry="42.1"/>
				<path class="st0" d="M1429.9,520.8h100.5c0,4.3-3.5,7.8-7.8,7.8h-84.9C1433.4,528.7,1429.9,525.2,1429.9,520.8L1429.9,520.8z"/>
				<path class="st0" d="M1420.7,538.2h119c0,5.1-4.2,9.3-9.3,9.3l0,0h-100.5C1424.8,547.5,1420.7,543.3,1420.7,538.2
					C1420.7,538.2,1420.7,538.2,1420.7,538.2L1420.7,538.2z"/>
				<path class="st0" d="M1408,558.3h144.4c0,6.2-5,11.2-11.2,11.2h-121.9C1413,569.6,1408,564.5,1408,558.3z"/>
				<path class="st0" d="M1416.1,512.7h128.3c0.8,0,1.3,0.6,1.3,1.4c0,0.6-0.4,1-0.9,1.2l-13.6,5h-102l-13.6-5
					c-0.7-0.3-1.1-1.1-0.8-1.8C1415,513.1,1415.5,512.8,1416.1,512.7z"/>
				<path class="st0" d="M1429.2,520.3h102c0,4.4-3.6,7.9-7.9,8h-86.1C1432.7,528.3,1429.2,524.7,1429.2,520.3
					C1429.2,520.3,1429.2,520.3,1429.2,520.3L1429.2,520.3z"/>
				<path class="st0" d="M1404.2,528.4h151.9c0.9,0,1.6,0.7,1.6,1.6c0,0.7-0.4,1.3-1.1,1.5l-16.1,5.9h-120.8l-16.1-5.9
					c-0.8-0.3-1.3-1.2-1-2.1C1403,528.8,1403.6,528.4,1404.2,528.4z"/>
				<path class="st0" d="M1419.8,537.4h120.8c0,5.2-4.2,9.4-9.4,9.4l0,0h-102C1424,546.8,1419.8,542.6,1419.8,537.4
					C1419.8,537.4,1419.8,537.4,1419.8,537.4L1419.8,537.4z"/>
				<path class="st0" d="M1388.1,546.8h184.3c1.1,0,2,0.8,2,1.9c0,0.8-0.5,1.6-1.3,1.9l-19.5,7.1h-146.5l-19.5-7.1
					c-1-0.4-1.5-1.5-1.2-2.5C1386.5,547.4,1387.2,546.8,1388.1,546.8z"/>
				<path class="st0" d="M1406.9,557.8h146.5c0,6.3-5.1,11.4-11.4,11.4c0,0,0,0,0,0h-123.7C1412,569.2,1406.9,564.1,1406.9,557.8
					C1406.9,557.8,1406.9,557.8,1406.9,557.8L1406.9,557.8z"/>
			</g>
			<g id="CUPS">
				<path class="st0" d="M1458.3,647.2l32.5,32.6c4.7,4.8,4.5,12.7-0.6,17.7l-12.4,12.3c-5.1,5-13,5.3-17.7,0.5l-32.6-32.6
					L1458.3,647.2z"/>
				<path class="st1" d="M1464.9,653.8L1464.9,653.8c5.8-5.7,14.8-6,20.2-0.6l6.6,6.6c5.4,5.4,5.1,14.4-0.7,20.2l0,0"/>
				<rect x="1474.8" y="640.9" class="st0" width="3.8" height="13.2"/>
				<path class="st0" d="M1546.3,647.2l32.6,32.6c4.7,4.8,4.5,12.7-0.6,17.7l-12.4,12.3c-5,5-13,5.3-17.7,0.5l-32.6-32.6
					L1546.3,647.2z"/>
				<path class="st0" d="M1546.3,647.2l32.6,32.6c4.7,4.8,4.5,12.7-0.6,17.7l-12.4,12.3c-5,5-13,5.3-17.7,0.5l-32.6-32.6
					L1546.3,647.2z"/>
				<path class="st1" d="M1552.8,653.8L1552.8,653.8c5.8-5.7,14.8-6,20.2-0.6l6.6,6.6c5.4,5.4,5.1,14.4-0.7,20.2l0,0"/>
				<rect x="1561.7" y="640.9" class="st0" width="3.8" height="13.2"/>
				<path class="st0" d="M1634.2,647.2l32.6,32.6c4.7,4.8,4.5,12.7-0.6,17.7l-12.4,12.3c-5,5-13,5.3-17.7,0.5l-32.6-32.6
					L1634.2,647.2z"/>
				<path class="st1" d="M1640.8,653.8L1640.8,653.8c5.8-5.7,14.8-6,20.2-0.6l6.6,6.6c5.4,5.4,5.1,14.4-0.6,20.2l0,0"/>
				<rect x="1649.3" y="640.9" class="st0" width="3.8" height="13.2"/>
			</g>
			<g id="CUTTING_BOARD-3">
				<path class="st0" d="M1678.6,434.4h-9.2c-6.9,0.1-12.5-5.5-12.5-12.3c0,0,0,0,0,0v-2.7c0-1.6,0.3-3.2,0.9-4.7
					c0.3-0.7,0.6-1.4,1.1-2c0.6-1.5,0.9-3.1,0.9-4.7v-1.8c-0.1-6.8-5.7-12.3-12.5-12.2h-1.8c-6.9-0.1-12.5,5.5-12.5,12.3
					c0,0,0,0,0,0v1.8c0,1.6,0.3,3.2,0.9,4.7c0.4,0.6,0.8,1.3,1.1,2c0.6,1.5,0.9,3.1,0.9,4.7v2.6c0,6.8-5.6,14.3-12.5,14.3h-9.2
					c-8.7,0-15.7,4.9-15.7,13.4v105.2c0.1,8.6,7.1,15.5,15.7,15.4h64.4c8.6,0.1,15.6-6.8,15.7-15.4V449.8
					C1694.2,441.2,1687.1,434.3,1678.6,434.4C1678.6,434.4,1678.6,434.4,1678.6,434.4z M1646.3,404.3c1.9,0,3.4,1.6,3.4,3.5
					c0,1.9-1.6,3.4-3.5,3.4c-1.9,0-3.4-1.6-3.4-3.5C1642.8,405.8,1644.4,404.3,1646.3,404.3L1646.3,404.3L1646.3,404.3z"/>
				<path class="st0" d="M1673.9,432.8h-9.2c-6.9,0-12.5-5.6-12.5-12.5c0,0,0,0,0,0v-2.7c0-1.6,0.3-3.2,0.9-4.8
					c0.3-0.7,0.6-1.4,1.1-2c0.6-1.5,0.9-3.1,0.9-4.8v-1.8c0-6.9-5.6-12.5-12.5-12.5c0,0,0,0,0,0h-1.8c-6.9,0-12.5,5.6-12.5,12.5
					c0,0,0,0,0,0v1.8c0,1.6,0.3,3.2,0.9,4.8c0.4,0.6,0.7,1.3,1,2c0.6,1.5,0.9,3.1,0.9,4.8v2.7c0,6.9-5.6,12.5-12.5,12.5h-9.2
					c-8.7,0-15.7,7-15.7,15.7c0,0,0,0,0,0v107c0,8.7,7,15.7,15.7,15.7l0,0h64.4c8.7,0,15.7-7,15.7-15.7c0,0,0,0,0,0v-107
					C1689.5,439.8,1682.5,432.8,1673.9,432.8z M1641.7,409.2c-2,0-3.5-1.6-3.5-3.5c0-2,1.6-3.5,3.5-3.5s3.5,1.6,3.5,3.5c0,0,0,0,0,0
					C1645.2,407.6,1643.6,409.2,1641.7,409.2C1641.7,409.2,1641.7,409.2,1641.7,409.2z"/>
			</g>
		</g>
		<g id="LEFT">
			<g id="WINE_GLASSES">
				<path class="st1" d="M483.8,456.2h30.1l0,0v40.8c0,8.3-6.7,15-15,15l0,0c-8.3,0-15-6.7-15-15L483.8,456.2L483.8,456.2z"/>
				<line class="st1" x1="498.9" y1="511.9" x2="498.9" y2="560"/>
				<polygon class="st1" points="514.8,571.2 498.9,560.2 483,571.2 				"/>
				<path class="st1" d="M535.1,456.2h30.1l0,0v40.8c0,8.3-6.7,15-15,15l0,0c-8.3,0-15-6.7-15-15L535.1,456.2L535.1,456.2z"/>
				<line class="st1" x1="550.1" y1="511.9" x2="550.1" y2="560"/>
				<polygon class="st1" points="566,571.2 550.1,560.2 534.2,571.2 				"/>
				<path class="st1" d="M586.3,456.2h30.1l0,0v40.8c0,8.3-6.7,15-15,15l0,0c-8.3,0-15-6.7-15-15L586.3,456.2L586.3,456.2z"/>
				<line class="st1" x1="601.3" y1="511.9" x2="601.3" y2="560"/>
				<polygon class="st1" points="617.3,571.2 601.4,560.2 585.5,571.2 				"/>
			</g>
			<g id="SHELF-2">
				<line class="st1" x1="371" y1="640.9" x2="648" y2="640.9"/>
				<polygon class="st0" points="647.8,597 673.6,597 673.6,611.1 647.8,606.8 				"/>
				<polygon class="st0" points="345.2,597 371,597 371,611.1 345.2,606.8 				"/>
				<rect x="309.4" y="571.2" class="st0" width="400.1" height="25.8"/>
				<rect x="345.2" y="597" class="st0" width="25.8" height="43.8"/>
				<rect x="647.8" y="597" class="st0" width="25.8" height="43.8"/>
			</g>
			<g id="PLANT">
				<path class="st8" d="M348.5,514.1h91l0,0v10.5c0,25.1-20.4,45.5-45.5,45.5l0,0c-25.1,0-45.5-20.4-45.5-45.5L348.5,514.1
					L348.5,514.1L348.5,514.1z"/>
				<path class="st1" d="M389.3,514.1c0,0,3.7-64.9,25.7-95.6"/>
				<path class="st4" d="M397.2,462.3c0,0,3.7-28.2,31-29.9C428.2,432.4,432.1,462.9,397.2,462.3z"/>
				<path class="st4" d="M401.9,445c0,0,15.5-30.4-7.9-42.3C394,402.7,380.1,431.2,401.9,445z"/>
				<path class="st4" d="M342.2,468.6c0,0-1.4-34.1-27.6-33C314.6,435.7,316.5,467.3,342.2,468.6z"/>
				<path class="st4" d="M391.8,491.1c0,0,10.8-34.5-13.3-46.1C378.5,445,366.2,479.3,391.8,491.1z"/>
				<path class="st4" d="M390.7,504.6c0,0-3.5-31.9,24.4-36.6C415.1,468.1,421.3,500,390.7,504.6z"/>
				<path class="st4" d="M414.2,419.5c0,0-3.5-31.9,24.4-36.5C438.7,383,444.9,414.9,414.2,419.5z"/>
				<line class="st1" x1="341.5" y1="468.1" x2="375.5" y2="514.1"/>
				<path class="st4" d="M357.8,490c0,0-15.9-20.5-7-42.7C350.8,447.4,370.3,462.3,357.8,490z"/>
				<path class="st4" d="M360.3,493.5c0,0-18.8,12.7-36.6-10.7C323.8,482.8,345.1,473,360.3,493.5z"/>
				<path class="st4" d="M375.5,514c0,0-14.9,14.1-34.2-4.2C341.3,509.8,358.9,497.8,375.5,514z"/>
				<path class="st4" d="M375.5,514.1c0,0-13.9-15.8-4-32C371.5,482.2,387.4,498,375.5,514.1z"/>
				<path class="st4" d="M415,514.1c0,0,4-23.4,25.1-26.2C440.1,487.9,443.7,514.1,415,514.1z"/>
			</g>
			<g id="KITCHEN_SET">
				<rect x="499.3" y="683.8" class="st0" width="3.3" height="93.3"/>
				<path class="st0" d="M513.1,821.9h-24.1c-3.4-0.1-6.1-2.9-6-6.3c0-0.3,0-0.6,0.1-0.9l1.7-33.4c0.4-3,2.9-5.2,5.9-5.3h20.6
					c3,0,5.5,2.3,5.9,5.3l1.8,33.4c0.5,3.3-1.7,6.5-5.1,7.1C513.6,821.9,513.4,821.9,513.1,821.9z"/>
				<line class="st1" x1="501" y1="785.5" x2="501" y2="813.9"/>
				<line class="st1" x1="508.4" y1="787.9" x2="508.4" y2="811.5"/>
				<line class="st1" x1="493.6" y1="787.9" x2="493.6" y2="811.5"/>
				<path class="st0" d="M505.4,643.7l-1.5,38.6c-0.1,1.5-1.4,2.7-2.9,2.7l0,0c-1.5,0-2.8-1.2-2.9-2.8l-1.5-34.7
					c0-4.8-3.9-8.7-8.7-8.7l0,0l0,0c0.1-2.2,1.8-3.9,4-3.9h4.7C501.5,635,505.3,638.9,505.4,643.7z"/>
				<rect x="393.9" y="683.8" class="st0" width="3.3" height="97.4"/>
				<path class="st0" d="M357.3,810c8.2,11.7,23.3,14.3,34.6,5.9l0,0c11.3-8.4,12.2-24.8,4.1-36.5L357.3,810z"/>
				<path class="st0" d="M399.8,643.7l-1.5,38.6c-0.1,1.5-1.3,2.8-2.9,2.8l0,0c-1.5,0-2.8-1.2-2.9-2.8l-1.5-34.7
					c0-4.8-3.9-8.7-8.7-8.7l0,0c0-2.2,1.8-3.9,3.9-3.9l0,0h4.7C395.9,635,399.8,638.9,399.8,643.7z"/>
				<rect x="556.1" y="683.8" class="st0" width="3.3" height="93.3"/>
				<path class="st0" d="M569.9,788.9l-2,33.5h-0.4l-3-31.2c-0.2-1.7-0.9-3.3-2.2-4.5c-1.2-1.2-2.8-1.8-4.5-1.8
					c-3.5,0-6.4,2.7-6.7,6.2l-3.2,31.2h-0.1l-2-33.5c-0.1-6.8,5.3-12.3,12-12.5c3.2,0,6.3,1.3,8.5,3.6
					C568.6,782.4,569.9,785.6,569.9,788.9z"/>
				<path class="st0" d="M562.1,643.7l-1.5,38.6c-0.1,1.5-1.3,2.8-2.9,2.8l0,0c-1.5,0-2.8-1.2-2.9-2.8l-1.5-34.7
					c0-4.8-3.9-8.7-8.7-8.7l0,0c0-2.2,1.8-3.9,3.9-3.9h4.7C558.2,635,562.1,638.9,562.1,643.7z"/>
				<rect x="445.3" y="683.8" class="st0" width="3.3" height="73.6"/>
				<path class="st0" d="M462.6,797.3c1,15.5-6.1,25.1-15.7,25.1c-8.5,0-16.9-11.1-15.7-25.1c1.2-13.8,9.2-40.9,15.7-40.9
					S461.7,783.4,462.6,797.3z"/>
				<path class="st0" d="M456.7,798.5c0.6,14.7-5.2,23.9-9.8,23.9c-3.7,0-10.5-10.5-9.8-23.9c0.8-13.2,5.7-41.2,9.8-41.2
					S456.2,785.3,456.7,798.5z"/>
				<path class="st0" d="M450.6,643.7l-1.5,38.6c-0.1,1.5-1.3,2.8-2.9,2.8l0,0c-1.5,0-2.8-1.2-2.9-2.8l-1.5-34.7
					c0-4.8-3.9-8.7-8.7-8.7c0,0,0,0,0,0l0,0c0-2.2,1.8-3.9,3.9-3.9h4.7C446.7,635,450.6,638.9,450.6,643.7z"/>
				<line class="st1" x1="446.9" y1="757.3" x2="446.9" y2="822.4"/>
			</g>
			<g id="OVEN_MITT">
				<path class="st4" d="M677.2,673.7c-1.2-1.4-2.9-2.4-4.7-2.8l-29.7-6.3l-6.4-7l-40.7,37.3l36.5,39.8c12.4,13.5,31.5,16.8,42.8,7
					c6-5.2,8.8-12.8,8.3-21c-0.6-8.6-4.2-16.7-10.1-23l-5.9-6.4c-1.5-1.7-1.2-4.1,0.7-4.7l8.5-2.5c0.6-0.2,1.1-0.5,1.5-0.9
					C680.4,681.2,680.2,676.9,677.2,673.7z"/>
				<path class="st4" d="M673.5,675.7c-1.2-1.4-2.9-2.4-4.7-2.8l-29.7-6.3l-6.4-7L592,696.8l36.5,39.8c12.4,13.5,31.5,16.8,42.9,7
					c6-5.2,8.8-12.8,8.3-21c-0.6-8.6-4.2-16.7-10.1-23l-5.8-6.4c-1.5-1.7-1.2-4.1,0.7-4.7l8.5-2.5c0.6-0.2,1.1-0.5,1.5-0.9
					C676.7,683.1,676.5,678.9,673.5,675.7z"/>
				<path class="st4" d="M624.7,643.4c0.1,2.3,4.7,9.5,4.7,9.5s3.9-7.5,3.8-9.9c-0.1-2.3-2.2-4.1-4.5-4
					C626.4,639.2,624.6,641.1,624.7,643.4z"/>
				<path class="st4" d="M628.5,654l-42.3,38.8c-0.7,0.7-0.8,1.8-0.1,2.6c0,0,0,0,0,0l3,3.3c0.7,0.7,1.8,0.8,2.6,0.1c0,0,0,0,0,0
					l42.4-38.8c0.7-0.7,0.8-1.8,0.1-2.6l-3-3.3C630.4,653.4,629.3,653.3,628.5,654C628.5,654,628.5,654,628.5,654z"/>
			</g>
		</g>
	</g>
	<g id="PICTURE">
		<rect x="689.9" y="334.1" class="st3" width="146.4" height="146.4"/>
		<rect x="683.4" y="327.6" class="st0" width="146.4" height="146.4"/>
		<rect x="706.8" y="350.9" class="st0" width="99.7" height="99.7"/>
		<path class="st0" d="M757.2,378.5c0,0,2.7-9.1-3.6-11.8"/>
		<path class="st4" d="M770.7,392.8c0.6,3.4,1.9,6.7,3.8,9.6c6.6,9.8,3.9,23.1-5.9,29.7c-9.8,6.6-23.1,3.9-29.7-5.9
			c-4.7-7.1-4.8-16.3-0.2-23.5c2-3,3.3-6.3,4-9.8l0.1-0.8c0.2-0.9,0.2-1.8,0.3-2.7c0.6-6.3,5.9-11.2,12.3-11.2h2.6
			c6.4,0,11.7,4.9,12.3,11.2c0.1,0.9,0.2,1.8,0.3,2.7L770.7,392.8z"/>
		<path class="st0" d="M758.3,378c0,0-0.7-8.3,11.3-12.1C769.6,365.9,771.3,380.9,758.3,378z"/>
	</g>
</g>
</svg>
