<?xml version="1.0" encoding="utf-8"?>
<!-- Generator: Adobe Illustrator 24.0.2, SVG Export Plug-In . SVG Version: 6.00 Build 0)  -->
<svg version="1.1" id="Layer_1" xmlns="http://www.w3.org/2000/svg" xmlns:xlink="http://www.w3.org/1999/xlink" x="0px" y="0px"
	 viewBox="0 0 821.4 929.2" style="enable-background:new 0 0 821.4 929.2;" xml:space="preserve">
<style type="text/css">
	.st0{fill:#C48270;stroke:#0F0F0F;stroke-width:4;stroke-linecap:round;stroke-linejoin:round;}
	.st1{fill:#F7F3EF;stroke:#070707;stroke-width:4;stroke-linecap:round;stroke-linejoin:round;}
	.st2{fill:#A82F2F;stroke:#070707;stroke-width:4;stroke-linecap:round;stroke-linejoin:round;}
	.st3{fill:#1C0E0C;}
	.st4{fill:#A82F2F;stroke:#000000;stroke-width:4;stroke-linecap:round;stroke-linejoin:round;}
	.st5{fill:#FF7B7B;stroke:#000000;stroke-width:4;stroke-linecap:round;stroke-linejoin:round;}
	.st6{fill:none;stroke:#070707;stroke-width:4;stroke-linecap:round;stroke-linejoin:round;}
	.st7{fill:#FF7B7B;}
	.st8{fill:#C48270;}
</style>
<path id="HAND" class="st0" d="M535.5,190.9c4.5,2.7,5,13.5,5.2,14.9c0.1,1.4,0,8.3,0,8.3s-6,1-6.7-4.6c-0.8-6.5-3.4-7.4-7.8-8.3
	c-1.8-0.4-4-0.1-4.2,2.5s6.8,4.3,8.2,5.9c2.2,2.4,1.1,5.7,1.1,5.7s-10.7-3.2-12.7-3.8c-1.6-0.5-8.8-5.8-14.3-11.7
	c-16.4,10.6-62.5,37.8-101.6,35.7c-27.2-1.5-46.7-8.6-58.7-14.5c12.2-35.2,24.8-45,26.6-46.3c12.4,5.4,26.3,10.6,40.2,13.5
	c19.8,4.2,58.6-9.5,91-5.8C504.3,182.9,523,183.3,535.5,190.9z"/>
<path class="st1" d="M535.6,231.1c0,0,7.9-14-5.3-21.4"/>
<ellipse transform="matrix(0.7996 -0.6005 0.6005 0.7996 -34.6871 370.254)" class="st2" cx="537.5" cy="237.1" rx="8.2" ry="8.2"/>
<path id="SHADOW" class="st3" d="M373.7,176c0,0-13.9,15.8-17.4,50.2c-4.2-1.5-8.3-3.3-12.3-5.3c12.2-35.2,24.8-45,26.6-46.2
	L373.7,176z"/>
<path class="st1" d="M147.9,662.3l-41.6,248.7c-0.2,1.6,1.6,3,3.8,3.1c0.2,0,0.3,0,0.5,0l0,0c2,0,3.8-0.9,4.3-2.3l67.6-249.5H147.9z
	"/>
<path class="st1" d="M307.3,662.3l41.6,243.9c0.2,1.6-1.6,3-3.9,3.1c-0.2,0-0.3,0-0.5,0l0,0c-2,0-3.8-0.9-4.3-2.3l-67.6-244.7
	L307.3,662.3z"/>
<path class="st1" d="M120.8,640.2h210.3c3.7,0,6.6,3,6.6,6.6v8.9c0,3.7-3,6.6-6.6,6.6H120.8c-3.7,0-6.6-3-6.6-6.6v-8.9
	C114.2,643.1,117.1,640.2,120.8,640.2z"/>
<path id="SHOES" class="st4" d="M119.4,617.7c-4.3-2.1-8.8-3.8-13.4-5.3c-13.5-3.7-18.3,3.3-18.3,3.3l13.7,80
	c0,0,15.1-0.8,18.2-22.6c3.2-22.8,8.3-30.7,8.3-30.7L119.4,617.7z"/>
<path id="LEG" class="st3" d="M357.9,544.1c-5.8,69.1-24.1,96.7-45.8,96.7c-0.3,0-0.5,0-0.8-0.1c-139.3-1.7-203.7,3.7-205-6.2
	c-1.1-7.9,43.1-45.1,93.3-57c46.4-11,50.2,2.9,76.8-7.2c-1.8-7.3-3.3-15-4.6-23.1c5.9,0.3,11.4,0.6,16.7,0.7
	C324.8,548.9,346.6,546.2,357.9,544.1z"/>
<path id="SHOES-2" class="st4" d="M47.7,618.1c-4.7-0.9-9.4-1.5-14.2-1.8c-14-0.2-16.9,7.8-16.9,7.8l33.2,74c0,0,14.4-4.5,11.9-26.4
	c-2.6-22.9,0.4-31.8,0.4-31.8L47.7,618.1z"/>
<path id="LEG-2" class="st0" d="M288.4,547.8c-2.7,66.3-12.5,92.9-46.8,92.9c-0.3,0-0.6,0-0.8-0.1c-94.1-1.1-153.9,1-183.3-0.6
	c-14.1-0.8-10.8-18.8-9.8-22c0,0,31.2-28.8,81.4-40.7c46.4-11,54.6,2.6,77.5-4.3c-2.7-10.8-4.9-21.8-6.4-32.9
	C236.2,544.9,265.3,547.1,288.4,547.8z"/>
<path id="DRESS" class="st1" d="M223.6,189.3c-10.4,7.9-27.8,21.3-34.9,43.5c18.4,3.2,44.7,14.1,55,20.9c0,0-4.6,13.6-9.1,21.7
	c-52.8,94.6-52.8,262.2-52.8,262.2c142.6,21.1,186.1,4,186.1,4c2.1-86.6-11.3-247.4-21.4-329.8c8.6,2.4,18.6,22.5,27.5,23.1
	c-2.7-43.8,7.6-57.6,7.6-57.6c-16.7-5.3-44.4-24.2-57.5-22.9c-8.2,0.4-16.9,1.4-16.9,1.4C302.6,156.4,243.3,174.3,223.6,189.3z"/>
<path id="APRON" class="st5" d="M322,152.7c50.7,62.1,46.3,312.2,46.3,312.2l-66.9,0.2c-25.6,0.1-47.1-19.3-49.5-44.8
	c-6.5-70.7-42.5-76.1-42.5-76.1l5.5-15.3c0,0,62.1-13,58.8-74.3c-3-54-37.4-76-37.4-76s10-5.4,17.9-6.7s30.4,40.5,36.2,44.3
	c1.5,1,21.6-4.1,39.4-10.9c0,0-18.5-46.6-22-49.8S322,152.7,322,152.7z"/>
<path id="HAND-2" class="st0" d="M304.6,385.2c0,0-7.1,4.5-13.3,5.6c-8.1,1.4-22.3-3.5-26.4-8.5c-45.1-6.1-83.1-64.8-83.1-75.4
	c0-13,2.8-45.4,16.3-72c16.7,4.4,36.9,13.1,45.8,18.8c-9.3,23.5-11.6,47.4-12.5,49.5c-1.4,3.3,29.7,59,33.7,64.6
	c11.9-2.2,15,1,16.4,3.9s2,11.4,17.3,9.2C302.9,380.3,304.6,385.2,304.6,385.2z"/>
<path id="SHADOW-2" class="st3" d="M243.7,253.7c-1.5,3.7-3,7.3-4.6,10.9c-9.7-8.1-26.3-14.6-47.9-15.3c2.2-4.9,4.5-9.7,6.9-14.4
	C215.2,239.4,235.1,248,243.7,253.7z"/>
<path class="st1" d="M303.3,372.8c-0.2,0.3-0.5,0.5-0.9,0.5l0,0c-0.6,0-1-0.4-1-1c0-0.2,0-0.3,0.1-0.4c-0.6-3.9-1.4-7.8-2.6-11.6
	c-2,7.1-9.7,10.1-9.8,10.1c-0.1,0-0.2,0.1-0.4,0.1c-0.6,0.1-1.1-0.3-1.2-0.8s0.3-1.1,0.8-1.2c0.4-0.2,8.9-3.5,8.9-11.5
	c0-0.9-0.1-1.7-0.3-2.6v-0.1c0-0.1-0.1-0.2-0.1-0.3c-0.1-0.6-0.3-1.2-0.5-1.8c-0.2-0.5,0.1-1.1,0.6-1.3s1.1,0.1,1.3,0.6
	c0.3,0.8,0.5,1.6,0.7,2.4c1.3,3.8,2.5,7.6,3.4,11.5C303.9,371.9,303.5,372.4,303.3,372.8z"/>
<ellipse class="st2" cx="301.9" cy="375.8" rx="5.8" ry="5.9"/>
<ellipse class="st2" cx="286.6" cy="372.9" rx="7.2" ry="7.3"/>
<line class="st6" x1="242.8" y1="253" x2="255" y2="231.3"/>
<g id="NECK">
	<path class="st0" d="M260.1,136.1c0,0,7.6,21.3-8,38.1c0,0,33.3,4.6,57.8-15.3c0,0-9.7-13.4-7.6-37.5L260.1,136.1z"/>
	<path class="st3" d="M309.9,158.8c-2,1.5-4.1,3.1-5,3.6c-16.4,9.6-37.6-6.1-43-15.3c-0.1-3.8-0.7-7.5-1.9-11.1l42.1-14.7
		C300.4,142.8,308.1,156.3,309.9,158.8z"/>
</g>
<path id="HAIR" class="st3" d="M247.8,129.1c-21.5-15-27.4-32.4-24.7-47.1c-0.8,0.1-1.7,0.1-2.5,0.1c-2.5-0.1-7.5,1.2-9.2-0.6
	s-1.9-4.8-0.2-6.5c-4.4,0.3-8.9,0.3-13.3,0c-5.1-0.4-9.6-3.2-10.8-8c-0.9-3.5,1.6-7.2,4.9-9c2.7-1.3,5.6-2,8.6-2.1
	c-4.1-2.3-9-2.4-13.1-0.2c-0.5,0.3-1.1,0.1-1.4-0.4c-0.3-0.5-0.1-1.1,0.4-1.4c2.8-1.5,6-2.1,9.1-1.8c-1.8-2-2.8-4.5-3-7.1
	c-0.3-5.6,1.8-11.2,5.7-15.2c3.7-3.6,9.4-5.4,14.6-5.5c4.1-0.1,8.1,1.7,10.7,4.9c-0.7-4,1.4-10.1,4-12c6-4.2,14.4-0.5,15.8,3.4
	c0.5,1.3,0.6,2.8,1.4,3.9c1.4-1.9,3.1-4,5.2-4.8c7.8-3.2,14.2,1.6,14.9,5.5c0.6,3.3-1.2,6.7-4.1,8.8c2.1-0.5,4.2,0.2,5.6,1.8
	c1.7,2.1,1.8,5,1.3,7.6c-0.3,1.5-0.8,2.9-1.4,4.2c1.9-0.6,4.9-2.2,5.4-7c0.1-0.6,0.6-1,1.1-0.9c0.6,0.1,1,0.6,0.9,1.1
	c-0.2,3.8-2.6,7-6.1,8.4c18.1,0,31.2,9,37.4,29.4C312.8,105.1,247.8,129.1,247.8,129.1z"/>
<path id="SCRUNCHY" class="st7" d="M222.4,82.2c-0.2,0-0.3,0-0.5-0.1c-0.8-0.2-1.2-1.1-0.9-1.8c2.1-5.7,5.1-11.1,8.8-15.8
	c8.3-10.5,19.4-16.5,32-17.3c0.8,0,1.5,0.6,1.5,1.4s-0.6,1.5-1.4,1.5l0,0c-11.9,0.7-21.9,6.1-29.8,16.1c-3.6,4.5-6.4,9.6-8.4,15
	C223.6,81.8,223.1,82.2,222.4,82.2z"/>
<path id="HEAD-2" class="st0" d="M264.2,89.8c0,15.9-5.7,25.1-16.7,25.5c0,0-11-3-12.1,3.9c-1,6,8.7,9,11.7,9.7
	c4.9,4.3,34.2,28.8,57.4,15.7c25.8-14.5,7.1-89.1-28.2-77C274.2,68.3,264.2,71.4,264.2,89.8z"/>
<path class="st6" d="M242.8,254.1c0,0-9.6,35.3-12.3,46.6"/>
<circle class="st8" cx="244.5" cy="119.7" r="12.3"/>
<path class="st6" d="M239.8,113.8c0,0,5.8-2.6,10.9,4.2"/>
<line class="st6" x1="245.2" y1="114.8" x2="240.9" y2="119.7"/>
<ellipse transform="matrix(0.965 -0.2622 0.2622 0.965 -16.8387 77.686)" class="st3" cx="282.7" cy="101.9" rx="3.7" ry="4.4"/>
<ellipse transform="matrix(0.965 -0.2622 0.2622 0.965 -14.1299 83.6467)" class="st3" cx="306.4" cy="94.8" rx="2.9" ry="4.4"/>
<path class="st6" d="M297.5,99.1c0,0,9.5,2.8,8.9,5.8c-0.6,2.1-1.7,4.1-3.3,5.7"/>
<path class="st6" d="M281,117.2c0,0,7,8,21.2,4.2"/>
<g>
	<ellipse class="st1" cx="583.9" cy="493.8" rx="205.5" ry="26.9"/>
	<path class="st1" d="M494.3,299.8h186.1c11,0,20,9,20,20v64.6l0,0H474.3l0,0v-64.6C474.3,308.7,483.3,299.8,494.3,299.8z"/>
	<path class="st1" d="M662,265.6v34.1H516.4v-34.1c0-8.8,7.2-16,16-16H646c8.3,0,15.2,6.3,15.9,14.6C662,264.7,662,265.2,662,265.6z
		"/>
	<path class="st5" d="M690.6,302.1v21.8c0,7.6-6.1,13.7-13.7,13.7c-7.6,0-13.7-6.1-13.7-13.7v-2.6c-0.5-7.7-7.2-13.5-15-13
		c-7,0.5-12.5,6-13,13V352c0.2,8.9-6.8,16.2-15.7,16.5s-16.2-6.8-16.5-15.7c0-0.3,0-0.5,0-0.8v-19.6c0-5.6-4.5-10.1-10.1-10.1h-0.3
		c-5.4,0-9.8,4.4-9.8,9.8v10.6c0,6.9-5.6,12.4-12.4,12.4s-12.4-5.6-12.4-12.4v-25.6c0-5.6-4.5-9.3-10.1-9.3h-0.3
		c-5.4,0-9.8,3.6-9.8,9v19.5c0,5.6-4.6,10.2-10.2,10.2l0,0h-0.3c-5.5,0-9.9-4.4-9.9-9.9v0v-4.1c0-8-6.5-14.5-14.5-14.5
		s-14.5,6.5-14.5,14.5v11.5c0,7.2-5.8,13.1-13.1,13.1c0,0,0,0,0,0v-38.6c0-9.6,7.8-17.4,17.4-17.4c0,0,0,0,0,0h191.3
		C686.4,300.9,688.5,301.3,690.6,302.1z"/>
	<path class="st1" d="M538.7,370.2c0,0,15.5-2.6,13-17.1"/>
	
		<ellipse transform="matrix(4.082929e-02 -0.9992 0.9992 4.082929e-02 138.5471 894.7569)" class="st2" cx="535.3" cy="375.2" rx="8" ry="8"/>
	<path class="st1" d="M558.1,371.9c0,0-7.1-4.1-6.9-11.1"/>
	<circle class="st2" cx="559.3" cy="376.8" r="6.6"/>
	<path class="st1" d="M699.3,356.6c-1.9,0-3.3-1.5-3.3-3.4v-3.9c-0.1-1.9,1.3-3.4,3.2-3.5c1.9-0.1,3.4,1.3,3.5,3.2
		c0,0.1,0,0.2,0,0.4v3.9C702.7,355.1,701.2,356.6,699.3,356.6C699.3,356.6,699.3,356.6,699.3,356.6z"/>
	<path class="st1" d="M654.8,329.6c-2.2,0-3.9-1.8-4-4v-3.9c-0.1-2.2,1.6-4,3.7-4.1s4,1.6,4.1,3.7c0,0.1,0,0.3,0,0.4v3.9
		C658.7,327.8,656.9,329.6,654.8,329.6C654.8,329.6,654.8,329.6,654.8,329.6z"/>
	<path class="st1" d="M484,372.3c-2.2,0-4-1.8-4-4v-3.9c0-2.2,1.8-4,4-4s4,1.8,4,4v3.9C488,370.4,486.2,372.2,484,372.3z"/>
	<path class="st5" d="M516.4,264.2c0.3,1.9,1.2,3.6,2.7,4.9c1.8,1.6,4.2,2.4,6.6,2.4c5.1,0,9.3-3.7,9.3-8.2v-1.5
		c0-2.3,1-4.4,2.8-5.9c1.9-1.6,4.2-2.5,6.7-2.4c5.2,0,9.5,3.7,9.5,8.3v18.3c0,2.6,1.2,5.1,3.2,6.8c2.1,1.8,4.9,2.8,7.7,2.8
		c6,0,10.9-4.3,10.9-9.6v-11.7c0-3.3,3.1-6,6.8-6h0.2c3.7,0,6.6,2.6,6.6,5.8v6.3c0,2,0.9,3.9,2.5,5.2c1.7,1.4,3.8,2.2,6,2.2
		c4.7,0,8.4-3.3,8.4-7.4v-15.2c0-3.3,3-5.5,6.8-5.5h0.2c3.7,0,6.6,2.1,6.6,5.4v11.6c0,3.4,3.1,6.1,6.9,6.1h0.2
		c3.7,0,6.7-2.6,6.7-5.9v-2.5c0-2.4,1.1-4.6,2.9-6.1c1.9-1.7,4.4-2.6,6.9-2.5c5.4,0,9.8,3.9,9.8,8.6v6.9c0,2.1,1,4.1,2.6,5.5
		c1.7,1.5,4,2.3,6.3,2.3v-17.4c0-8.8-7.2-15.9-16-15.9H532.2C524,249.7,517.1,256,516.4,264.2z"/>
	<path class="st1" d="M629,287.3c0,0,13.5-2.2,11.3-15"/>
	<circle class="st2" cx="625.9" cy="291.8" r="7"/>
	<path class="st1" d="M645.8,288.9c0,0-6.2-3.6-6-9.7"/>
	<path class="st2" d="M641.1,292.5c-0.4,3.1,1.9,6,5.1,6.3c3.1,0.4,6-1.9,6.3-5.1c0.4-3.1-1.9-6-5-6.3
		C644.3,287.1,641.5,289.4,641.1,292.5C641.1,292.5,641.1,292.5,641.1,292.5z"/>
	<g id="STAND">
		<path class="st1" d="M550.2,470.9h63.1c6.5,0,11.8,5.3,11.8,11.8v0v2.6l0,0h-86.6l0,0v-2.6C538.4,476.2,543.7,470.9,550.2,470.9z"
			/>
		<path class="st1" d="M548.7,470.9L548.7,470.9c6.9,0,12.6-5.6,12.6-12.6v-41.3c0-6.9-5.6-12.6-12.6-12.6h66.1
			c-6.9,0-12.6,5.6-12.6,12.6v41.3c0,6.9,5.6,12.6,12.6,12.6H548.7z"/>
		<path class="st1" d="M602.2,414.7c-0.1-4.4,5.6-10.2,12.6-10.2h-66.1c6.9,0,12.6,5.6,12.6,12.6v9.7L602.2,414.7z"/>
		<path class="st1" d="M548.7,470.9L548.7,470.9c6.9,0,12.6-5.6,12.6-12.6v-41.3c0-6.9-5.6-12.6-12.6-12.6h66.1
			c-6.9,0-12.6,5.6-12.6,12.6v41.3c0,6.9,5.6,12.6,12.6,12.6H548.7z"/>
		<path class="st1" d="M699.4,404.5H464c-9.3-0.1-17.6-6-20.6-14.9l-1.8-5.3h280.3l-1.8,5.3C717,398.5,708.8,404.4,699.4,404.5z"/>
	</g>
</g>
</svg>
