<?xml version="1.0" encoding="utf-8"?>
<!-- Generator: Adobe Illustrator 22.0.1, SVG Export Plug-In . SVG Version: 6.00 Build 0)  -->
<svg version="1.1" id="Layer_1" xmlns="http://www.w3.org/2000/svg" xmlns:xlink="http://www.w3.org/1999/xlink" x="0px" y="0px"
	 viewBox="0 0 2000 1561.3" style="enable-background:new 0 0 2000 1561.3;" xml:space="preserve">
<style type="text/css">
	.st0{fill:none;stroke:#FFFFFF;stroke-width:4;stroke-linecap:round;stroke-linejoin:round;}
	.st1{fill:#F7F3EF;stroke:#070707;stroke-width:4;stroke-linecap:round;stroke-linejoin:round;}
	
		.st2{opacity:0.7;fill:#F7F3EF;stroke:#070707;stroke-width:4;stroke-linecap:round;stroke-linejoin:round;enable-background:new    ;}
	.st3{fill:#A82F2F;stroke:#000000;stroke-width:4;stroke-linecap:round;stroke-linejoin:round;}
	.st4{fill:#C48270;stroke:#0F0F0F;stroke-width:4;stroke-linecap:round;stroke-linejoin:round;}
	.st5{fill:none;stroke:#070707;stroke-width:4;stroke-linecap:round;stroke-linejoin:round;}
	.st6{fill:#EA631F;stroke:#070707;stroke-width:4;stroke-linecap:round;stroke-linejoin:round;}
	.st7{fill:#1C0E0C;}
	.st8{fill:#FFABA9;}
	.st9{fill:#C48270;}
	.st10{fill:#FFFFFF;stroke:#070707;stroke-width:4;stroke-linecap:round;stroke-linejoin:round;}
	.st11{fill:#F7F3EF;}
	.st12{clip-path:url(#SVGID_2_);}
	.st13{fill:#FFABA9;stroke:#000000;stroke-width:4;stroke-linecap:round;stroke-linejoin:round;}
	
		.st14{opacity:0.5;fill:#F7F3EF;stroke:#070707;stroke-width:4;stroke-linecap:round;stroke-linejoin:round;enable-background:new    ;}
	.st15{fill:#FF7B7B;stroke:#000000;stroke-width:4;stroke-linecap:round;stroke-linejoin:round;}
</style>
<g id="Layer_2_1_">
</g>
<g id="Layer_1_1_">
	<g id="Layer_2_2_">
	</g>
	<line class="st0" x1="283.9" y1="832.1" x2="1753.7" y2="832.1"/>
	<g id="WINDOW">
		<line class="st0" x1="1255.4" y1="208.5" x2="1753.7" y2="208.5"/>
		<rect x="1307.7" y="237.8" class="st1" width="373.9" height="521.3"/>
		<rect x="1323.1" y="252.3" class="st1" width="341.4" height="490.7"/>
		<path class="st2" d="M1500,208.5h219.9v593.8h-96c0,0-4.1-124.8,36.5-169.4C1660.3,633,1496.2,415.1,1500,208.5z"/>
		<path class="st1" d="M1500,208.5h219.9v593.8h-96c0,0-4.1-124.8,36.5-169.4C1660.3,633,1496.2,415.1,1500,208.5z"/>
		<path class="st1" d="M1720.7,625.2h3.7c2.2,0,3.9,1.8,3.9,3.9l0,0l0,0c0,2.2-1.8,3.9-3.9,3.9l0,0h-72.7"/>
		<path class="st1" d="M1684.5,609L1684.5,609c6.6,0,12,5.4,12.1,12l0,0c0,6.7-5.4,12-12.1,12l0,0h-12.1l0,0v-12
			C1672.5,614.4,1677.9,609,1684.5,609z"/>
		<path class="st1" d="M1664.4,617.1L1664.4,617.1c4.4,0,8,3.6,8,8v8h-8c-4.4,0-8-3.6-8-8l0,0C1656.4,620.7,1660,617.1,1664.4,617.1
			z"/>
		<path class="st1" d="M1672.4,633.1V659c0,3.3,2.7,6,6,6l0,0c3.3,0,6-2.7,6-6"/>
		<path class="st1" d="M1668.8,633.1v12.5c0,3.1-2.5,5.6-5.6,5.6l0,0h-0.6c-3.1,0-5.6-2.5-5.7-5.6l0,0l0,0"/>
	</g>
	<g id="GIRL">
		<path id="DRESS-2" class="st1" d="M575.1,740.6c-10.3,7.9-27.8,21.3-34.9,43.5c18.4,3.2,44.7,14.1,55,20.9c0,0-4.6,13.6-9.1,21.7
			c-52.8,94.5-52.8,262.2-52.8,262.2c142.5,21.1,186.1,4,186.1,4c2.1-86.7-11.3-247.4-21.4-329.8c8.6,2.4,17.5,4,26.4,4.6
			c-2.7-43.8,7.6-57.6,7.6-57.6c-16.7-5.3-43.2-5.6-56.4-4.3c-8.2,0.4-16.9,1.4-16.9,1.4C654.1,707.8,594.8,725.6,575.1,740.6z"/>
		<path id="APRON" class="st3" d="M673.4,704c50.7,62.1,46.3,312.2,46.3,312.2l-66.9,0.2c-25.6,0.1-47.1-19.3-49.5-44.8
			c-6.5-70.7-42.5-76.1-42.5-76.1l5.5-15.3c0,0,62.1-13,58.8-74.3c-3-54-37.4-76-37.4-76s10-5.4,17.8-6.7s30.4,40.5,36.2,44.3
			c1.5,1,21.6-4.1,39.4-10.9c0,0-18.5-46.6-22-49.8S673.4,704,673.4,704z"/>
		<g id="HANDS">
			<g id="RIGHT_HAND">
				<path id="HAND" class="st4" d="M891.1,664.5c5.2,0.9,9.7,10.7,10.3,11.9s3,7.7,3,7.7s-5.3,3.1-7.9-1.7
					c-3.2-5.8-5.9-5.6-10.3-4.9c-1.8,0.3-3.8,1.4-3,3.8s7.9,1.5,9.8,2.5c2.9,1.4,3.1,4.9,3.1,4.9l-13.2,1.2
					c-1.6,0.2-10.3-2.1-17.6-5.6C854,700.2,821.2,742.5,784,755c-25.8,8.6-46.6,9.3-59.9,8.2c-1.6-37.2,6.5-51,7.7-52.8
					c13.5,0.5,28.4,0.1,42.3-2.2c20-3.4,51-30.5,82.5-39C859.2,668.6,876.7,662.1,891.1,664.5z"/>
				<g id="CHERRY">
					<path class="st5" d="M887.2,703.9c0,0,14.7-6.4,8.6-20.3"/>
					<circle class="st6" cx="885.1" cy="709.8" r="8.2"/>
				</g>
				<path id="SHADOW" class="st7" d="M735.2,710.4c0,0-7.1,19.8,2.3,53.1c-4.5,0.1-9,0-13.4-0.4c-1.6-37.2,6.5-51,7.7-52.8
					L735.2,710.4z"/>
			</g>
			<g id="LEFT_HAND">
				<path id="HAND-2" class="st4" d="M656.1,936.5c0,0-7.1,4.5-13.3,5.6c-8.1,1.4-22.3-3.5-26.4-8.5c-45.1-6.1-83.1-64.7-83.1-75.4
					c0-13,2.8-45.4,16.3-72c16.7,4.4,36.8,13.1,45.8,18.8c-9.3,23.5-11.6,47.4-12.5,49.5c-1.4,3.3,29.7,59,33.7,64.6
					c11.9-2.2,15,1,16.4,3.9s2,11.4,17.3,9.2C654.4,931.7,656.1,936.5,656.1,936.5z"/>
				<path id="SHADOW-2" class="st7" d="M595.1,805c-1.5,3.7-3,7.3-4.6,10.9c-9.7-8.1-26.3-14.6-47.9-15.3c2.2-4.8,4.5-9.7,6.9-14.4
					C566.6,790.8,586.5,799.3,595.1,805z"/>
				<g id="CHERRY-2">
					<path class="st1" d="M654.7,924.1c-0.2,0.3-0.5,0.5-0.9,0.5l0,0c-0.6,0-1-0.4-1-1c0,0,0,0,0-0.1c0-0.2,0-0.3,0.1-0.4
						c-0.6-3.9-1.4-7.8-2.6-11.6c-2,7.1-9.7,10.1-9.8,10.1s-0.2,0.1-0.4,0.1c-0.6,0.1-1.1-0.3-1.2-0.8s0.3-1.1,0.8-1.2
						c0.4-0.2,8.9-3.5,8.9-11.5c0-0.9-0.1-1.7-0.3-2.6v-0.1c0-0.1-0.1-0.2-0.1-0.3c-0.1-0.6-0.3-1.2-0.5-1.8
						c-0.2-0.5,0.1-1.1,0.6-1.3s1.1,0.1,1.3,0.6c0.3,0.8,0.5,1.6,0.7,2.4c1.3,3.8,2.5,7.6,3.4,11.5
						C655.3,923.2,655,923.7,654.7,924.1z"/>
					<ellipse class="st6" cx="653.3" cy="927.1" rx="5.8" ry="5.9"/>
					<ellipse class="st6" cx="638.1" cy="924.3" rx="7.2" ry="7.3"/>
				</g>
				<line class="st5" x1="594.3" y1="804.3" x2="606.5" y2="782.6"/>
			</g>
		</g>
		<g id="HEAD">
			<g id="NECK">
				<path class="st4" d="M611.6,687.4c0,0,7.6,21.3-8,38.1c0,0,33.3,4.6,57.8-15.3c0,0-9.7-13.4-7.6-37.5L611.6,687.4z"/>
				<path class="st7" d="M661.4,710.2c-2,1.5-4.1,3.1-5,3.6c-16.4,9.6-37.6-6-43-15.3c-0.1-3.8-0.7-7.5-1.8-11.1l42.1-14.7
					C651.8,694.2,659.5,707.7,661.4,710.2z"/>
			</g>
			<path id="HAIR" class="st7" d="M599.2,680.4c-21.5-14.9-27.4-32.4-24.8-47c-0.8,0.1-1.7,0.1-2.5,0.1c-2.5-0.1-7.5,1.2-9.2-0.6
				s-1.9-4.8-0.2-6.5c-4.4,0.3-8.9,0.3-13.3,0c-5.1-0.3-9.6-3.2-10.8-8c-0.9-3.5,1.6-7.2,4.8-9c2.7-1.3,5.6-2,8.6-2.1
				c-4.1-2.3-9-2.4-13.2-0.2c-0.5,0.3-1.1,0.1-1.4-0.4c-0.3-0.5-0.1-1.1,0.4-1.4c2.8-1.5,6-2.2,9.1-1.8c-1.8-2-2.8-4.5-3-7.2
				c-0.3-5.6,1.8-11.2,5.7-15.2c3.7-3.5,9.4-5.4,14.7-5.5c4.1-0.1,8.1,1.7,10.7,4.9c-0.7-4,1.4-10.1,4-12c6-4.2,14.4-0.5,15.8,3.4
				c0.5,1.3,0.6,2.8,1.4,3.9c1.4-1.9,3.1-4,5.2-4.8c7.8-3.2,14.2,1.5,14.9,5.5c0.6,3.3-1.2,6.7-4.1,8.8c2.1-0.5,4.2,0.1,5.6,1.8
				c1.7,2.1,1.8,5,1.3,7.7c-0.3,1.5-0.8,2.9-1.4,4.2c1.8-0.6,4.9-2.2,5.4-7c0.1-0.6,0.6-1,1.1-0.9c0.6,0.1,1,0.6,0.9,1.1
				c-0.2,3.8-2.6,7-6.1,8.4c18.1,0,31.2,9,37.3,29.4C664.2,656.4,599.2,680.4,599.2,680.4z"/>
			<path id="SCRUNCHY" class="st8" d="M573.9,633.5c-0.2,0-0.3,0-0.5-0.1c-0.8-0.2-1.2-1.1-0.9-1.8c2.1-5.7,5.1-11.1,8.8-15.8
				c8.3-10.5,19.4-16.5,32-17.2c0.8,0,1.5,0.6,1.5,1.4c0,0.8-0.6,1.5-1.4,1.5c-11.9,0.7-21.9,6.1-29.8,16.1c-3.6,4.5-6.4,9.6-8.4,15
				C575.1,633.1,574.5,633.5,573.9,633.5z"/>
			<path id="HEAD-2" class="st4" d="M615.7,641.1c0,15.9-5.7,25.1-16.7,25.5c0,0-11-3-12.2,3.9c-1,6,8.7,9,11.7,9.7
				c4.9,4.3,34.2,28.8,57.4,15.8c25.8-14.5,7.1-89.1-28.2-77C625.7,619.7,615.7,622.8,615.7,641.1z"/>
		</g>
		<path class="st5" d="M594.3,805.4c0,0-9.6,35.3-12.3,46.6"/>
	</g>
	<circle class="st9" cx="596" cy="671" r="12.3"/>
	<path class="st5" d="M591.2,665.1c0,0,5.8-2.6,10.9,4.2"/>
	<line class="st5" x1="596.6" y1="666.1" x2="592.4" y2="671"/>
	
		<ellipse transform="matrix(0.965 -0.2622 0.2622 0.965 -149.1108 189.1183)" class="st7" cx="634.1" cy="653.3" rx="3.7" ry="4.4"/>
	
		<ellipse transform="matrix(0.965 -0.2622 0.2622 0.965 -146.3932 195.0805)" class="st7" cx="657.8" cy="646.1" rx="2.8" ry="4.4"/>
	<path class="st5" d="M648.9,650.4c0,0,9.5,2.8,8.9,5.8c-0.6,2.1-1.7,4.1-3.3,5.7"/>
	<path class="st5" d="M632.5,668.6c0,0,7,8.1,21.2,4.2"/>
	<g id="WOMAN">
		<g id="LEFT_HAND-2">
			<path class="st4" d="M1311.7,713.8c-54.9-3.5-113.7-82.8-132.6-110.4c-8.8,4.8-21.8,11.2-32.5,11.5c-3.8,0.1-5-8.5-5-8.5
				c-2.1-0.8-3.7-4.4-3.6-8.1c0,0-4.2-2.1-4-8c-2.2-1.6-3.8-4-4.5-6.6c-1.3-5.7,12.8-11.4,14.5-12.4c3.4-2-1.2-1.7-3.7-4.6
				c-6.8-8.1-2.4-12-2.4-12s7.4,5,14.2,6.3s15.7,3.9,17.9,5.3c5.7,3.7,11,8,15.7,12.9c27.6,19,99.4,60.3,99.4,60.3
				c2.9-141.7,30.6-146.9,48.4-151.6C1333.9,488,1378.3,718.1,1311.7,713.8z"/>
			<path class="st10" d="M1115.1,580.8l36,56.1c3.6,5.6,2,13.1-3.7,16.7l0,0l-35.6,22.8c-5.6,3.6-13.1,2-16.7-3.7l-29.6-46.2l-11-7
				c2.1,2,20.3-6.9,35.4-16.5S1116.1,583.6,1115.1,580.8L1115.1,580.8z"/>
			<path class="st10" d="M1115,580.6c0,0.1,0.1,0.1,0.1,0.2c1,2.8-10.1,12.6-25.2,22.3s-33.3,18.6-35.4,16.5c-0.1,0-0.1-0.1-0.2-0.2
				c-1.6-2.5,14.3-15.6,29.8-25.5S1113.4,578.1,1115,580.6z"/>
			<path class="st5" d="M1124.3,574.9L1124.3,574.9c6.6-4.2,18.4,0,19.8,7.6l6.9,54.4l-30-46.9
				C1117.8,584.9,1119.3,578.2,1124.3,574.9z"/>
			<path class="st9" d="M1163.1,600.5c1.5,5.8-3.9,8.9-17.2,13.2c0,0-0.5,0.4-6-12.1c-8-18.3-7.1-21.4-7.1-21.4
				c7.3-2.7,14.6-4.4,17.2-5.2C1155.5,573.4,1162.1,596.8,1163.1,600.5z"/>
			<path class="st4" d="M1157.1,600.5c0,0,4.5-3,6.1,0c2.7,5.4-4.5,8.7-17.8,13"/>
			<path class="st4" d="M1141.8,605.8c15-4.3,19-7.2,19-7.2c2.1-0.8,0.5-9.7-3.8-8"/>
			<path class="st4" d="M1138,597.3c15.8-4.8,19-6.7,19-6.7c2.3-0.7,1-9.5-4.6-7.7"/>
			<path class="st4" d="M1132.9,580.2c0.9,2.4,14.6-4.4,17.2-5.2c3.7-1.1,7.1,6.2,2.4,7.9c-5.8,2.8-11.9,5-18.2,6.6"/>
		</g>
		<g id="DRESS-3">
			<path id="DRESS-4" class="st11" d="M1578.6,1048.6C1578.6,1048.6,1569.7,1172.3,1578.6,1048.6c7.9-109.1,19.7-97.5-21.9-215.3
				l-0.3,0.1c-27.7-77.8-69.5-120.1-69.5-120.1c-14.1-53.4,35.8-156.7,35.6-198.6c-0.1-28-49.8-44.8-49.8-44.8l-130,15.1l-8.8,3
				c0,0-20.5,53.4-30.7,77.4c-18.4,43.5,20.1,72.9,25.3,76.1s14.2,71.8,14.2,71.8c-44,124.8-60.8,235-60.8,235
				c-25.1,140.7-21.9,104.4-21.9,104.4s39,12.2,156.5,11.5S1578.6,1048.6,1578.6,1048.6z"/>
			<g>
				<g>
					<g>
						<defs>
							<path id="SVGID_1_" d="M1578.6,1048.6C1578.6,1048.6,1569.7,1172.3,1578.6,1048.6c7.9-109.1,19.7-97.5-21.9-215.3l-0.3,0.1
								c-27.7-77.8-69.5-120.1-69.5-120.1c-14.1-53.4,35.8-156.7,35.6-198.6c-0.1-28-49.8-44.8-49.8-44.8l-130,15.1l-8.8,3
								c0,0-20.5,53.4-30.7,77.4c-18.4,43.5,20.1,72.9,25.3,76.1s14.2,71.8,14.2,71.8c-44,124.8-60.8,235-60.8,235
								c-25.1,140.7-21.9,104.4-21.9,104.4s39,12.2,156.5,11.5S1578.6,1048.6,1578.6,1048.6z"/>
						</defs>
						<clipPath id="SVGID_2_">
							<use xlink:href="#SVGID_1_"  style="overflow:visible;"/>
						</clipPath>
						<g class="st12">
							<line class="st5" x1="1290.3" y1="532.8" x2="1556.6" y2="532.8"/>
							<line class="st5" x1="1290.3" y1="583.1" x2="1556.6" y2="583.1"/>
							<line class="st5" x1="1290.3" y1="633.5" x2="1556.6" y2="633.5"/>
							<line class="st5" x1="1290.3" y1="683.8" x2="1556.6" y2="683.8"/>
							<line class="st5" x1="1290.3" y1="734.1" x2="1556.6" y2="734.1"/>
							<line class="st5" x1="1290.3" y1="784.5" x2="1556.6" y2="784.5"/>
							<line class="st5" x1="1290.3" y1="834.8" x2="1556.6" y2="834.8"/>
							<line class="st5" x1="1290.3" y1="885.2" x2="1585.6" y2="885.2"/>
							<line class="st5" x1="1265.8" y1="935.5" x2="1585.6" y2="935.5"/>
							<line class="st5" x1="1252.8" y1="985.8" x2="1647.6" y2="985.8"/>
							<line class="st5" x1="1252.8" y1="1036.2" x2="1647.6" y2="1036.2"/>
							<line class="st5" x1="1340.8" y1="469.9" x2="1340.8" y2="1050.6"/>
							<line class="st5" x1="1386.3" y1="469.9" x2="1386.3" y2="1050.6"/>
							<line class="st5" x1="1431.7" y1="469.9" x2="1431.7" y2="1050.6"/>
							<line class="st5" x1="1477.2" y1="469.9" x2="1477.2" y2="1050.6"/>
							<line class="st5" x1="1522.7" y1="469.9" x2="1522.7" y2="1050.6"/>
						</g>
					</g>
				</g>
			</g>
			<path id="DRESS-5" class="st5" d="M1578.6,1048.6C1578.6,1048.6,1587.9,953.2,1578.6,1048.6c7.9-109.1,19.7-97.5-21.9-215.3
				l-0.3,0.1c-27.7-77.8-69.5-120.1-69.5-120.1c-14.1-53.4,35.8-156.7,35.6-198.6c-0.1-28-49.8-44.8-49.8-44.8l-130,15.1l-8.8,3
				c0,0-20.5,53.4-30.7,77.4c-18.4,43.5,20.1,72.9,25.3,76.1s14.2,71.8,14.2,71.8c-44,124.8-60.8,235-60.8,235
				c-25.1,140.7-21.9,104.4-21.9,104.4s39,12.2,156.5,11.5S1578.6,1048.6,1578.6,1048.6z"/>
		</g>
		<g id="APRON-2">
			<path class="st7" d="M1393.3,929c-43,0-65.8-8.9-77.5-20.2c12.2,6.8,32.5,11.7,65.2,12.3c97,2,107.1-150,107.9-194.5
				C1491,760.8,1495.5,929,1393.3,929z"/>
			<path id="_x3C_äÓÌÚÛ__x3E_" class="st3" d="M1489.1,714.4c0,0,5.7,209-107.9,206.7c-104-2.1-81.6-46.6-79.5-59.7
				c7.3-47.2,43.2-147,43.2-147S1386,729.1,1489.1,714.4z"/>
		</g>
		<g id="RIGHT_HAND-2">
			<path class="st4" d="M1576.8,676.4c-7.8,55.9-132.2,174.5-135.4,177.5l0.1,0.3c0,0-9.6,19-19.2,19s-18.5-5.2-23.5,0.2
				s-10.2,14-14.1,14.8c-4.6,1-9.5,0.4-13.7-1.8c0,0,3.3-8,6.7-15.7c-3.1,2.8-7.2,9.2-9.5,11.6c-3.5,3.7-6.6,0.3-6.6,0.3
				s6.7-12.8,9.3-16.2s10.4-8.5,14.7-10.2c4.7-2.5,29.9-16,45.3-20.1c19.2-38.8,65.6-129.7,92.2-157.8c0,0-44.3-111.2-46.4-142.7
				s8.4-58.3,25.4-50.7C1542.6,503.2,1579.8,655,1576.8,676.4z"/>
			<path class="st5" d="M1376.5,886.4c0,0,8.9-20.2,12-22.2c5.4-3.7,12.6-8.6,12.6-8.6"/>
			<path class="st5" d="M1381.9,887.3c0,0,8.5-17.2,11.6-19.3l12.6-8.6"/>
		</g>
		<g id="HEAD-3">
			<g id="HAIR-2">
				<path class="st7" d="M1319.1,324.6c0,0-40.1-10.1-52.3,19s20.5,35.4,19.3,51c-0.7,9.2,3.8,34.5,30.2,15.4
					c25.3-18.4,125,68.5,156.4,60s55-58,30.3-76.1s-39.7,7.1-48-0.8s-4.3-21.4-24.4-24.8c-18.2-3.1-26.3,13.8-26.3,13.8
					s11.6-55.6-18-72.1S1330.3,302.4,1319.1,324.6z"/>
				<path class="st5" d="M1503.7,386.7c-25.7-16.7-37.3,6.9-45.9-0.5s-7.4-19.9-27.7-22.2c-18.3-2.1-26.7,18.4-26.7,18.4"/>
			</g>
			<g id="NECK-2">
				<path class="st4" d="M1393.6,386.9c0,0,17.3,72.8,79.1,83c0,0-90.8,48-130.1,15.1c0,0,29.5-15.8,12.7-60.6L1393.6,386.9z"/>
				<path class="st7" d="M1391.8,389.1c2,7.2,5.1,66.6-34,77.1c3.6-9.5,4.6-23.2-2.3-41.9L1391.8,389.1z"/>
			</g>
			<path id="HEAD-4" class="st4" d="M1396,363.3c7.5,2.2,3.3,26.3-3.2,29.9c2,7.3-8.9,43.9-44.8,54.5c-10.2,3-31.4-26.7-35.6-36.6
				c-6.1-14.3-11.6-27.6-12.6-32.9c-1.7-8.6-2.1-28,22.6-32c21.6-3.5,28.6,40.7,63.6,25.3C1385.9,371.4,1388.4,361,1396,363.3z"/>
		</g>
	</g>
	<polyline class="st5" points="1322.8,389.1 1322.8,407.5 1331.1,411.1 	"/>
	<path class="st5" d="M1335.6,422.7c0,0,9.8,2.1,14.2-9.2"/>
	
		<ellipse transform="matrix(0.8969 -0.4423 0.4423 0.8969 -32.5143 630.9008)" class="st7" cx="1336.6" cy="385.2" rx="3.1" ry="4.1"/>
	
		<ellipse transform="matrix(0.9457 -0.3251 0.3251 0.9457 -57.5578 448.5274)" class="st7" cx="1313.4" cy="396.5" rx="3.1" ry="4.1"/>
	<path class="st5" d="M1304.3,382.7c1.1-2.6,4-4.1,6.8-3.5"/>
	<circle class="st9" cx="1388.7" cy="374.6" r="14.6"/>
	<path class="st5" d="M1383.2,383.5c0,0-1.7-5.7-0.1-10.9c1.1-3.8,4.2-6.8,8.1-7.5"/>
	<line class="st5" x1="1391.2" y1="376.3" x2="1383.1" y2="372.6"/>
	<circle class="st1" cx="1399.6" cy="390.9" r="6.8"/>
	<path class="st5" d="M1327,372.8c0,0,1.9-6.6,10.3-4.5"/>
	<g id="TABLE">
		<polygon class="st1" points="1719.7,1368.3 1662.6,1056 1709.7,1048.6 1753.5,1368.3 		"/>
		<polygon class="st7" points="1662.6,1056 1709.7,1048.6 1714.3,1085 1666,1075.7 		"/>
		<polygon class="st1" points="287.4,1368.3 344.4,1056 297.3,1048.6 253.5,1368.3 		"/>
		<polygon class="st7" points="297.3,1048.6 344.4,1056 337.6,1096 295.4,1064 		"/>
		<ellipse class="st1" cx="1003" cy="991.8" rx="797.3" ry="58.7"/>
		<path class="st1" d="M1800.3,991.8v31.2c0,32.4-357,58.7-797.3,58.7c-385.1,0-706.5-20.1-781-46.8c-10.7-3.8-16.3-7.8-16.3-11.9
			v-31.2c0,4.1,5.6,8,16.3,11.9c3.5,1.2,7.5,2.5,12,3.7c92.6,24.9,401.9,43.1,769,43.1s676.4-18.3,769-43.2
			C1790.5,1002.5,1800.3,997.2,1800.3,991.8z"/>
		<path class="st1" d="M1323.1,1045.5c-23.1,148.3-276.1,236.4-461.5,219C634.1,1243,512,1133.3,461.4,1073.3
			c-9-10.7-11-25.6-5.1-38.3c142.2,9.7,332.4,15.6,541.3,15.6C1113.5,1050.6,1223.7,1048.8,1323.1,1045.5z"/>
		<path class="st1" d="M1559.8,948.9l-2.7,1.1l-234,95.3v0.2c-99.4,3.3-209.5,5.1-325.5,5.1c-209,0-399.1-5.9-541.3-15.6
			c3.8-8.3,10.7-14.8,19.2-18.2l195.6-78.3c0,0,5-0.2,14.4-0.6l0,0C765.3,934.4,1164,919.9,1559.8,948.9z"/>
	</g>
	<g id="BOWL">
		<path class="st1" d="M1230.4,804.9c-22.9,22.9-58.8,26.5-85.7,8.5c2.3-4.2,25.3,6.3,43.7-8.2
			C1221.1,779.5,1229.6,802.2,1230.4,804.9z"/>
		
			<rect x="1120" y="722.1" transform="matrix(0.6812 -0.7321 0.7321 0.6812 -195.2052 1061.7505)" class="st1" width="3" height="65.8"/>
		<path class="st1" d="M1181.2,791.5c10.8,8.8,12.7,19.3,6.9,25.6c-5.2,5.6-17.5,4.3-26-5c-8.3-9.2-21.2-30.9-17.2-35.2
			S1171.6,783.7,1181.2,791.5z"/>
		<path class="st1" d="M1178.4,796.1c10,8.6,12.4,18,9.7,21c-2.2,2.4-13.3,0.5-21.6-8.1s-23.5-28.9-21-31.5
			S1169.5,788.5,1178.4,796.1z"/>
		<path class="st1" d="M1073.4,705.9l24.4,24.5c1,1,1,2.5,0.1,3.6l0,0c-0.9,1-2.5,1.1-3.6,0.2l-23.6-20.2c-3.1-2.9-8-2.8-11,0.4l0,0
			l0,0c-1.4-1.3-1.5-3.5-0.2-5l0,0l2.9-3.1C1065.3,703.1,1070.2,702.9,1073.4,705.9L1073.4,705.9z"/>
		<line class="st5" x1="1145.5" y1="777.4" x2="1188.1" y2="817.1"/>
		<path class="st10" d="M1259.1,752.5c0.1,42.5-34.3,77.1-76.9,77.1l0,0l0,0c-42.5,0.1-77.1-34.3-77.1-76.9l0,0L1259.1,752.5z"/>
	</g>
	<g id="ROLLING_PIN">
		<path class="st1" d="M790.3,1009.7H769c-3.2,0-5.8-2.6-5.8-5.8v-1.4c0-3.2,2.6-5.8,5.8-5.8h21.3c3.2,0,5.8,2.6,5.8,5.8v1.4
			C796,1007.1,793.5,1009.7,790.3,1009.7z"/>
		<path class="st1" d="M981.7,1030.1H804.6c-13.1,0-23.7-10.6-23.7-23.7v-6c0-13.1,10.6-23.7,23.7-23.7h177.1l0,0L981.7,1030.1
			L981.7,1030.1z"/>
		<ellipse class="st1" cx="981.7" cy="1003.4" rx="21" ry="26.6"/>
		<path class="st1" d="M1007.6,1009.7h-21.3c-3.2,0-5.8-2.6-5.8-5.8v-1.4c0-3.2,2.6-5.8,5.8-5.8h21.3c3.2,0,5.8,2.6,5.8,5.8v1.4
			C1013.4,1007.1,1010.8,1009.7,1007.6,1009.7z"/>
	</g>
	<g id="PICTURE">
		<rect x="728.5" y="239.6" class="st7" width="146.7" height="146.7"/>
		<rect x="737.4" y="229.9" class="st1" width="146.7" height="146.7"/>
		<rect x="760.8" y="253.3" class="st1" width="100" height="100"/>
		<path class="st1" d="M811.3,280.9c0,0,2.7-9.1-3.7-11.9"/>
		<path class="st13" d="M824.8,295.2c0.6,3.4,1.9,6.7,3.8,9.6c6.6,9.9,3.9,23.2-5.9,29.8c-9.9,6.6-23.2,3.9-29.8-5.9
			c-4.8-7.1-4.8-16.4-0.2-23.6c2-3,3.3-6.3,4-9.9l0.1-0.8c0.2-0.9,0.2-1.8,0.3-2.7c0.6-6.4,5.9-11.2,12.3-11.2h2.6
			c6.4,0,11.7,4.9,12.3,11.2c0.1,0.9,0.2,1.8,0.3,2.7L824.8,295.2z"/>
		<path class="st1" d="M812.5,280.4c0,0-0.7-8.3,11.3-12.1C823.8,268.3,825.5,283.3,812.5,280.4z"/>
	</g>
	<g id="KITCHEN_SET">
		
			<rect x="366.3" y="707.8" transform="matrix(0.1582 -0.9874 0.9874 0.1582 -350.8307 1007.5422)" class="st1" width="98.3" height="3.5"/>
		<path class="st1" d="M418.1,612.4l25.1,4c3.5,0.6,5.9,4,5.2,7.5c-0.1,0.3-0.1,0.6-0.2,0.9l-7.4,34.5c-0.9,3-3.9,5-7,4.5l-21.5-3.4
			c-3.1-0.5-5.4-3.3-5.3-6.5l3.8-35.1c0-3.6,2.9-6.5,6.4-6.5C417.5,612.3,417.8,612.4,418.1,612.4z"/>
		<line class="st5" x1="424.6" y1="652.3" x2="429.3" y2="622.7"/>
		<line class="st5" x1="417.3" y1="648.6" x2="421.2" y2="624"/>
		<line class="st5" x1="432.6" y1="651" x2="436.6" y2="626.4"/>
		<path class="st1" d="M396.4,799.1l8-39.9c0.3-1.6,1.8-2.7,3.5-2.4l0,0c1.6,0.2,2.7,1.7,2.5,3.3l-4.3,36.3c-0.8,5,2.6,9.7,7.5,10.5
			l0,0l0,0c-0.4,2.3-2.5,3.8-4.8,3.4l-4.9-0.8C399,808.8,395.6,804.1,396.4,799.1L396.4,799.1z"/>
		<path class="st1" d="M438,683.4c3.4-6.7,9.7-11.4,17.1-12.6c13.7-2.1,25.6,7.1,27.3,21l-45,8.2l-44.2,83.6
			c0.1,0.2,0.2,0.3,0.2,0.5c0.2,0.7,0.2,1.4-0.1,2.1l-14.6,30.7c-2.2,4.2-0.6,9.3,3.5,11.5c-0.5,0.9-1.3,1.6-2.3,1.9
			c-1,0.3-2,0.2-2.9-0.3l-4.1-2.2c-4.2-2.2-5.7-7.3-3.5-11.5l18.9-32.8c0.4-0.7,1.1-1.2,2-1.3l44.3-83.8h0.1
			C434.5,693.2,435.6,688,438,683.4z"/>
		
			<rect x="379" y="731.9" transform="matrix(0.4673 -0.8841 0.8841 0.4673 -421.2081 767.9928)" class="st1" width="95.4" height="3.2"/>
		<path class="st1" d="M495.3,683.9c-1.7-13.9-13.6-23.1-27.3-21l0,0c-13.7,2.1-21.9,15.8-20.2,29.7L495.3,683.9z"/>
		<path class="st1" d="M382.4,808.5l18.9-32.8c0.8-1.3,2.4-1.8,3.8-1.1l0,0c1.3,0.7,1.9,2.3,1.2,3.7L391.7,809
			c-2.2,4.2-0.6,9.3,3.5,11.5l0,0c-1,1.9-3.3,2.6-5.2,1.6l0,0l-4.1-2.2C381.8,817.8,380.2,812.7,382.4,808.5z"/>
		<path class="st1" d="M405.8,788L405.8,788l14,32.1l-2,1l-17.5-27.6c-0.8-1.3-2-2.2-3.5-2.6c-1.4-0.4-2.9-0.3-4.2,0.4
			c-2.7,1.4-3.9,4.6-2.7,7.5l11.8,30.5l-1.8,0.9L382.3,800c-3.1-5.9-1.4-13.2,4-17.2l-41.4-81.2c-1.4,0-2.8-0.7-3.5-2L324.1,669
			c-2-3.8-6.7-5.4-10.5-3.4l-0.9,0.5l-0.5-0.9c-1.2-2.5-0.3-5.5,2.2-6.7l4.3-2.2c4.8-2.5,10.7-0.5,13.2,4.3l0,0l16.5,35.5
			c0.6,1.3,0.4,2.9-0.5,4l41.4,81.1c2.8-1,5.9-1.1,8.7-0.1C401.4,782.3,404.2,784.8,405.8,788z"/>
		
			<rect x="370.1" y="684.4" transform="matrix(0.9288 -0.3706 0.3706 0.9288 -245.3782 190.0447)" class="st1" width="3.5" height="98.3"/>
		<path class="st1" d="M406.6,785.9l11.1,33.6l-0.4,0.2l-15.1-29.4c-0.8-1.6-2.2-2.9-3.9-3.5c-1.6-0.7-3.5-0.7-5.1,0
			c-3.4,1.4-5.2,5.2-4.1,8.7l9.1,31.8h-0.1l-15-32c-2.7-6.6,0.4-14.1,6.9-16.9c3.1-1.3,6.7-1.2,9.8,0.2
			C402.9,780.1,405.4,782.7,406.6,785.9z"/>
		<path class="st1" d="M342.3,646.9l13.6,38.4c0.6,1.5-0.2,3.2-1.7,3.8l0,0c-1.5,0.6-3.2-0.1-3.9-1.6l-15-33.4
			c-1.9-4.7-7.2-7-11.9-5.1l0,0c-0.8-2.1,0.2-4.5,2.3-5.4l4.6-1.8C335.1,639.9,340.4,642.2,342.3,646.9L342.3,646.9z"/>
		
			<rect x="389.2" y="668.5" transform="matrix(0.9807 -0.1953 0.1953 0.9807 -130.5977 89.9729)" class="st1" width="3.5" height="77.5"/>
		<path class="st1" d="M359,631.3c-4.2-15.8,1.1-27.2,11-29.2c8.8-1.8,19.8,8,21.4,22.7c1.6,14.5-1.1,44.1-7.8,45.5
			S362.8,645.4,359,631.3z"/>
		<path class="st1" d="M364.9,628.8c-3.7-15.1,0.5-25.8,5.2-26.7c3.8-0.8,13.1,8.7,15,22.7c1.9,13.7,2.5,43.8-1.6,44.6
			S368.1,642.3,364.9,628.8z"/>
		<path class="st1" d="M403,787.5l-6.4-40.2c-0.3-1.6,0.8-3.1,2.4-3.4l0,0c1.6-0.3,3.1,0.7,3.5,2.2l8.6,35.5c1,5,5.8,8.2,10.7,7.2
			l0,0l0,0c0.4,2.2-1,4.4-3.3,4.9l-4.9,1C408.8,795.7,404,792.5,403,787.5L403,787.5z"/>
		<line class="st5" x1="383.5" y1="669.4" x2="370.1" y2="602.1"/>
		<rect x="360.7" y="732.5" class="st1" width="75" height="97.7"/>
	</g>
	<g id="EGGS">
		<g id="EGGS-2">
			<path class="st1" d="M1370.3,988.5c-11.3,6.4-22.8,6.6-28.1-5.2c-4.8-10.7,2.3-20.8,14.8-24.4c14.8-4.3,25-1.7,28.1,5.2
				C1388.4,971.2,1383.7,980.9,1370.3,988.5z"/>
			<ellipse class="st1" cx="1419.3" cy="982.9" rx="16.8" ry="24.4"/>
			<ellipse class="st1" cx="1462.2" cy="982.9" rx="16.8" ry="24.4"/>
		</g>
		<g id="PACK">
			<path class="st1" d="M1602.1,978.8l-13,31.6c-2,5-6.9,8.2-12.3,8.2h-114.1l16.3-39.9h123.1V978.8z"/>
			<path class="st1" d="M1486.8,978.8l-12,31.6c-1.7,4.8-6.2,8.1-11.3,8.2h-2.1c-5.2-0.1-9.8-3.5-11.4-8.5l-2.9-8.1
				c-0.9-2.7-3.3-4.5-6.1-4.5l0,0c-2.8,0.1-5.2,1.9-6.1,4.5l-2.9,8.1c-1.6,5-6.2,8.4-11.4,8.5h-2.1c-5.1-0.1-9.7-3.4-11.4-8.2
				l-12-31.6H1486.8z"/>
			<path class="st1" d="M1644.7,951.5l-6.6,16.6c-2.7,6.5-9,10.7-15.9,10.7h-135.1l21.2-51.8H1639l4.6,7.5
				C1646.6,939.7,1647,946,1644.7,951.5z"/>
			<path class="st1" d="M1514,951.5l-6.6,16.6c-2.7,6.5-9,10.7-15.9,10.7h-4.4l21.2-51.8l0,0l4.6,7.5
				C1515.9,939.7,1516.3,946,1514,951.5z"/>
		</g>
	</g>
	<g id="CUPCAKES">
		<path class="st1" d="M511.5,1016.5h-15.7c-4.9,0-9.1-3.5-10-8.3l-6.3-32.2h48.3l-6.3,32.2C520.6,1013,516.4,1016.5,511.5,1016.5z"
			/>
		<path class="st1" d="M531.6,974c0,6.1-12.5,7-28,7s-28,0-28-7c0-8,12.5-9.8,28-9.8S531.6,967,531.6,974z"/>
		<path class="st1" d="M521.8,961.5c0,6.1-8.2,9.4-18.3,9.4s-18.3-2.4-18.3-9.4c0-4.6,4.6-7.8,11.2-9.1l0,0c0.4-0.1,7.1-2,7.1-6
			c0-4.5-5.5-5.7-5.5-5.7s14.3-3.6,12.7,11.7C517.2,954,521.8,957.4,521.8,961.5z"/>
		<path class="st1" d="M497,960.1c1.4,1.3,1.9,2.9,1.3,3.7s-2.4,0.3-3.8-1s-2-2.9-1.3-3.7S495.6,958.8,497,960.1z"/>
		<path class="st1" d="M501.6,973.3c1.8,0.5,3,1.8,2.7,2.8s-2,1.3-3.8,0.8s-3-1.8-2.7-2.8S499.8,972.7,501.6,973.3z"/>
		<path class="st1" d="M509.4,964.5c-1.6,1-3.3,1.1-3.9,0.3s0.3-2.4,1.9-3.4s3.3-1.1,3.9-0.3S510.9,963.5,509.4,964.5z"/>
		<path class="st1" d="M503.8,957.3c-1.6,1-3.2,1.3-3.6,0.7s0.6-1.9,2.2-2.9s3.2-1.3,3.6-0.7S505.4,956.3,503.8,957.3z"/>
		<path class="st1" d="M518.4,972c-1.6,1-3.2,1.3-3.6,0.7s0.6-1.9,2.2-2.9s3.2-1.3,3.6-0.7S520,971,518.4,972z"/>
		
			<ellipse transform="matrix(0.2024 -0.9793 0.9793 0.2024 -563.2178 1252.9552)" class="st1" cx="487.6" cy="972.2" rx="1.3" ry="3.4"/>
		<path class="st1" d="M380.8,989.1h-14.4c-4.7,0-8.7-3.3-9.6-7.9l-5.9-30h45.3l-5.9,30C389.5,985.8,385.4,989.1,380.8,989.1z"/>
		<path class="st1" d="M397.3,950.6c0,5.7-9.2,8.8-23.7,8.8s-24.8-2.2-24.8-8.8c0-7.5,10.3-9.9,24.8-9.9S397.3,944,397.3,950.6z"/>
		<path class="st1" d="M370.8,948.8c-5.7,0.1-12.4,0.1-15-6.1c-3.1-7.3,6.2-14.9,16.2-11c2.8,1.1,4.8,1.5,6.3-0.8
			c1.6-2.5-1.3-6.1-5.4-4.8c0,0,6.2-2.8,10.7,1.2C390.5,933.2,391.8,948.5,370.8,948.8z"/>
		<path class="st1" d="M369.1,945.6c-1.7-0.4-3-1.2-2.9-1.8s1.6-0.9,3.4-0.5s3,1.2,2.9,1.8S370.8,945.9,369.1,945.6z"/>
		<path class="st1" d="M364,939.6c-0.9,1.5-2.1,2.5-2.6,2.2s-0.3-1.8,0.6-3.4s2.1-2.5,2.6-2.2S364.9,938,364,939.6z"/>
		<path class="st1" d="M385.8,949.4c-0.9,1.5-2.1,2.5-2.6,2.2s-0.3-1.8,0.6-3.4s2.1-2.5,2.6-2.2S386.6,947.9,385.8,949.4z"/>
		<path class="st1" d="M372.7,939.1c-1.5,0.9-3,1.2-3.4,0.7s0.6-1.7,2.1-2.7s3-1.2,3.4-0.7S374.2,938.1,372.7,939.1z"/>
		<path class="st1" d="M375.5,953c-1.5,0.9-3,1.2-3.3,0.7s0.6-1.8,2.1-2.7s3-1.2,3.4-0.7S377,952.1,375.5,953z"/>
		<path class="st1" d="M378,942.6c-1.7-0.3-3-1.2-2.9-1.8s1.6-0.9,3.4-0.5s3,1.2,2.9,1.8S379.7,942.9,378,942.6z"/>
		<path class="st1" d="M359.6,951.6c-1.7-0.4-3-1.2-2.9-1.8s1.6-0.9,3.4-0.5s3,1.2,2.9,1.8S361.3,951.9,359.6,951.6z"/>
		<path class="st1" d="M443.3,989.1h-15.4c-4.4,0-8.2-3.1-9-7.4l-6-30.5h45.3l-6,30.5C451.5,986,447.7,989.1,443.3,989.1z"/>
		<path class="st1" d="M461.9,950.6c0,5.7-11.8,8.8-26.3,8.8s-26.3-2.2-26.3-8.8c0-7.5,11.8-9.2,26.3-9.2S461.9,944,461.9,950.6z"/>
		<path class="st1" d="M434.9,950.2c-4.9,0.2-15.6,0-16.9-6.6c-1.5-7.6,8.6-11.4,15.5-9.8c2.9,0.7,9.8,1.5,10.5-1.3
			c0.6-2.4-0.5-4.1-3.3-3.7c0,0,4.4-6.3,10-0.8C458,935.1,457.8,949.4,434.9,950.2z"/>
		<path class="st1" d="M436.8,937.6c1.3,1.2,1.8,2.7,1.2,3.4s-2.2,0.3-3.5-0.9s-1.8-2.7-1.2-3.4S435.5,936.4,436.8,937.6z"/>
		<path class="st1" d="M432.7,944.2c1.7,0.5,2.8,1.7,2.6,2.6s-1.9,1.2-3.6,0.7s-2.8-1.7-2.6-2.6S431,943.7,432.7,944.2z"/>
		<path class="st1" d="M428.3,941.7c-1.5,0.9-3,1.2-3.4,0.7s0.6-1.8,2.1-2.7s3-1.2,3.3-0.7S429.8,940.7,428.3,941.7z"/>
		<path class="st1" d="M438.4,954c-1.7,0.4-3.2,0.2-3.4-0.4s1.1-1.5,2.8-1.9s3.2-0.2,3.4,0.4S440.1,953.6,438.4,954z"/>
		<path class="st1" d="M443.5,945.4c-1.5,0.9-3,1.2-3.4,0.7s0.6-1.8,2.1-2.7s3-1.2,3.3-0.7S445,944.5,443.5,945.4z"/>
		<path class="st1" d="M445.4,939.2c-1.7-0.4-3-1.2-2.9-1.8s1.6-0.9,3.4-0.5s3,1.2,2.9,1.8S447.1,939.6,445.4,939.2z"/>
		<path class="st1" d="M421.5,952.2c-1.6-0.8-2.6-1.9-2.4-2.5s1.8-0.5,3.4,0.3s2.6,1.9,2.4,2.5S423.1,953,421.5,952.2z"/>
		<path class="st1" d="M448.5,951.6c-1.6-0.8-2.6-1.9-2.4-2.5s1.8-0.5,3.4,0.3s2.6,1.9,2.4,2.5S450.1,952.4,448.5,951.6z"/>
	</g>
	<g id="BERRIES">
		<path class="st1" d="M762.3,962.8c0.4,0.2,0.6,0.7,0.4,1.1c-0.1,0.2-0.3,0.4-0.5,0.4c-28.3,8.1-63,12.9-100.4,12.9
			s-72.3-4.8-100.7-13c-0.5-0.1-0.7-0.6-0.6-1.1c0.1-0.2,0.2-0.4,0.4-0.5c9.2-6.1,65.4-8,100.9-8C696.6,954.7,751.9,958,762.3,962.8
			z"/>
		<path class="st1" d="M683.8,957c0,0,14.8-2.3,11-16.7"/>
		<circle class="st6" cx="680.8" cy="962.4" r="8"/>
		<path class="st1" d="M703.2,957.1c0,0-7.5-3.5-7.8-10.5"/>
		<circle class="st6" cx="704.8" cy="961.9" r="6.6"/>
		<path class="st1" d="M620.1,979.9c0,0,14.8-2.3,11-16.7"/>
		<circle class="st1" cx="617.2" cy="985.2" r="8"/>
		<path class="st1" d="M639.5,979.9c0,0-7.5-3.5-7.8-10.5"/>
		<circle class="st1" cx="641.1" cy="984.8" r="6.6"/>
		<path class="st1" d="M669.1,977.5c0,0,14.6,4.3,20.8-9.1"/>
		<circle class="st6" cx="663.8" cy="977.5" r="8"/>
		<path class="st1" d="M692,988.9c0,0,14.6,4.3,20.8-9.1"/>
		<circle class="st1" cx="686.7" cy="988.8" r="8"/>
		<circle class="st1" cx="725.4" cy="988" r="8"/>
		<path class="st1" d="M697,970c0,0-6.6-4.9-5.6-11.8"/>
		<circle class="st6" cx="697.6" cy="975" r="6.6"/>
		<path class="st1" d="M735.4,969c0,0-8.1-1.2-10.5-7.8"/>
		<circle class="st6" cx="738.3" cy="973.1" r="6.6"/>
		<path class="st1" d="M605.8,965.1c0,0-7.3-5-6.6-12.5"/>
		<circle class="st6" cx="606.8" cy="970.4" r="7.1"/>
		<circle class="st6" cx="714.4" cy="972.1" r="5"/>
		<circle class="st6" cx="622.1" cy="968.4" r="5"/>
		<circle class="st6" cx="583.7" cy="971.3" r="6.9"/>
		<path class="st1" d="M666,990.7c-0.6,2.7,1,5.4,3.7,6s5.4-1,6-3.7s-1-5.4-3.7-6l0,0C669.3,986.4,666.6,988,666,990.7z"/>
		<circle class="st6" cx="645.2" cy="967.7" r="6.6"/>
		<circle class="st1" cx="596.6" cy="982.3" r="6.6"/>
		<circle class="st1" cx="655.1" cy="994.2" r="6.6"/>
		<path class="st14" d="M762.8,964.2c-0.6,22.5-44.9,39.8-101,39.8s-100.4-17.8-101-40.2c28.7,8.4,62.8,13,101,13
			S734.1,972.6,762.8,964.2z"/>
		<path class="st1" d="M762.8,964.2c-0.6,22.5-44.9,39.8-101,39.8s-100.4-17.8-101-40.2c28.7,8.4,62.8,13,101,13
			S734.1,972.6,762.8,964.2z"/>
	</g>
	<g id="RECIPES">
		<path class="st1" d="M1050.7,886l6.9-5.4c0,0,57.4-9.3,75.3-6.6s15.8,12,15.8,12H1050.7z"/>
		<path class="st1" d="M1148.7,886c0,0,9.4-9.4,42.1-9.7c20.2-0.1,40.2,3.2,59.3,9.7H1148.7z"/>
		<path class="st15" d="M1201.8,1018.7h-109.2l-53-132.7h96.7c1.2,0,2.2,0.7,2.6,1.8l0.7,1.8h10.6L1201.8,1018.7z"/>
		<path class="st15" d="M1317.6,1018.7h-115.8l-51.7-129.3c-0.5-1.3,0.1-2.8,1.4-3.3c0.3-0.1,0.6-0.2,0.9-0.2h112.1L1317.6,1018.7z"
			/>
		<path class="st15" d="M1200.8,1022.2h-7c-0.7,0-1.3-0.4-1.6-1.1l-1-2.5l-51.6-129.1h10.7l52.1,130.3c0.4,0.9-0.1,1.9-1,2.2
			C1201.2,1022.2,1201,1022.2,1200.8,1022.2z"/>
		<line class="st5" x1="1153.6" y1="929.3" x2="1137.8" y2="1023.8"/>
		<line class="st5" x1="1186" y1="1024.6" x2="1091.4" y2="1024.6"/>
	</g>
	<g id="SHELF">
		<g id="SHELF-2">
			<polygon class="st1" points="342.9,511.7 317.1,511.7 317.1,525.8 342.9,521.5 			"/>
			<line class="st0" x1="342.5" y1="555.6" x2="1058.2" y2="555.6"/>
			<rect x="296.9" y="485.9" class="st1" width="807.7" height="25.9"/>
			<rect x="317.1" y="511.7" class="st1" width="25.9" height="43.9"/>
			<polygon class="st1" points="1084.8,511.7 1058.9,511.7 1058.9,525.8 1084.8,521.5 			"/>
			<rect x="1058.9" y="511.7" class="st1" width="25.8" height="43.9"/>
		</g>
		<g id="DISHES">
			<path class="st1" d="M917.3,425.9h120.5c0,5.2-4.2,9.4-9.4,9.4l0,0H926.7C921.5,435.2,917.3,431,917.3,425.9L917.3,425.9
				L917.3,425.9z"/>
			<path class="st1" d="M906.2,446.7h142.7c0,6.1-5,11.1-11.1,11.1H917.3C911.2,457.8,906.2,452.8,906.2,446.7z"/>
			<path class="st1" d="M891,470.8h173.1c0,7.4-6,13.5-13.5,13.5H904.5C897.1,484.3,891.1,478.2,891,470.8L891,470.8z"/>
			<path class="st1" d="M900.7,416.1h153.7c0.9,0,1.6,0.7,1.6,1.6c0,0.7-0.4,1.3-1.1,1.6l-16.3,6H916.5l-16.3-6
				c-0.8-0.3-1.3-1.2-1-2.1C899.4,416.6,900,416.1,900.7,416.1z"/>
			<path class="st1" d="M916.5,425.2h122.3c0,5.3-4.3,9.5-9.5,9.5l0,0H926C920.7,434.8,916.5,430.5,916.5,425.2L916.5,425.2
				L916.5,425.2z"/>
			<path class="st1" d="M886.5,434.9h182.1c1.1,0,1.9,0.9,1.9,1.9c0,0.8-0.5,1.5-1.3,1.8l-19.3,7H905.2l-19.3-7
				c-1-0.4-1.5-1.5-1.1-2.5C885,435.4,885.7,434.9,886.5,434.9z"/>
			<path class="st1" d="M905.2,445.6H1050c0,6.2-5,11.3-11.3,11.3H916.5C910.2,456.9,905.2,451.9,905.2,445.6z"/>
			<path class="st1" d="M867.2,457H1088c1.3,0,2.3,1.1,2.3,2.4c0,1-0.6,1.8-1.5,2.2l-23.4,8.5H889.8l-23.4-8.5
				c-1.2-0.5-1.8-1.8-1.4-3C865.3,457.6,866.2,457,867.2,457z"/>
			<path class="st1" d="M889.8,470.1h175.6c0,7.5-6.1,13.7-13.7,13.7l0,0H903.5C895.9,483.8,889.8,477.6,889.8,470.1z"/>
		</g>
		<g id="CUPS">
			<path class="st1" d="M655.3,448.9c0,15.7,10.6,28.4,23.7,28.4s23.7-12.7,23.7-28.4H655.3z"/>
			<path class="st1" d="M687.5,484.2c0-3.8-3.1-6.9-6.9-6.9l0,0h-3.3c-3.8,0-6.9,3.1-6.9,6.9H687.5z"/>
			<path class="st5" d="M702.5,448.9c1.7-2.9,5.3-4.1,8.4-2.7c3.5,1.6,5.1,5.7,3.6,9.2c-1.5,3.7-11.2,7.3-15.2,8.5"/>
			<path class="st1" d="M722.8,448.9c0,15.7,10.6,28.4,23.7,28.4s23.7-12.7,23.7-28.4H722.8z"/>
			<path class="st1" d="M755,484.2c0-3.8-3.1-6.9-6.9-6.9l0,0h-3.3c-3.8,0-6.9,3.1-6.9,6.9l0,0H755z"/>
			<path class="st5" d="M770,448.9c1.7-2.9,5.3-4.1,8.4-2.7c3.5,1.6,5.1,5.7,3.6,9.2c-1.5,3.7-11.2,7.3-15.2,8.5"/>
			<path class="st1" d="M790.3,448.9c0,15.7,10.6,28.4,23.7,28.4s23.7-12.7,23.7-28.4H790.3z"/>
			<path class="st1" d="M822.5,484.2c0-3.8-3.1-6.9-6.9-6.9l0,0h-3.3c-3.8,0-6.9,3.1-6.9,6.9l0,0H822.5z"/>
			<path class="st5" d="M837.5,448.9c1.7-2.9,5.3-4.1,8.4-2.7c3.5,1.6,5.1,5.7,3.6,9.2c-1.5,3.7-11.2,7.3-15.2,8.5"/>
		</g>
		<g id="TEAPOT">
			<path class="st1" d="M600,421.8c3.5-10.1,14.6-16.6,27.1-13.7s20.1,16.1,17,29.5s-37.2,29.7-50.4,36"/>
			<path class="st1" d="M500.6,470.2c-14,0-19.2-11.1-25-25.4c-5.5-13.7-13.8-31.5-27.2-37.4h17.5l28.9,19.2L500.6,470.2z"/>
			<path class="st1" d="M572.9,404.5h-48.2c2.4-7.4,12.3-12.9,24.1-12.9S570.5,397.1,572.9,404.5z"/>
			<circle class="st1" cx="549.9" cy="385.5" r="6.1"/>
			<path class="st1" d="M530.7,404.1H567c22,0,39.9,17.9,39.9,39.9l0,0c0,22-17.9,39.9-39.9,39.9h-36.4c-22,0-39.9-17.9-39.9-39.9
				l0,0C490.8,422,508.6,404.1,530.7,404.1z"/>
		</g>
		<g id="OVEN_MITT">
			<path class="st1" d="M993.1,587.7c-1.2-1.4-2.9-2.4-4.7-2.8l-29.8-6.3l-6.4-7L911.4,609l36.5,39.9c12.4,13.5,31.5,16.9,43,7.1
				c6-5.2,8.8-12.9,8.3-21c-0.6-8.6-4.2-16.7-10.1-23l-5.9-6.4c-1.5-1.7-1.2-4.1,0.7-4.7l8.5-2.5c0.6-0.2,1.1-0.5,1.6-0.9
				C996.2,595.2,996,590.9,993.1,587.7z"/>
			<path class="st1" d="M946.2,556.2c0.1,2.3,4.7,9.5,4.7,9.5s3.9-7.5,3.8-9.9c-0.1-2.3-2.1-4.2-4.4-4.1S946.1,553.8,946.2,556.2z"
				/>
			<path class="st1" d="M949.5,566.8L907,605.7c-0.7,0.7-0.8,1.8-0.1,2.6l3,3.3c0.7,0.7,1.8,0.8,2.6,0.1l42.5-38.9
				c0.7-0.7,0.8-1.8,0.1-2.6l-3-3.3C951.4,566.1,950.3,566.1,949.5,566.8C949.5,566.7,949.5,566.8,949.5,566.8z"/>
		</g>
		<g id="PAPER_TOWELS">
			<rect x="726.5" y="559.6" class="st1" width="96.7" height="65.5"/>
			<path class="st1" d="M823.1,556.9c0,14.3-6.6,25.9-14.7,25.9s-14.7-11.6-14.7-25.9s6.6-25.9,14.7-25.9S823.1,542.5,823.1,556.9z"
				/>
			<path class="st1" d="M816,556.9c0,6.2-2.8,11.3-6.4,11.3s-6.4-5-6.4-11.3s2.9-11.3,6.4-11.3S816,550.6,816,556.9z"/>
			<path class="st1" d="M808.5,582.8h-96.7c-8.1,0-14.7-11.6-14.7-25.9s6.6-25.9,14.7-25.9h96.7c-8.1,0-14.7,11.6-14.7,25.9
				S800.4,582.8,808.5,582.8z"/>
			<line class="st5" x1="825.4" y1="555.6" x2="804.3" y2="555.6"/>
		</g>
		<g id="PLANT">
			<path class="st1" d="M343.5,433.3h82.9l0,0v9.6c0,22.9-18.6,41.5-41.5,41.5l0,0c-22.9,0-41.5-18.6-41.5-41.5l0,0L343.5,433.3
				L343.5,433.3L343.5,433.3z"/>
			<path class="st5" d="M380.8,433.3c0,0,3.3-59.2,23.4-87.1"/>
			<path class="st13" d="M388,386c0,0,3.4-25.8,28.3-27.3C416.3,358.7,419.8,386.5,388,386z"/>
			<path class="st13" d="M392.2,370.2c0,0,14.1-27.7-7.2-38.5C385,331.7,372.4,357.7,392.2,370.2z"/>
			<path class="st13" d="M337.8,391.8c0,0-1.3-31.1-25.2-30C312.6,361.7,314.4,390.6,337.8,391.8z"/>
			<path class="st13" d="M383,412.3c0,0,9.8-31.5-12.1-42C370.9,370.2,359.7,401.5,383,412.3z"/>
			<path class="st13" d="M382,424.6c0,0-3.2-29.1,22.3-33.3C404.3,391.3,410,420.3,382,424.6z"/>
			<path class="st13" d="M403.5,347c0,0-3.2-29,22.3-33.3C425.8,313.7,431.4,342.8,403.5,347z"/>
			<line class="st5" x1="337.2" y1="391.3" x2="368.2" y2="433.3"/>
			<path class="st13" d="M352,411.3c0,0-14.5-18.7-6.4-38.9C345.6,372.4,363.5,386,352,411.3z"/>
			<path class="st13" d="M354.4,414.5c0,0-17.1,11.6-33.4-9.8C321,404.7,340.5,395.7,354.4,414.5z"/>
			<path class="st13" d="M368.2,433.2c0,0-13.6,12.8-31.2-3.8C337,429.3,353.1,418.4,368.2,433.2z"/>
			<path class="st13" d="M368.2,433.3c0,0-12.6-14.4-3.6-29.2C364.6,404.1,379,418.5,368.2,433.3z"/>
			<path class="st13" d="M404.2,433.2c0,0,3.6-21.3,22.9-23.9C427.1,409.3,430.4,433.2,404.2,433.2z"/>
		</g>
	</g>
	<path class="st1" d="M817.8,775.5h186.1c11,0,20,9,20,20V860l0,0H797.8l0,0v-64.6C797.8,784.4,806.7,775.5,817.8,775.5L817.8,775.5
		z"/>
	<path class="st1" d="M985.5,741.3v34.2H839.8v-34.2c0-8.8,7.1-15.9,15.9-15.9l0,0h113.7c8.3,0,15.2,6.3,15.9,14.6
		C985.4,740.4,985.5,740.8,985.5,741.3z"/>
	<path class="st15" d="M1014,777.8v21.8c0,7.6-6.1,13.7-13.7,13.7c-7.6,0-13.7-6.1-13.7-13.7V797c-0.6-7.7-7.3-13.5-15-12.9
		c-6.9,0.5-12.4,6-12.9,12.9v30.7c0,8.9-7.2,16.1-16.1,16.1c-8.9,0-16-7.2-16.1-16.1V808c0-5.6-4.5-10.1-10.1-10.1l0,0h-0.3
		c-5.4,0-9.8,4.4-9.8,9.8v10.6c0.2,6.9-5.2,12.6-12.1,12.8s-12.6-5.2-12.8-12.1c0-0.2,0-0.5,0-0.7v-25.6c0-5.6-4.5-9.3-10.1-9.3H871
		c-5.4,0-9.8,3.6-9.8,9V812c0,5.6-4.6,10.2-10.2,10.2h-0.3c-5.5,0-9.9-4.4-9.9-9.9l0,0v-4.1c0-8-6.5-14.5-14.5-14.5
		s-14.5,6.5-14.5,14.5v11.5c0,7.2-5.8,13.1-13.1,13.1V794c0-9.6,7.8-17.4,17.4-17.4h191.3C1009.9,776.6,1012,777,1014,777.8z"/>
	<path class="st1" d="M862.2,845.8c0,0,15.5-2.6,13-17.2"/>
	<circle class="st6" cx="858.8" cy="850.9" r="8"/>
	<path class="st1" d="M881.6,847.6c0,0-7.1-4.1-6.9-11.1"/>
	<circle class="st6" cx="882.8" cy="852.5" r="6.6"/>
	<path class="st1" d="M1022.8,832.3c-1.9,0-3.4-1.5-3.4-3.4v-4c0.1-1.9,1.7-3.3,3.5-3.2c1.7,0.1,3.1,1.5,3.2,3.2v4
		C1026.1,830.8,1024.7,832.3,1022.8,832.3z"/>
	<path class="st1" d="M978.2,805.3c-2.2,0-4-1.7-4-3.9c0,0,0,0,0-0.1v-3.9c0.3-2.2,2.4-3.7,4.6-3.3c1.7,0.3,3,1.6,3.3,3.3v3.9
		C982.1,803.5,980.4,805.2,978.2,805.3z"/>
	<path class="st1" d="M807.5,847.9c-2.2,0-3.9-1.8-4-3.9l0,0v-4c-0.1-2.2,1.6-4,3.7-4.1c2.2-0.1,4,1.6,4.1,3.7c0,0.1,0,0.3,0,0.4v4
		C811.5,846.2,809.7,847.9,807.5,847.9L807.5,847.9z"/>
	<path class="st15" d="M839.8,739.9c0.3,1.9,1.2,3.6,2.7,4.9c1.8,1.6,4.2,2.4,6.6,2.4c5.1,0,9.3-3.7,9.3-8.2v-1.5
		c0-2.3,1-4.4,2.8-5.9c1.9-1.6,4.2-2.5,6.7-2.4c5.2,0,9.5,3.7,9.5,8.3v18.2c0,2.6,1.2,5.1,3.2,6.8c2.1,1.8,4.9,2.8,7.7,2.8
		c6,0,10.9-4.3,10.9-9.5V744c0-3.3,3.1-6,6.8-6h0.2c3.7,0,6.6,2.6,6.6,5.8v6.3c0,2,0.9,3.9,2.5,5.2c1.7,1.4,3.8,2.2,6,2.2
		c4.6,0,8.4-3.3,8.4-7.4V735c0-3.3,3.1-5.5,6.8-5.5h0.2c3.7,0,6.6,2.2,6.6,5.4v11.6c0,3.3,3.1,6.1,6.9,6.1h0.2
		c3.7,0,6.7-2.6,6.7-5.9v-2.5c0-2.4,1-4.6,2.8-6.1c1.9-1.7,4.4-2.5,6.9-2.5c5.4,0,9.8,3.9,9.8,8.6v6.9c0,2.1,1,4.1,2.6,5.5
		c1.7,1.5,4,2.3,6.2,2.3v-17.5c0-8.8-7.1-15.9-15.9-15.9l0,0H855.7C847.5,725.3,840.6,731.7,839.8,739.9z"/>
	<path class="st1" d="M952.4,763c0,0,13.5-2.2,11.3-15"/>
	<circle class="st6" cx="949.4" cy="767.5" r="7"/>
	<path class="st1" d="M969.3,764.6c0,0-6.2-3.6-6-9.7"/>
	<path class="st6" d="M964.6,768.2c-0.4,3.1,1.9,6,5.1,6.3c3.1,0.4,6-1.9,6.3-5.1c0.4-3.1-1.9-6-5-6.3
		C967.8,762.8,965,765.1,964.6,768.2L964.6,768.2z"/>
	<path class="st15" d="M1053.8,618.4c-4.1,1.2-8.1,3-11.7,5.3c-10,6.2-12.5,17.6-14.5,28.7c-2.3,12.7-1.8,47.2-1.3,61.4
		c0.6,16.4,1.1,29.4-2.5,36c-1.4,2.5-4,4-6.8,3.9h-7c-0.6,0-0.9,0.3-0.9,0.5v1.3c0,0.2,0.4,0.5,0.9,0.5h1.2c4-0.2,7.4,2.9,7.6,6.9
		s-2.9,7.4-6.9,7.6c-0.3,0-0.5,0-0.8,0h-13.7c-0.6,0-0.9,0.3-0.9,0.5v0.2c0,0.2,0.4,0.5,0.9,0.5h12c9.7,0,17.6,7.9,17.7,17.7V811
		c0.1,1.9-1.3,3.4-3.2,3.5s-3.4-1.3-3.5-3.2c0-0.1,0-0.2,0-0.4v-21.3c0-6.1-4.9-11-11-11l0,0h-12c-4.1,0.1-7.5-3.1-7.6-7.2v-0.2
		c0.1-4.1,3.5-7.4,7.6-7.2h13.6c0.6,0,0.9-0.3,0.9-0.5s-0.4-0.5-0.9-0.5h-1.1c-4.1,0.1-7.5-3.1-7.6-7.2v-1.3
		c0.1-4.1,3.5-7.4,7.6-7.2h7c0.3,0,0.7-0.1,0.9-0.4c2.7-5.1,2.2-18.5,1.7-32.6c-0.5-14.5-1.1-49.4,1.4-62.8c3-16,9.9-27,17.1-30.4
		C1047.9,616.3,1053.8,618.4,1053.8,618.4z"/>
	<g id="STAND">
		<path class="st1" d="M873.7,946.6h63.1c6.5,0,11.8,5.3,11.8,11.8l0,0v2.6l0,0H862l0,0v-2.6C861.9,951.9,867.1,946.6,873.7,946.6
			L873.7,946.6z"/>
		<path class="st1" d="M872.2,946.6L872.2,946.6c6.9,0,12.6-5.6,12.6-12.6l0,0v-41.2c0-6.9-5.6-12.6-12.6-12.6h66.1
			c-6.9,0-12.6,5.6-12.6,12.6V934c0,6.9,5.6,12.6,12.6,12.6H872.2L872.2,946.6z"/>
		<path class="st1" d="M925.7,890.4c-0.1-4.4,5.6-10.2,12.6-10.2h-66.1c6.9,0,12.6,5.6,12.6,12.6v9.7L925.7,890.4z"/>
		<path class="st1" d="M872.2,946.6L872.2,946.6c6.9,0,12.6-5.6,12.6-12.6l0,0v-41.2c0-6.9-5.6-12.6-12.6-12.6h66.1
			c-6.9,0-12.6,5.6-12.6,12.6V934c0,6.9,5.6,12.6,12.6,12.6H872.2L872.2,946.6z"/>
		<path class="st1" d="M1022.9,880.2H787.5c-9.3-0.1-17.6-6-20.6-14.9l-1.8-5.3h280.3l-1.8,5.3
			C1040.5,874.2,1032.3,880.1,1022.9,880.2z"/>
	</g>
	<path class="st5" d="M1574.9,330.4c0,0,39.9,154.2,97.6,262"/>
	<line class="st5" x1="1672.4" y1="423.8" x2="1696.5" y2="589.2"/>
</g>
</svg>
