<?xml version="1.0" encoding="utf-8"?>
<!-- Generator: Adobe Illustrator 24.0.2, SVG Export Plug-In . SVG Version: 6.00 Build 0)  -->
<svg version="1.1" id="Layer_1" xmlns="http://www.w3.org/2000/svg" xmlns:xlink="http://www.w3.org/1999/xlink" x="0px" y="0px"
	 viewBox="0 0 444 169" style="enable-background:new 0 0 444 169;" xml:space="preserve">
<style type="text/css">
	.st0{fill:none;stroke:#FFFFFF;stroke-width:4.4;stroke-linecap:round;stroke-linejoin:round;}
	.st1{fill:#F9F9F1;stroke:#FFFFFF;stroke-width:0.1;}
	.st2{fill:#FFFFFF;stroke:#FFFFFF;stroke-miterlimit:10;}
</style>
<g>
	<path id="STROKE_e30477be-0088-4a0a-a1c8-ff523310f879" class="st0" d="M47.43,112.03l2-1c-0.19-0.11,2.67-1.75,7.91-1.92
		c5.24-0.18,10.43-0.38,15.57-0.6c5.14-0.22,9.02-0.37,11.62-0.45c2.6-0.08,6.81-0.25,12.62-0.53c5.81-0.27,10.48-0.53,14.03-0.76
		c3.55-0.23,12.83-0.69,27.84-1.37s27.76-1.19,38.23-1.51c10.47-0.32,18.17-0.55,23.1-0.69c4.93-0.14,8.42-0.23,10.48-0.26
		c2.06-0.04,4.31-0.05,6.74-0.05c2.44,0.01,6.22-0.02,11.36-0.08c5.14-0.06,14.83-0.12,29.09-0.19c14.26-0.06,27.23-0.04,38.92,0.07
		c11.69,0.11,20.57,0.25,26.67,0.43c6.09,0.17,10.75,0.25,13.98,0.24c3.23-0.02,10.4,0.09,21.49,0.33
		c11.1,0.23,24.09,0.79,38.99,1.67c-0.38-0.07-0.59-0.08-0.62-0.03c-0.27,0.03-1.49,0.29-3.64,0.79"/>
	<path id="STROKE_ccbbb93f-4142-4840-b8ab-d715ab5c998a" class="st0" d="M399.31,107.86c-0.05,0.02-0.23,0.15-0.54,0.39
		c-0.31,0.24-0.62,0.51-0.94,0.82c-0.32,0.3-0.6,0.58-0.83,0.84c-0.23,0.25-1.1,1.34-2.6,3.26s-3.44,4.04-5.82,6.35
		c-2.38,2.31-4.34,4.04-5.87,5.19c-1.53,1.15-2.74,2.01-3.62,2.58c-0.89,0.57-2.3,1.36-4.23,2.38c-1.93,1.02-3.53,1.85-4.79,2.5
		c-1.26,0.64-3.24,1.59-5.95,2.83c-2.71,1.25-5.16,2.33-7.35,3.25c-2.19,0.92-4.72,1.88-7.6,2.87c-2.88,0.99-6.45,2.07-10.72,3.24
		c-4.27,1.17-9.04,2.43-14.34,3.79c-5.29,1.36-10.01,2.61-14.17,3.75c-4.15,1.14-7.92,2.04-11.28,2.71
		c-3.37,0.67-5.85,1.12-7.46,1.36c-1.61,0.24-2.87,0.42-3.77,0.55c-0.91,0.12-4.31,0.48-10.22,1.07c-5.9,0.59-10.48,0.99-13.73,1.19
		c-3.25,0.2-6.16,0.35-8.73,0.44c-2.57,0.09-4.72,0.16-6.45,0.21c-1.73,0.05-2.81,0.09-3.25,0.11c-0.44,0.02-2.94,0.01-7.49-0.03
		c-4.56-0.04-8.37-0.13-11.43-0.25c-3.06-0.13-7.2-0.35-12.41-0.68c-5.21-0.32-9.66-0.58-13.34-0.78c-3.68-0.2-6.57-0.31-8.68-0.34
		c-2.11-0.03-3.88-0.03-5.33,0c-1.45,0.03-2.44,0.05-2.96,0.07"/>
	<path id="STROKE_a0265fb3-8c7a-47d0-8784-6aadb4664093_1_" class="st0" d="M176.52,103.86c-0.2,0-0.47-0.03-0.82-0.09
		c-0.35,0.06-0.33,2.68,0.06,7.85c0.39,5.17,0.93,9.82,1.64,13.94c0.7,4.12,1.28,7.29,1.75,9.5c0.46,2.21,0.93,4.6,1.41,7.17
		c0.48,2.57,0.83,4.84,1.07,6.81c0.23,1.97,0.05,5.72-0.18,7.99"/>
	<path id="STROKE_93562c9a-0818-4298-85ee-2ddb8651ceac_2_" class="st0" d="M43.98,112.66c-0.61,0.19-1.15,0.39-1.61,0.6
		c-0.46,0.21-0.79,0.36-0.98,0.46c-0.19,0.1-0.54,0.33-1.06,0.69c-0.52,0.36-0.97,0.7-1.37,1.02c-0.39,0.33-0.91,0.8-1.55,1.41
		c-0.64,0.61-1.14,1.13-1.5,1.55c-0.36,0.42-0.61,0.7-0.75,0.86c-0.14,0.15-0.71,0.97-1.7,2.45c-1,1.48-1.67,2.54-2.02,3.19
		c-0.35,0.65-0.65,1.71-0.92,3.19c-0.26,1.48-0.25,2.86,0.03,4.14c0.28,1.28,0.53,2.13,0.74,2.56c0.21,0.42,0.4,0.76,0.58,1.03
		c0.17,0.27,0.48,0.74,0.94,1.41c0.46,0.67,1.58,1.67,3.37,2.99c1.79,1.32,3.6,2.24,5.42,2.76c1.82,0.51,3.59,0.93,5.3,1.26
		c1.71,0.32,4.72,0.53,9.04,0.61c4.31,0.08,9.39,0.09,15.22,0.01c5.84-0.08,10.36-0.25,13.56-0.51c3.2-0.26,6.45-0.58,9.73-0.94
		c3.28-0.36,7.98-0.83,14.09-1.4c6.11-0.57,11.23-1.01,15.37-1.31c4.14-0.3,7.88-0.58,11.23-0.85s6.14-0.47,8.37-0.6
		c2.23-0.13,14.04-0.66,35.43-1.58"/>
	<path id="STROKE_93562c9a-0818-4298-85ee-2ddb8651ceac_1_" class="st0" d="M56.36,112.88"/>
	
		<ellipse id="STROKE_b02ae0f9-8866-4be3-a4ce-9b8a55c6c7d6" transform="matrix(0.0875 -0.9962 0.9962 0.0875 -56.1996 189.8396)" class="st1" cx="75.53" cy="125.6" rx="3.52" ry="3.52"/>
	
		<ellipse id="STROKE_3b6ade61-a4d4-49b3-bc53-091503c4196b" transform="matrix(0.0875 -0.9962 0.9962 0.0875 -8.9677 233.747)" class="st1" cx="123.11" cy="121.77" rx="3.52" ry="3.52"/>
	<path id="STROKE_2901fef9-fc4f-4610-aca2-4725b3ebcfc3" class="st0" d="M195.97,144.31c-0.19-0.04-0.23-0.05-0.13-0.04
		c0.18,0.09,1.69,0.28,4.54,0.57c2.84,0.29,7.25,0.48,13.22,0.55c5.97,0.08,10.81,0.12,14.54,0.12c3.72,0,7.81-0.12,12.26-0.37
		c4.45-0.24,7.95-0.49,10.48-0.73c2.54-0.25,4.74-0.44,6.6-0.58c1.86-0.14,5.7-0.61,11.5-1.39c5.81-0.78,10.13-1.38,12.95-1.81
		c2.83-0.43,4.45-0.68,4.85-0.75"/>
</g>
<g>
	<path class="st2" d="M45.36,7.94v52.35h-10.5V38.01H12.44v22.27H1.94V7.94h10.5v21.52h22.42V7.94H45.36z"/>
	<path class="st2" d="M55.53,28.19c1.67-3.25,3.95-5.75,6.82-7.5c2.87-1.75,6.09-2.62,9.64-2.62c3.1,0,5.81,0.63,8.14,1.88
		c2.32,1.25,4.19,2.83,5.59,4.72v-5.92h10.57v41.55H85.71v-6.07c-1.35,1.95-3.21,3.56-5.59,4.84c-2.38,1.27-5.11,1.91-8.21,1.91
		c-3.5,0-6.69-0.9-9.56-2.7c-2.88-1.8-5.15-4.34-6.82-7.61c-1.68-3.27-2.51-7.04-2.51-11.29C53.01,35.16,53.85,31.44,55.53,28.19z
		 M84.21,32.95c-1-1.82-2.35-3.22-4.05-4.2c-1.7-0.98-3.52-1.46-5.48-1.46c-1.95,0-3.75,0.48-5.4,1.42
		c-1.65,0.95-2.99,2.34-4.01,4.16c-1.03,1.83-1.54,3.99-1.54,6.49c0,2.5,0.51,4.69,1.54,6.56c1.02,1.88,2.37,3.31,4.05,4.31
		c1.67,1,3.46,1.5,5.36,1.5c1.95,0,3.77-0.49,5.48-1.46c1.7-0.98,3.05-2.37,4.05-4.2c1-1.82,1.5-4.01,1.5-6.56
		S85.21,34.77,84.21,32.95z"/>
	<path class="st2" d="M117.06,4.79v55.5h-10.5V4.79H117.06z"/>
	<path class="st2" d="M146.46,27.36h-7.27v32.92h-10.65V27.36h-4.73v-8.62h4.73v-2.1c0-5.1,1.45-8.85,4.35-11.25
		c2.9-2.4,7.27-3.52,13.12-3.37v8.85c-2.55-0.05-4.32,0.38-5.32,1.27c-1,0.9-1.5,2.53-1.5,4.88v1.72h7.27V27.36z"/>
	<path class="st2" d="M185.23,29.09v8.85h-31.8v-8.85H185.23z"/>
	<path class="st2" d="M196.82,28.19c1.67-3.25,3.95-5.75,6.82-7.5c2.87-1.75,6.09-2.62,9.64-2.62c3.1,0,5.81,0.63,8.14,1.88
		c2.32,1.25,4.19,2.83,5.59,4.72v-5.92h10.57v41.55H227v-6.07c-1.35,1.95-3.21,3.56-5.59,4.84c-2.38,1.27-5.11,1.91-8.21,1.91
		c-3.5,0-6.69-0.9-9.56-2.7c-2.88-1.8-5.15-4.34-6.82-7.61c-1.68-3.27-2.51-7.04-2.51-11.29C194.3,35.16,195.14,31.44,196.82,28.19z
		 M225.5,32.95c-1-1.82-2.35-3.22-4.05-4.2c-1.7-0.98-3.52-1.46-5.48-1.46c-1.95,0-3.75,0.48-5.4,1.42
		c-1.65,0.95-2.99,2.34-4.01,4.16c-1.03,1.83-1.54,3.99-1.54,6.49c0,2.5,0.51,4.69,1.54,6.56c1.02,1.88,2.37,3.31,4.05,4.31
		c1.67,1,3.46,1.5,5.36,1.5c1.95,0,3.77-0.49,5.48-1.46c1.7-0.98,3.05-2.37,4.05-4.2c1-1.82,1.5-4.01,1.5-6.56
		S226.5,34.77,225.5,32.95z"/>
	<path class="st2" d="M279.8,29.09v8.85H248v-8.85H279.8z"/>
	<path class="st2" d="M292.51,20.2c2.33-4.07,5.5-7.25,9.52-9.52c4.02-2.27,8.54-3.41,13.54-3.41c5.85,0,10.97,1.5,15.37,4.5
		c4.4,3,7.47,7.15,9.22,12.45h-12.07c-1.2-2.5-2.89-4.37-5.06-5.62c-2.17-1.25-4.69-1.88-7.54-1.88c-3.05,0-5.76,0.71-8.14,2.14
		s-4.22,3.44-5.55,6.04c-1.33,2.6-1.99,5.65-1.99,9.15c0,3.45,0.66,6.49,1.99,9.11c1.32,2.62,3.17,4.65,5.55,6.07
		c2.38,1.43,5.09,2.14,8.14,2.14c2.85,0,5.36-0.64,7.54-1.91c2.18-1.27,3.86-3.16,5.06-5.66h12.07c-1.75,5.35-4.81,9.51-9.19,12.49
		c-4.38,2.98-9.51,4.46-15.41,4.46c-5,0-9.51-1.14-13.54-3.41c-4.03-2.27-7.2-5.44-9.52-9.49s-3.49-8.65-3.49-13.8
		C289.02,28.89,290.18,24.27,292.51,20.2z"/>
	<path class="st2" d="M388.39,18.74v41.55h-10.57v-5.25c-1.35,1.8-3.11,3.21-5.29,4.24c-2.17,1.02-4.54,1.54-7.09,1.54
		c-3.25,0-6.12-0.69-8.62-2.06c-2.5-1.37-4.46-3.4-5.89-6.07c-1.42-2.67-2.14-5.86-2.14-9.56V18.74h10.5v22.87
		c0,3.3,0.83,5.84,2.47,7.61c1.65,1.78,3.9,2.66,6.75,2.66c2.9,0,5.18-0.89,6.83-2.66c1.65-1.77,2.48-4.31,2.48-7.61V18.74H388.39z"
		/>
	<path class="st2" d="M414.83,19.97c2.37-1.27,5.09-1.91,8.14-1.91c3.55,0,6.76,0.88,9.64,2.62c2.88,1.75,5.15,4.24,6.82,7.46
		c1.67,3.23,2.51,6.96,2.51,11.21c0,4.25-0.84,8.01-2.51,11.29c-1.68,3.27-3.95,5.81-6.82,7.61s-6.09,2.7-9.64,2.7
		c-3.05,0-5.74-0.63-8.06-1.87c-2.32-1.25-4.21-2.82-5.66-4.73v25.72h-10.5V18.74h10.5v6C410.59,22.84,412.45,21.25,414.83,19.97z
		 M429.67,32.87c-1.03-1.82-2.38-3.21-4.05-4.16c-1.68-0.95-3.49-1.42-5.44-1.42c-1.9,0-3.69,0.49-5.36,1.46
		c-1.68,0.98-3.03,2.39-4.05,4.24c-1.03,1.85-1.54,4.02-1.54,6.52c0,2.5,0.51,4.68,1.54,6.52c1.03,1.85,2.38,3.26,4.05,4.24
		c1.67,0.97,3.46,1.46,5.36,1.46c1.95,0,3.76-0.5,5.44-1.5c1.67-1,3.02-2.42,4.05-4.27c1.02-1.85,1.54-4.05,1.54-6.6
		C431.21,36.86,430.7,34.7,429.67,32.87z"/>
</g>
<g>
</g>
<g>
</g>
<g>
</g>
<g>
</g>
<g>
</g>
<g>
</g>
<g>
</g>
<g>
</g>
<g>
</g>
<g>
</g>
<g>
</g>
<g>
</g>
<g>
</g>
<g>
</g>
<g>
</g>
</svg>
