<?xml version="1.0" encoding="utf-8"?>
<!-- Generator: Adobe Illustrator 22.0.1, SVG Export Plug-In . SVG Version: 6.00 Build 0)  -->
<svg version="1.1" id="Layer_1" xmlns="http://www.w3.org/2000/svg" xmlns:xlink="http://www.w3.org/1999/xlink" x="0px" y="0px"
	 viewBox="0 0 274.1 290" style="enable-background:new 0 0 274.1 290;" xml:space="preserve">
<style type="text/css">
	.st0{fill:none;stroke:#FFFFFF;stroke-width:2;stroke-linecap:round;stroke-linejoin:round;stroke-miterlimit:10;}
</style>
<g>
	<path class="st0" d="M185.4,31.3c4.5-2,7.2,1.6,10,3.6c2.7,2,4.7,5,6.6,7.8c2.2,3.2,5.1,4.2,8.8,4.4c6.4,0.4,12.6,1.9,18.9,3.4
		c4.3,1,8.6,0.9,12.2-1.8c1.7-1.3,2.4-3.4,4.8-4.5c5.7-2.5,10.8-2.2,15.9,1"/>
	<path class="st0" d="M164.8,173.4c-2.7,1.6-4.8-1.3-7.5-1c-4.3,0.5-7.3,3.6-10.7,5.3c-4.2,2.1-8.5,4.4-12.5,7
		c-4.9,3.2-7.2,7.7-4.1,12.2c2.7,3.9,0.8,6.2-0.7,8.9c-1.9,3.3-4.5,6.3-3,10.6c0.5,1.6,0,3.5-0.9,4.3c-3.8,3.4-2.6,7.2-1.2,11.1"/>
	<path class="st0" d="M193.3,112.4c0.9-0.1,2.3,0,2.5-0.5c2.3-5,8.7-8,6.4-15.4c-1.6-5.4-6.9-11.5-12.5-10.8c-4.6,0.6-8.1-1-12-3
		c-1.5-0.8-3.2-2.4-5.2-1.9c-5.8,1.5-9.7-1.2-13-6.1c4.1-2.5,8.7-3.7,13-5.2c4.1-1.5,5-2.9,4-7.5c-0.2-1.1-1.2-3.3,1.7-3.1l-0.9-4.4
		c-1.3-1.9,0.1-3.5,0.9-5.3c-3.3-3-6.3-6.1-9.6-8.8c-4.2-3.5-9.9-5.5-11.9-11.3"/>
	<path class="st0" d="M243.7,81.3c-2.4,9.3-8.4,16.6-14.1,24.1c-0.9,1.2-1.6,2.5-2.2,4c-2.4,5.6-7.4,8.8-13.6,8.8
		c-0.4,0-1.1,0.2-1.3,0c-3.6-4.5-8.9-1.8-13.2-2.9c-1.1-0.3-1.9-0.7-2.6-1.4"/>
	<path class="st0" d="M114.4,5c4.4,1,8.6,2.9,12.8,4c4.5,1.1,9.5,1.9,14.4,2.2c7.1,0.4,13.4,2.9,18.9,7.4c0.6,0.5,1.5,1.2,1.2,1.7
		c-2.2,3.8,1.2,3.9,3.1,4.9c2.4,1.2,4.8,2.3,4.9,5.7c0,3.9,3.7,4.6,6.1,5.1c4.5,0.8,9,1.8,13.6,2.4c1,0.1,2-0.3,3.1-0.4"/>
	<path class="st0" d="M156.5,27.4c0,0.3,0.1,0.8,0,0.8c-2.4,0.9-4.7,1.7-7-0.4c-3.4-3.1-7.4-5.3-11.4-7.4c-3.4-1.8-7.2-3-10.1-5.7
		l-1.4-2.5L118,5"/>
	<path class="st0" d="M127.5,232.6c-5.1-1.4-12.8,1.9-14.4,6.6c-0.6,1.7-1.9,2.4-3.1,3.5c-3,2.7-6.6,4.7-7.2,9.6
		c-0.5,4.3-5.3,4.4-8.2,5c-3.8,0.9-7.7,1.6-11.8,1.7c-2.4,0-4.6-0.1-6.6-1.5c-2.1-1.4-4.5-1.3-6.5-0.4c-3.1,1.4-5.2,0.8-7.1-1.8
		c-0.5-0.7-1.3-1.1-1.7-1.8c-2.4-4.2-5.8-4-9.7-2.6c-0.9,0.3-1.7,0.7-2.4,0.9c-1.7-0.3-2.2-1.7-2.8-2.7c-2.6-3.9-6.4-5.5-10.1-2.9
		c-3.5,2.4-6.9,2.3-10.6,1.6c-2-0.4-4.1-0.5-6.1-0.9c-5.4-1.2-8.9-7.9-6-12.6c5.7-9.4,10-20.1,18.9-27.1c5.4-4.3,10.5-8.8,15.3-13.6
		c2.2-2.2,4.5-4.4,6.1-7.1c1.9-3.2,4.4-4.8,8.3-4.5c4.4,0.3,8.2-1.1,11.5-4.6c2.8-2.9,5.5-6.2,9.9-7.3c1.2-0.3,2.8-1.7,3.6-3.3
		c0.3-0.7,0.8-1.3,1.7-1.3c5.3,0.1,7.9-4.2,11.4-7.1c0.8-0.6,1.2-1.7,2.2-2.1c5.6-2.4,9-7.4,13.6-11c1.3-1,1.4-2.5,1.3-3.9
		c-0.4-4.6,1.3-8.8,2.2-13.2c0.5-2.6,2.5-3.4,4.4-3.4c4,0.1,5.9-2.5,7.4-5.4c1.4-2.8,1.7-5.7,0.2-8.8c-0.4-0.8-0.6-2-1.1-3.1
		c2.6-3.6,7.1-4.5,10.3-7.3c1.8-1.6,3.1-0.5,4.3,2.5c1.1,2.7,3.3,2.8,5.7,2.7c2.1-0.1,4.8-0.7,4.4,3"/>
	<path class="st0" d="M47.7,277.8c-1.4-2.3-1.2-4.2,1.3-5.7c1.4-0.8,2.6-1.8,3.6-3c-0.2-2.7-3-3.3-3.1-5.3c3.1-4.9,8.3-4.1,11.4,1.8
		c0.8,1.6,1.5,3.4,3.1,4.4c1.7,1,1.9,2.1,1.4,4c-0.6,2.1-1.9,2.5-3.6,2.6c-4.3,0.1-8.2,2.6-12.7,2c-2.2-0.3-3.8,3.3-6.6,3.3"/>
	<path class="st0" d="M263.5,69.5c-1.3,1.3-2.8,0.2-3.9-0.1c-5.5-1.8-10.9,0.3-16.3,0.3c-2.3,0-4.5,2.5-6.5,4.5
		c1.4,4.1,5.9,4.2,8.3,6.6"/>
	<path class="st0" d="M170.5,105c1.8,2.4-0.8,4.1-1.8,4.2c-3,0.3-4.6,2.6-6.9,3.8c-1.7,0.9-3.1,1.7-4.9,0.7c-2-1.1-3.1-2.8-2.2-5.2"
		/>
	<path class="st0" d="M179.3,115.1c2.8,1.3,5.2,3.2,7.5,5.2c2.3,2,2.2,4,0.3,5.7c-4.6,4.2-5.5,11.1-11.6,14.4
		c-2,1.1-2.7,5.5-3.1,8.5c-0.3,2.9-1.7,3.9-4.1,4.9c-2.9,1.1-6,2-7.6,4.6c0.1,1.4-0.1,2.6,0.2,3.7c1.4,4.1,4,6.8,8.7,6.6
		c2.5-0.1,4.6,1,4.2,3.5c-0.4,2.4-2.5,3.3-5.1,2.3c-1.3-0.5-3.4,0.2-3.5-2.2"/>
	<path class="st0" d="M267,45.8c-1.3-0.6-2.6-1.2-3.5,0.5c-0.8,1.6-2.2,3.1-1,5.3c0.4,0.8,0.9,1.4,1.4,2.1c1.9,2.7,1.9,4.8-1.3,6.6
		c-3.2,1.8-5.8,4-4,8.3"/>
	<path class="st0" d="M185.8,109.4c-1.6-1.6-3.3-2.9-5.7-2.6c-0.9,0.1-1.7-0.1-2.2-0.9c-2.3-3.4-5.3-2.5-8.3-1.3"/>
	<path class="st0" d="M185.8,37.5c-0.2-1.2-0.6-2.3-0.6-3.5c-0.1-2.8-1.2-4.3-4.2-4c-0.8,0.1-1.7-0.5-2.6-0.8"/>
	<path class="st0" d="M190.7,110.7c-1.2,3.2-3-0.5-4.4,0.5c-2,1.2-3.6,2.8-4.8,4.7"/>
</g>
</svg>
