<?xml version="1.0" encoding="utf-8"?>
<!-- Generator: Adobe Illustrator 24.0.2, SVG Export Plug-In . SVG Version: 6.00 Build 0)  -->
<svg version="1.1" xmlns="http://www.w3.org/2000/svg" xmlns:xlink="http://www.w3.org/1999/xlink" x="0px" y="0px"
	 viewBox="0 0 444 89" style="enable-background:new 0 0 444 89;" xml:space="preserve">
<style type="text/css">
	.st0{display:none;}
	.st1{display:inline;}
	.st2{fill:none;stroke:#FFFFFF;stroke-width:4.4;stroke-linecap:round;stroke-linejoin:round;}
	.st3{fill:#FFFFFF;}
	.st4{fill:#FFFFFF;stroke:#FFFFFF;stroke-width:0.1;}
	.st5{fill:none;stroke:#FFFFFF;stroke-width:5;stroke-linecap:round;stroke-linejoin:round;}
	.st6{display:inline;fill:none;stroke:#FFFFFF;stroke-width:4.4;stroke-linecap:round;stroke-linejoin:round;}
</style>
<g id="knife" class="st0">
	<g class="st1">
		<path id="STROKE_e30477be-0088-4a0a-a1c8-ff523310f879" class="st2" d="M47.43,32.03l2-1c-0.19-0.11,2.67-1.75,7.91-1.92
			c5.24-0.18,10.43-0.38,15.57-0.6c5.14-0.22,9.02-0.37,11.62-0.45c2.6-0.08,6.81-0.25,12.62-0.53c5.81-0.27,10.48-0.53,14.03-0.76
			c3.55-0.23,12.83-0.69,27.84-1.37s27.76-1.19,38.23-1.51c10.47-0.32,18.17-0.55,23.1-0.69c4.93-0.14,8.42-0.23,10.48-0.26
			c2.06-0.04,4.31-0.05,6.74-0.05c2.44,0.01,6.22-0.02,11.36-0.08c5.14-0.06,14.83-0.12,29.09-0.19
			c14.26-0.06,27.23-0.04,38.92,0.07c11.69,0.11,20.57,0.25,26.67,0.43c6.09,0.17,10.75,0.25,13.98,0.24
			c3.23-0.02,10.4,0.09,21.49,0.33c11.1,0.23,24.09,0.79,38.99,1.67c-0.38-0.07-0.59-0.08-0.62-0.03c-0.27,0.03-1.49,0.29-3.64,0.79
			"/>
		<path id="STROKE_ccbbb93f-4142-4840-b8ab-d715ab5c998a" class="st2" d="M399.31,27.86c-0.05,0.02-0.23,0.15-0.54,0.39
			c-0.31,0.24-0.62,0.51-0.94,0.82c-0.32,0.3-0.6,0.58-0.83,0.84c-0.23,0.25-1.1,1.34-2.6,3.26s-3.44,4.04-5.82,6.35
			c-2.38,2.31-4.34,4.04-5.87,5.19c-1.53,1.15-2.74,2.01-3.62,2.58c-0.89,0.57-2.3,1.36-4.23,2.38c-1.93,1.02-3.53,1.85-4.79,2.5
			c-1.26,0.64-3.24,1.59-5.95,2.83c-2.71,1.25-5.16,2.33-7.35,3.25c-2.19,0.92-4.72,1.88-7.6,2.87c-2.88,0.99-6.45,2.07-10.72,3.24
			c-4.27,1.17-9.04,2.43-14.34,3.79c-5.29,1.36-10.01,2.61-14.17,3.75c-4.15,1.14-7.92,2.04-11.28,2.71
			c-3.37,0.67-5.85,1.12-7.46,1.36c-1.61,0.24-2.87,0.42-3.77,0.55c-0.91,0.12-4.31,0.48-10.22,1.07
			c-5.9,0.59-10.48,0.99-13.73,1.19c-3.25,0.2-6.16,0.35-8.73,0.44c-2.57,0.09-4.72,0.16-6.45,0.21c-1.73,0.05-2.81,0.09-3.25,0.11
			c-0.44,0.02-2.94,0.01-7.49-0.03c-4.56-0.04-8.37-0.13-11.43-0.25s-7.2-0.35-12.41-0.68c-5.21-0.32-9.66-0.58-13.34-0.78
			c-3.68-0.2-6.57-0.31-8.68-0.34c-2.11-0.03-3.88-0.03-5.33,0c-1.45,0.03-2.44,0.05-2.96,0.07"/>
		<path id="STROKE_a0265fb3-8c7a-47d0-8784-6aadb4664093_1_" class="st2" d="M176.52,23.86c-0.2,0-0.47-0.03-0.82-0.09
			c-0.35,0.06-0.33,2.68,0.06,7.85c0.39,5.17,0.93,9.82,1.64,13.94c0.7,4.12,1.28,7.29,1.75,9.5c0.46,2.21,0.93,4.6,1.41,7.17
			c0.48,2.57,0.83,4.84,1.07,6.81c0.23,1.97,0.05,5.72-0.18,7.99"/>
		<path id="STROKE_93562c9a-0818-4298-85ee-2ddb8651ceac_2_" class="st2" d="M43.98,32.66c-0.61,0.19-1.15,0.39-1.61,0.6
			c-0.46,0.21-0.79,0.36-0.98,0.46c-0.19,0.1-0.54,0.33-1.06,0.69c-0.52,0.36-0.97,0.7-1.37,1.02c-0.39,0.33-0.91,0.8-1.55,1.41
			c-0.64,0.61-1.14,1.13-1.5,1.55c-0.36,0.42-0.61,0.7-0.75,0.86c-0.14,0.15-0.71,0.97-1.7,2.45c-1,1.48-1.67,2.54-2.02,3.19
			c-0.35,0.65-0.65,1.71-0.92,3.19c-0.26,1.48-0.25,2.86,0.03,4.14c0.28,1.28,0.53,2.13,0.74,2.56c0.21,0.42,0.4,0.76,0.58,1.03
			c0.17,0.27,0.48,0.74,0.94,1.41c0.46,0.67,1.58,1.67,3.37,2.99c1.79,1.32,3.6,2.24,5.42,2.76c1.82,0.51,3.59,0.93,5.3,1.26
			c1.71,0.32,4.72,0.53,9.04,0.61c4.31,0.08,9.39,0.09,15.22,0.01c5.84-0.08,10.36-0.25,13.56-0.51c3.2-0.26,6.45-0.58,9.73-0.94
			c3.28-0.36,7.98-0.83,14.09-1.4c6.11-0.57,11.23-1.01,15.37-1.31c4.14-0.3,7.88-0.58,11.23-0.85c3.35-0.27,6.14-0.47,8.37-0.6
			c2.23-0.13,14.04-0.66,35.43-1.58"/>
		<path id="STROKE_93562c9a-0818-4298-85ee-2ddb8651ceac_1_" class="st2" d="M56.36,32.88"/>
		
			<ellipse id="STROKE_b02ae0f9-8866-4be3-a4ce-9b8a55c6c7d6" transform="matrix(0.0875 -0.9962 0.9962 0.0875 23.4933 116.8424)" class="st3" cx="75.53" cy="45.6" rx="3.52" ry="3.52"/>
		
			<ellipse id="STROKE_3b6ade61-a4d4-49b3-bc53-091503c4196b" transform="matrix(0.0875 -0.9962 0.9962 0.0875 70.7252 160.7498)" class="st3" cx="123.11" cy="41.77" rx="3.52" ry="3.52"/>
		<path id="STROKE_2901fef9-fc4f-4610-aca2-4725b3ebcfc3" class="st2" d="M195.97,64.31c-0.19-0.04-0.23-0.05-0.13-0.04
			c0.18,0.09,1.69,0.28,4.54,0.57c2.84,0.29,7.25,0.48,13.22,0.55c5.97,0.08,10.81,0.12,14.54,0.12c3.72,0,7.81-0.12,12.26-0.37
			c4.45-0.24,7.95-0.49,10.48-0.73c2.54-0.25,4.74-0.44,6.6-0.58c1.86-0.14,5.7-0.61,11.5-1.39c5.81-0.78,10.13-1.38,12.95-1.81
			c2.83-0.43,4.45-0.68,4.85-0.75"/>
	</g>
</g>
<g id="tongs" class="st0">
	<g class="st1">
		<path id="STROKE_eb1d6016-8d46-4893-84ea-72d3e29a9bae" class="st2" d="M76.12,45.9l-1.77-0.93c-1-0.43-1.67-0.7-2.02-0.8
			c-0.35-0.1-1.3-0.3-2.85-0.6c-0.11,0.1,2.2,0.15,6.92,0.16c4.72,0.01,9.17-0.11,13.36-0.35c4.19-0.25,13.89-0.82,29.1-1.71
			c15.21-0.89,27.05-1.62,35.53-2.18c8.48-0.56,19.25-1.21,32.3-1.96c13.05-0.75,23.47-1.27,31.26-1.55
			c7.78-0.29,13.85-0.5,18.19-0.63c4.34-0.13,10.03-0.33,17.06-0.61c7.03-0.27,12.61-0.52,16.73-0.74c4.13-0.22,7.48-0.42,10.06-0.6
			c2.58-0.18,4.2-0.33,4.84-0.42c0.65-0.1,0.24-0.25-1.22-0.46c-1.46-0.21-2.7-0.36-3.71-0.45"/>
		<path id="STROKE_445d5c06-1cd8-4297-ba3a-107cde439954" class="st2" d="M66.52,26.57c0.11,0.05,0.5-0.12,1.15-0.52
			c0.12-0.03,0.67,3.14,1.63,9.54c0.96,6.4,1.51,9.98,1.65,10.76"/>
		<path id="STROKE_5dd87cc0-fcbd-4b97-8976-21e52f7d0a05" class="st2" d="M68.72,28.09c1.01-0.35,2.16-0.68,3.46-0.98
			c1.3-0.3,2.8-0.55,4.52-0.76c1.71-0.2,5.62-0.47,11.72-0.8c6.1-0.33,11.81-0.54,17.11-0.62c5.31-0.08,15.12-0.35,29.43-0.82
			c14.31-0.47,25.87-0.8,34.66-0.98c8.79-0.18,18.73-0.57,29.82-1.16c11.09-0.59,20.51-1.35,28.27-2.29
			c7.76-0.93,13.7-1.72,17.82-2.35c4.12-0.63,8.84-1.13,14.15-1.49c5.31-0.36,14.59-1.55,15.27-1.54"/>
		<path id="STROKE_e47412c5-6185-427c-98e4-0abe570daeb1" class="st2" d="M75.58,58.5c-0.37,0.23-0.6,0.42-0.68,0.57
			c-0.16,0.11,3.44,0.59,10.79,1.44c7.36,0.85,15.02,1.65,22.99,2.39c7.97,0.74,17.04,1.31,27.22,1.69
			c10.17,0.38,18.95,0.5,26.33,0.35c7.38-0.15,14.54-0.48,21.49-0.98c6.95-0.51,58.4-1.5,102.7-2.84
			c-0.03-0.01,2.93-1.79-26.37,0.08c-0.34,0.02-0.84,0.07-1.52,0.13"/>
		<path id="STROKE_837eed2e-3037-4652-a0ba-1919f5a7afb0" class="st2" d="M67.77,61.28c0.37-0.14,0.63-0.27,0.78-0.37
			c0.15-0.11,0.47-0.23,0.94-0.38c0.47-0.15,0.78-0.22,0.9-0.22c0.13,0,0.22,0,0.26-0.01c0.04-0.01,0.19,0.24,0.45,0.74
			c0.26,0.5-0.13,4.7-1.17,12.61c-0.31,0.63,2.82,1.25,9.37,1.87c6.55,0.62,12.31,1,17.28,1.15c4.97,0.15,8.55,0.23,10.75,0.25
			c2.2,0.02,16.89,0.59,44.07,1.7c27.18,1.11,48.12,1.98,62.81,2.59c14.69,0.61,25.08,1,31.18,1.19c6.1,0.18,10.54,0.31,13.34,0.38
			c2.79,0.07,6.07-0.09,9.84-0.46l0.19-0.55"/>
		<path id="STROKE_4b31eccc-25a7-4d77-bb67-1f1a62e41c51" class="st2" d="M288.95,62.51c0.3,0.29,0.06,2.91-0.73,7.86
			c-0.79,4.95-1.26,7.66-1.42,8.14"/>
		<path id="STROKE_6f1d7433-d4a2-4f94-b7f7-892772cf77c3_2_" class="st2" d="M369.21,11.22"/>
		<path id="STROKE_6f1d7433-d4a2-4f94-b7f7-892772cf77c3_1_" class="st2" d="M274.26,14.85l0.75-0.59
			c0.04-0.01,4.63-0.14,13.79-0.39c9.16-0.25,17.18-0.64,24.08-1.16c6.89-0.52,14.25-1.07,22.06-1.66
			c7.81-0.59,14.39-0.91,19.74-0.96"/>
		<path id="STROKE_a46564b9-7f2f-4580-a62b-7f07ce2133ec" class="st2" d="M350.65,9.22c0.23,0,0.65-0.06,1.24-0.19
			c0.59-0.12,1.09-0.26,1.51-0.42c0.41-0.16,0.64-0.23,0.69-0.23c0.05,0,0.45-0.15,1.21-0.46c0.76-0.31,2.87-1.01,6.33-2.08
			c3.46-1.08,8.26-1.11,14.38-0.1c0.28,0.78,0.41,1.25,0.4,1.41c-0.01,0.17-0.04,0.46-0.07,0.87c-0.03,0.42-0.49,1.36-1.37,2.81
			c0,0.07,1.28-0.21,3.85-0.83c2.57-0.62,5.37-0.73,8.39-0.33c0.3,0.45,0.57,1.01,0.81,1.67c0.24,0.66,0.47,1.36,0.68,2.11
			c0.21,0.75,0.43,1.43,0.66,2.06c0.23,0.62,0.69,1.83,1.37,3.63"/>
		<path id="STROKE_6216caad-9451-4cba-9bdd-053db994c673" class="st2" d="M271.37,81.07c1.22-1.58,5.55-2.18,12.99-1.81
			c7.44,0.37,14.14,0.79,20.1,1.25c5.96,0.46,10.67,0.67,14.11,0.64c3.44-0.03,6.16-0.21,8.15-0.52c1.99-0.31,3.79-0.62,5.37-0.93
			c1.59-0.31,2.83-0.49,3.72-0.54c0.89-0.05,1.7-0.05,2.4,0.01"/>
		<path id="STROKE_b1dd1054-9e8a-4bf6-9c0f-52dd6138c39f" class="st2" d="M340.77,79.51l0.49-1.82c0.92,0.21,1.38,0.32,1.39,0.35
			c0.01,0.03,0.61,0.49,1.81,1.4c1.19,0.91,2.23,1.55,3.1,1.91c0.88,0.37,1.65,0.57,2.31,0.62c0.66,0.05,1.2,0.07,1.61,0.07
			c0.41,0,0.88-0.07,1.42-0.21c0.54-0.14,1.4-0.54,2.6-1.23c1.2-0.68,3.14-2.02,5.84-4.03c0.03-0.07,0.35,0.23,0.98,0.92
			c0.62,0.69,1.24,1.32,1.84,1.9c0.61,0.58,1.18,1.01,1.73,1.3c0.55,0.29,0.86,0.44,0.93,0.47c0.08,0.03,0.62,0.13,1.63,0.29
			c1.01,0.17,2.12,0.14,3.34-0.1c1.22-0.23,2.5-0.62,3.83-1.16c1.33-0.54,2.36-0.95,3.09-1.23c0.73-0.28,1.57-0.66,2.53-1.13
			c0.96-0.47,1.87-0.97,2.74-1.48c0.86-0.51,1.73-1.07,2.59-1.67c0.86-0.6,1.64-1.16,2.35-1.68"/>
		<path id="STROKE_4d56fba5-190b-4863-a211-3794af5a3001" class="st2" d="M68.92,36.79c0.15,0.03,0.55-0.17,1.21-0.61l-0.37-0.1
			c0.06-0.1-0.62,0.16-2.03,0.8c-1.41,0.63-2.64,1.36-3.67,2.17c-1.04,0.81-1.82,1.48-2.34,2.01c-0.52,0.52-1.11,1.04-1.78,1.55
			c-0.67,0.51-1.2,0.85-1.58,1.02c-0.39,0.17-0.64,0.31-0.75,0.42c-0.11,0.11-1.71,0.09-4.8-0.05c-3.09-0.14-5.68-0.27-7.76-0.39
			c-2.08-0.12-3.42-0.09-4.03,0.1c-0.61,0.19-1.07,0.34-1.4,0.48c-0.32,0.13-0.82,0.44-1.48,0.91c-0.66,0.47-1.12,0.83-1.36,1.08
			c-0.24,0.25-0.56,0.79-0.96,1.62c-0.4,0.83-0.65,1.44-0.76,1.81c-0.11,0.37,0.13,1.22,0.73,2.55s1.23,2.35,1.89,3.07
			c0.66,0.72,1.31,1.41,1.96,2.07c0.65,0.67,1.57,1.48,2.75,2.44c1.19,0.96,2.01,1.6,2.47,1.93c0.46,0.33,1.57,0.9,3.34,1.72
			c1.77,0.82,3.71,1.32,5.8,1.51c2.1,0.19,4.03-0.16,5.81-1.04c1.77-0.88,3-1.55,3.68-2"/>
		<path id="STROKE_a76ec129-e524-486f-9512-b09951882f90" class="st2" d="M287.21,20.11c-0.02-0.08,0.19-1.28,0.64-3.6
			c-0.05,0.05,0.08,2.81,0.39,8.27c0.3,5.46,0.54,8.64,0.72,9.53"/>
	</g>
</g>
<g id="spatula" class="st0">
	<g class="st1">
		<path id="STROKE_94d60489-2852-479a-a2cb-44fceacdbaa3_1_" class="st2" d="M53.34,26.7c-0.37,0.26-0.75,0.47-1.12,0.62
			c-0.38,0.15-0.89,0.33-1.52,0.53c-0.64,0.2-1.01,0.32-1.1,0.38c-0.09,0.06-0.14,0.13-0.12,0.21c0.26,0.16,8.97,0.25,26.16,0.27
			c17.19,0.02,30.59,0.03,40.2,0.04c9.62,0.01,17.92,0.05,24.92,0.14c6.99,0.09,18.46,0.36,34.4,0.83
			c15.94,0.47,20.62-0.59,30.36-0.28c9.74,0.31,21,0,26,0"/>
		<path id="STROKE_424e157d-5a4e-4171-8c0b-e89c0a587434" class="st2" d="M53.42,52.94l-0.37-0.01c0.35-0.02,3.65,0.12,9.9,0.41
			c6.25,0.29,16.19,0.5,29.81,0.62c13.62,0.12,25.89,0.27,36.82,0.46c10.93,0.18,19.27,0.34,25.01,0.46
			c5.74,0.13,10.09,0.19,13.04,0.19c2.95,0,6.13,0.01,9.53,0.04c3.41,0.03,9.57,0.05,18.5,0.04s16.74,0.04,23.43,0.13
			c6.69,0.09,12.41-0.85,20.41,0.15c7,1,21.72,6.06,22,6"/>
		<path id="STROKE_b4a81a9e-20ea-40df-a44e-212fa80a330b_3_" class="st2" d="M387.5,22.44c0,2,0.63,8.28,0.65,9.15
			c0.02,0.86,0.35,1.85,0.35,4.85c-0.16,2.22,0.15,4.64,0.05,7.74c-0.1,3.1-0.15,5.37-0.15,6.82c0,1.45,0.01,2.8,0.01,4.05
			c0,1.25,0,2.27,0,3.05c0,0.78-0.01,1.45-0.02,2.02c-0.02,0.57-0.04,1.05-0.06,1.46c-0.03,0.41-0.06,0.82-0.1,1.24
			c-0.04,0.42-0.08,0.79-0.1,1.09c-0.03,0.3-0.06,0.62-0.11,0.96c-0.05,0.34-0.16,0.88-0.34,1.64c-0.18,0.75-0.33,1.36-0.47,1.83
			c-0.13,0.47-0.31,0.93-0.52,1.39c-0.22,0.45-0.5,0.98-0.85,1.57c-0.35,0.6-0.7,1.13-1.04,1.61c-0.34,0.48-0.53,0.75-0.57,0.81
			c-0.04,0.06-0.25,0.49-0.61,1.29c-0.37,0.8-0.68,1.48-0.94,2.03s-0.59,1.09-0.97,1.61c-0.38,0.52-0.76,0.95-1.12,1.29
			c-0.37,0.34-0.76,0.63-1.17,0.88c-0.41,0.25-0.78,0.44-1.09,0.57c-0.31,0.13-0.48,0.21-0.51,0.25c-0.03,0.04-4.38,0.34-7.03,0.91
			c-2.66,0.57-5.12,1.04-7.39,1.41c-2.27,0.37-4.27,0.7-5.99,0.97c-1.72,0.28-3.03,0.47-3.93,0.59c-0.9,0.12-1.59,0.21-2.08,0.26
			s-0.81,0.09-0.95,0.11c-0.15,0.02-1.04,0.09-2.67,0.21c-1.63,0.11-2.96,0.19-4,0.22c-1.04,0.03-1.73,0.05-2.08,0.07
			c-0.35,0.01-1.53,0.02-3.54,0.03c-2.01,0.01-3.04,0.01-3.09,0.01c-0.05,0-0.58,0-1.58,0.01c-1,0.01-2.31,0.01-3.94-0.01
			c-1.63-0.01-2.93-0.06-3.9-0.13c-0.98-0.08-2.07-0.19-3.27-0.35c-1.2-0.15-2.37-0.33-3.51-0.52c-1.14-0.19-2.32-0.41-3.54-0.66
			c-1.22-0.25-2.42-0.52-3.6-0.8c-1.18-0.28-3.13-0.81-5.88-1.58c-2.74-0.77-4.92-1.44-6.54-2c-1.61-0.56-2.86-1.02-3.72-1.37
			c-0.87-0.35-1.54-0.64-2.01-0.86c-0.48-0.22-0.99-0.46-1.56-0.72c-0.56-0.26-1.16-0.56-1.79-0.89c-0.63-0.34-1.33-0.75-2.11-1.25
			c-0.78-0.5-1.59-1.04-2.44-1.63c-0.85-0.59-1.51-1.06-1.97-1.4c-0.46-0.34-1.11-0.81-1.97-1.41c-0.85-0.6-1.52-1.04-1.99-1.32
			c-0.48-0.29-0.93-0.54-1.36-0.76c-0.43-0.22-1.07-0.55-1.92-1c-0.85-0.44-11.2-5.26-14.95-6.32"/>
		<path id="STROKE_b4a81a9e-20ea-40df-a44e-212fa80a330b_2_" class="st2" d="M231.47,29.43c0.08-0.04,0.4-0.09,0.95-0.15
			c0.55-0.06,3.15-0.11,7.79-0.14c4.64-0.03,8.63-0.07,11.95-0.11c3.33-0.04,7.12-0.54,11.39-1.5c4.27-0.96,7.81-1.99,10.63-3.1
			c2.82-1.11,5.57-2.39,8.23-3.85c2.66-1.46,4.87-2.59,6.64-3.4c1.76-0.81,3.71-1.64,5.85-2.49c2.14-0.85,4.86-1.9,8.19-3.15
			c3.32-1.25,7.26-2.46,11.82-3.62c4.56-1.16,8.4-1.95,11.51-2.39c3.11-0.43,5.83-0.73,8.15-0.88c2.32-0.16,4.14-0.26,5.44-0.3
			c1.3-0.05,2.57-0.09,3.8-0.11c1.23-0.03,1.96-0.04,2.18-0.04c0.22,0,2.61-0.06,7.17-0.19c4.56-0.13,7.97-0.25,10.24-0.37
			c2.27-0.12,3.86-0.16,4.77-0.12c0.91,0.04,1.73,0.12,2.46,0.22c0.73,0.11,1.41,0.23,2.03,0.37c0.62,0.14,1.16,0.27,1.62,0.41
			c0.46,0.13,0.71,0.21,0.75,0.23c0.04,0.02,0.53,0.19,1.48,0.53c0.95,0.33,2.03,0.76,3.24,1.27c1.21,0.51,2.5,1.62,3.89,3.31
			c1.38,1.69,2.27,3.01,2.67,3.95c0.4,0.94,0.66,1.67,0.8,2.19c0.14,0.52,0.22,0.95,0.27,1.28c0.05,0.34,0.09,0.95,0.12,1.84
			c0.03,0.89,0.03,1.63-0.01,2.23"/>
		<path id="STROKE_6f31d099-58de-48d0-befa-fdb2f848a1e4" class="st2" d="M313.41,23.37c0.13-0.01,1.55,0.07,4.28,0.23
			c2.73,0.16,5.91,0.18,9.55,0.06c3.64-0.12,6.72-0.2,9.25-0.22c2.52-0.02,5.34,0.12,8.44,0.41c3.1,0.3,5.87,0.58,8.32,0.84
			c2.44,0.26,4.35,0.45,5.72,0.57c1.37,0.12,2.65,0.17,3.86,0.15l0.11-0.01"/>
		<path id="STROKE_861d47fd-c411-4c1e-9408-05fa9c167238" class="st2" d="M305.43,44.78l0.04-0.29c0.14-0.34,1.8-0.5,4.98-0.48
			c3.18,0.02,7.52-0.02,13.03-0.12c5.51-0.1,9.75-0.21,12.73-0.35c2.98-0.14,5.15-0.24,6.51-0.32c1.37-0.07,3.47-0.2,6.31-0.37
			c2.84-0.17,5.37-0.23,7.58-0.18c2.21,0.05,3.4,0.09,3.56,0.11"/>
		<path id="STROKE_bce3cce8-fdb5-4fdb-aad3-f4af71b17970" class="st2" d="M310.5,63.18l0.21-0.14c0.22-0.07,1.67,0.01,4.35,0.23
			c2.67,0.22,5.39,0.41,8.15,0.56c2.76,0.15,4.82,0.26,6.18,0.31c1.37,0.06,3.15,0.13,5.36,0.22c2.21,0.09,4.1,0.15,5.66,0.19
			c1.57,0.04,3.01,0.06,4.33,0.05c1.31-0.01,3.14,0,5.48,0.01c2.34,0.02,4.81,0.05,7.4,0.11l0.27,0.12"/>
		<path id="STROKE_4535ccc2-eb6b-47fe-9fe9-0e35161f2090" class="st2" d="M49.45,27.29l-0.74-0.57l-1.52-1.17
			c-1.05-0.61-1.76-0.99-2.13-1.13c-0.37-0.14-0.61-0.25-0.73-0.31c-0.11-0.07-0.68-0.16-1.7-0.28c-1.02-0.12-1.99-0.13-2.91-0.02
			c-0.92,0.11-1.88,0.41-2.88,0.92c-1,0.51-1.69,0.89-2.06,1.17c-0.38,0.27-0.78,0.61-1.21,1.02c-0.43,0.41-0.76,0.75-0.98,1.01
			c-0.22,0.27-0.34,0.41-0.34,0.42c0,0.01-0.19,0.4-0.56,1.15c-0.37,0.76-0.7,2.67-0.98,5.73c-0.29,3.07-0.3,5.65-0.06,7.75
			c0.25,2.1,0.61,3.67,1.09,4.7c0.48,1.04,0.95,1.95,1.39,2.74c0.45,0.79,0.86,1.46,1.23,2.01c0.37,0.55,0.77,0.99,1.19,1.34
			c0.42,0.35,0.75,0.6,0.98,0.75c0.23,0.15,0.82,0.36,1.77,0.63c0.95,0.27,1.44,0.4,1.48,0.4c0.04-0.01,0.72-0.01,2.04-0.01
			c1.33,0,2.93-0.22,4.81-0.65c1.88-0.43,3.2-0.81,3.95-1.14c0.75-0.33,1.45-0.66,2.08-0.98"/>
		<ellipse id="STROKE_2d074046-7e91-4452-8641-661322b94a52" class="st4" cx="43.45" cy="39.71" rx="4.05" ry="3.96"/>
	</g>
</g>
<g id="rolling_x5F_pin" class="st0">
	<g class="st1">
		<path id="STROKE_04c737f0-1baa-43c6-8b36-498e418caf62" class="st5" d="M102.45,14.35l221.3-2.89"/>
		<path id="STROKE_b6586776-68d5-4304-bf71-e5712ced154f" class="st5" d="M104.95,78.21l216.31-6.25"/>
		<path id="STROKE_f08f438f-8e83-4bf6-a8dd-8d710698231d" class="st5" d="M99.75,13.84l1.15,64.7"/>
		<path id="STROKE_eaff7b26-fc4c-4518-b489-268c77a48c03" class="st5" d="M325.24,12.28l-0.98,59.12"/>
		<path id="STROKE_725adfbf-bf25-4a82-b100-a7e488b60c8b" class="st2" d="M98.99,34.69l-0.11-0.29c0-0.04-0.1-0.06-0.3-0.04
			c-0.2,0.01-0.54,0.12-1.01,0.33c-0.47,0.2-0.94,0.4-1.42,0.6c-0.48,0.2-0.8,0.33-0.96,0.38c-0.16,0.05-0.38,0.12-0.64,0.2
			c-0.27,0.08-0.67,0.17-1.22,0.29c-0.55,0.11-1.56,0.24-3.05,0.39c-1.49,0.14-2.62,0.25-3.41,0.33c-0.79,0.08-2.21,0.12-4.28,0.12
			c-2.07,0-3.91-0.11-5.54-0.32c-1.62-0.21-3.05-0.5-4.29-0.87c-1.24-0.37-3.14-0.83-5.69-1.39c-2.56-0.56-5.08-1.2-7.56-1.9
			c-2.49-0.71-4.42-1.24-5.79-1.59c-1.37-0.35-2.39-0.59-3.06-0.72c-0.67-0.12-1.92-0.36-3.77-0.7c-1.85-0.34-3.92-0.61-6.22-0.81
			c-2.3-0.2-4.39-0.25-6.27-0.15c-1.88,0.1-3.42,0.25-4.62,0.46c-1.2,0.21-2.3,0.5-3.3,0.89c-1,0.39-1.79,0.76-2.37,1.13
			c-0.58,0.37-1.18,0.99-1.79,1.88c-0.61,0.89-1.11,1.65-1.5,2.27c-0.38,0.62-0.83,1.46-1.34,2.52c-0.51,1.06-0.85,1.91-1.04,2.55
			c-0.19,0.64-0.31,1.12-0.37,1.42c-0.06,0.31-0.11,0.58-0.15,0.8c-0.04,0.23-0.09,0.79-0.15,1.7c-0.06,0.91,0.02,1.73,0.23,2.48
			c0.21,0.75,0.44,1.36,0.68,1.85c0.24,0.48,0.57,1.04,0.99,1.68c0.42,0.64,0.75,1.14,0.99,1.49c0.24,0.36,0.56,0.84,0.97,1.44
			c0.41,0.6,0.83,1.18,1.25,1.72c0.42,0.54,1.12,1.24,2.08,2.11c0.96,0.86,2.23,1.73,3.81,2.58c1.58,0.86,2.78,1.46,3.58,1.8
			c0.81,0.34,1.86,0.71,3.17,1.09c1.31,0.38,2.62,0.64,3.94,0.77c1.32,0.14,2.49,0.16,3.5,0.06c1.01-0.09,2-0.21,2.97-0.36
			c0.97-0.15,1.58-0.25,1.84-0.29c0.26-0.04,0.67-0.11,1.23-0.21c0.56-0.1,1.21-0.22,1.95-0.36c0.74-0.14,1.46-0.28,2.16-0.42
			c0.69-0.14,1.23-0.25,1.61-0.33c0.38-0.08,1.07-0.25,2.06-0.49c0.99-0.24,3.12-0.73,6.37-1.45c3.25-0.72,5.26-1.16,6.01-1.33
			c0.76-0.17,1.76-0.33,3.01-0.48c1.25-0.15,2.57-0.23,3.98-0.24c1.4-0.01,2.93-0.06,4.58-0.15c1.65-0.1,3.09-0.18,4.32-0.25
			c1.23-0.07,2.12-0.11,2.67-0.12c0.55-0.01,1.08,0,1.59,0.03c0.51,0.03,1.01,0.05,1.49,0.08c0.48,0.03,2.88,0.16,7.21,0.4
			l0.26-0.03"/>
		<path id="STROKE_725adfbf-bf25-4a82-b100-a7e488b60c8b_1_" class="st2" d="M324.27,30.74l0.1-0.31c0-0.05,0.1-0.06,0.3-0.05
			c0.2,0.01,0.54,0.12,1.01,0.33c0.47,0.21,0.95,0.41,1.43,0.62c0.48,0.2,0.8,0.33,0.97,0.39c0.16,0.06,0.38,0.12,0.64,0.2
			c0.27,0.08,0.67,0.17,1.22,0.29c0.55,0.12,1.57,0.24,3.06,0.38c1.49,0.14,2.63,0.24,3.42,0.32c0.79,0.08,2.22,0.11,4.28,0.09
			c2.07-0.02,3.91-0.15,5.53-0.39c1.62-0.24,3.05-0.55,4.28-0.95c1.23-0.39,3.12-0.9,5.67-1.5c2.55-0.61,5.06-1.29,7.54-2.05
			c2.48-0.76,4.4-1.33,5.77-1.72c1.37-0.38,2.38-0.64,3.05-0.78c0.66-0.14,1.92-0.39,3.76-0.77c1.84-0.37,3.91-0.68,6.21-0.9
			c2.3-0.23,4.39-0.3,6.27-0.21c1.88,0.09,3.42,0.23,4.62,0.44c1.2,0.21,2.31,0.51,3.31,0.91c1.01,0.4,1.8,0.79,2.39,1.16
			c0.59,0.38,1.19,1.03,1.82,1.96c0.63,0.93,1.14,1.72,1.53,2.36c0.39,0.65,0.85,1.52,1.37,2.63c0.52,1.1,0.88,1.99,1.08,2.66
			c0.2,0.67,0.33,1.17,0.39,1.49c0.06,0.32,0.12,0.6,0.16,0.84s0.1,0.83,0.17,1.78c0.07,0.95,0.01,1.82-0.2,2.6
			c-0.2,0.78-0.42,1.43-0.65,1.94c-0.23,0.51-0.56,1.1-0.97,1.77c-0.41,0.67-0.73,1.2-0.97,1.57c-0.23,0.38-0.55,0.88-0.95,1.52
			c-0.4,0.64-0.81,1.24-1.22,1.81c-0.42,0.57-1.1,1.31-2.05,2.23c-0.95,0.91-2.21,1.83-3.77,2.74c-1.57,0.91-2.75,1.55-3.56,1.92
			c-0.8,0.37-1.85,0.76-3.16,1.17c-1.3,0.41-2.61,0.69-3.93,0.84c-1.32,0.15-2.48,0.18-3.5,0.09c-1.01-0.09-2.01-0.21-2.97-0.36
			c-0.97-0.15-1.58-0.25-1.85-0.29c-0.26-0.04-0.68-0.11-1.23-0.21c-0.56-0.1-1.21-0.22-1.96-0.36c-0.75-0.14-1.47-0.28-2.16-0.42
			c-0.7-0.14-1.23-0.25-1.62-0.34c-0.38-0.09-1.07-0.25-2.07-0.5c-1-0.25-3.13-0.74-6.39-1.46c-3.26-0.73-5.28-1.18-6.03-1.35
			c-0.76-0.17-1.76-0.33-3.01-0.48c-1.25-0.15-2.58-0.22-3.98-0.21c-1.4,0-2.93-0.04-4.58-0.12c-1.65-0.09-3.1-0.16-4.33-0.23
			c-1.23-0.06-2.12-0.1-2.67-0.1c-0.55,0-1.08,0.01-1.59,0.04c-0.51,0.03-1.01,0.07-1.48,0.1c-0.48,0.03-2.88,0.19-7.21,0.48
			l-0.26-0.03"/>
	</g>
</g>
<g id="bread_x5F_knife" class="st0">
	<g class="st1">
		<path id="STROKE_dde76422-3515-4935-bf36-6cab4b5f734f_1_" class="st2" d="M173.23,18.22c0.06-0.36,4.01-0.47,4.03-0.56
			c0.02-0.09,2.33-0.13,6.95-0.11c4.61,0.01,8.69,0.04,12.24,0.08c3.55,0.04,6.29,0.06,8.23,0.06c1.94,0,3.94-0.01,6.01-0.04
			c2.07-0.03,5.75-0.12,11.05-0.27c5.3-0.15,9.52-0.23,12.67-0.27c3.15-0.03,6.07-0.05,8.76-0.06c2.69-0.01,6.82-0.1,12.37-0.28
			c5.55-0.18,10.38-0.35,14.47-0.51c4.09-0.16,7.86-0.26,11.31-0.32c3.45-0.05,6.59-0.09,9.42-0.1c2.82-0.01,5.9-0.08,9.22-0.21
			c3.32-0.13,7.78-0.29,13.39-0.5c5.61-0.2,10.22-0.23,13.85-0.08c3.63,0.15,9.82,0.46,18.59,0.94c8.77,0.48,19.02,0.58,30.76,0.3"
			/>
		<path id="STROKE_3dee59c5-64be-4569-87ed-9af3fc359638_1_" class="st2" d="M167.22,54.89c0.81,0.2,2.11,0.31,3.91,0.35
			c1.8,0.03,3.81-0.23,6.02-0.8c2.22-0.57,4.14-0.67,5.76-0.29c0.18,0.21,0.41,1,0.69,2.36c0.28,1.37,0.54,2.5,0.78,3.41
			c0.24,0.91,0.5,1.53,0.77,1.88c0.27,0.35,0.46,0.54,0.57,0.58c0.11,0.04,0.26,0.08,0.44,0.12c0.18,0.04,0.85-0.26,1.99-0.92
			c1.14-0.66,2.42-1.49,3.85-2.51c1.42-1.02,2.54-1.67,3.35-1.97c0.81-0.29,1.36-0.41,1.65-0.36c0.29,0.05,0.57,0.15,0.84,0.31
			c0.27,0.15,0.46,0.32,0.58,0.49c0.12,0.18,0.35,0.67,0.7,1.48c0.35,0.81,0.69,1.44,1.03,1.9c0.34,0.45,0.74,0.74,1.19,0.86
			c0.45,0.12,0.9,0.14,1.36,0.08c0.46-0.06,0.89-0.16,1.31-0.29c0.42-0.14,0.87-0.32,1.37-0.57c0.5-0.24,1.43-0.71,2.78-1.4
			c1.35-0.69,2.48-1.21,3.39-1.56c0.9-0.35,1.68-0.52,2.35-0.52c0.66,0,1.23,0.12,1.69,0.36c0.47,0.23,0.82,0.47,1.05,0.71
			c0.23,0.24,0.48,0.55,0.74,0.93c0.26,0.38,0.66,0.9,1.19,1.55c0.53,0.65,0.94,1.11,1.25,1.37c0.31,0.26,0.77,0.47,1.38,0.64
			c0.62,0.17,1.21,0.14,1.79-0.07c0.58-0.22,1.21-0.53,1.89-0.94c0.68-0.41,1.1-0.67,1.24-0.77c0.14-0.11,0.83-0.6,2.09-1.47
			c1.25-0.87,2.3-1.52,3.13-1.94c0.84-0.42,1.66-0.66,2.47-0.72c0.81-0.06,1.42,0.49,1.84,1.63c0.42,1.14,0.78,2.12,1.08,2.93
			c0.3,0.81,0.63,1.4,0.99,1.79c0.35,0.39,0.89,0.6,1.6,0.64c0.71,0.04,1.79-0.37,3.24-1.21c1.45-0.85,2.67-1.59,3.68-2.22
			c1.01-0.63,1.83-1.1,2.46-1.4c0.64-0.3,1.23-0.5,1.79-0.6c0.55-0.1,1.15-0.11,1.78-0.02c0.63,0.09,1.7,0.87,3.21,2.35
			c1.51,1.48,2.59,2.39,3.23,2.74c0.64,0.35,1.01,0.54,1.11,0.57c0.1,0.03,0.32,0.07,0.65,0.11c0.33,0.05,1.02-0.09,2.07-0.42
			c1.05-0.33,2.14-0.75,3.27-1.26c1.13-0.51,2.1-0.85,2.91-1.01c0.82-0.16,1.38-0.22,1.71-0.19c0.32,0.03,0.63,0.1,0.92,0.19
			c0.29,0.09,0.54,0.19,0.75,0.3c0.21,0.1,0.75,0.45,1.62,1.04c0.87,0.59,1.54,1,2.02,1.22c0.47,0.23,0.88,0.38,1.22,0.46
			c0.34,0.08,0.82,0.09,1.42,0.02c0.61-0.07,1.85-0.67,3.73-1.79c1.88-1.12,3.39-2.01,4.53-2.67c1.14-0.66,1.99-1.05,2.56-1.18
			c0.57-0.13,1-0.15,1.31-0.08c0.31,0.07,0.6,0.2,0.87,0.39c0.27,0.19,0.41,0.29,0.42,0.31c0.01,0.02,0.32,0.43,0.91,1.23
			c0.6,0.8,1.2,1.42,1.79,1.84c0.6,0.43,1.08,0.7,1.46,0.83c0.38,0.12,0.77,0.15,1.17,0.1c0.4-0.05,0.74-0.1,1.01-0.15
			c0.28-0.04,1.34-0.62,3.18-1.73c1.84-1.11,3.36-2.06,4.54-2.85c1.18-0.79,2.17-1.32,2.97-1.59c0.8-0.27,1.56-0.21,2.27,0.18
			c0.72,0.38,1.28,0.82,1.69,1.3c0.41,0.48,0.67,0.79,0.77,0.9c0.1,0.12,0.54,0.5,1.31,1.13c0.77,0.63,1.77,0.98,3.01,1.05
			c1.24,0.06,2.91-0.51,5-1.73c2.09-1.22,3.7-2.21,4.83-2.98c1.12-0.77,2.14-1.3,3.05-1.58c0.91-0.28,1.52-0.36,1.84-0.22
			c0.31,0.14,0.72,0.57,1.22,1.28c0.5,0.72,0.88,1.31,1.14,1.78c0.26,0.47,0.55,0.86,0.85,1.17c0.31,0.31,0.59,0.54,0.86,0.68
			c0.27,0.14,0.56,0.23,0.87,0.26c0.31,0.03,0.76-0.02,1.34-0.16c0.59-0.13,1.09-0.3,1.51-0.49c0.42-0.19,0.65-0.29,0.69-0.3
			c0.04-0.01,0.93-0.54,2.66-1.61c1.73-1.07,3.29-1.99,4.67-2.78c1.39-0.78,2.41-1.25,3.08-1.4c0.66-0.15,1.11-0.22,1.34-0.19
			c0.23,0.02,0.52,0.1,0.87,0.23c0.35,0.13,0.59,0.23,0.72,0.31c0.13,0.08,0.53,0.45,1.2,1.11c0.67,0.66,1.1,1.09,1.31,1.29
			c0.2,0.2,0.4,0.37,0.58,0.51c0.18,0.14,0.52,0.35,1.03,0.63c0.51,0.28,1.15,0.41,1.91,0.41c0.76,0,1.35-0.07,1.77-0.19
			c0.42-0.12,0.77-0.23,1.04-0.32c0.27-0.09,0.55-0.19,0.85-0.31c0.3-0.12,0.84-0.35,1.61-0.7c0.78-0.35,1.78-0.75,3-1.22
			c1.22-0.47,2.21-0.77,2.96-0.88c0.75-0.12,1.35-0.12,1.79-0.01c0.44,0.11,0.8,0.3,1.07,0.57c0.27,0.27,0.54,0.49,0.82,0.67
			c0.27,0.18,0.6,0.34,1,0.47c0.39,0.13,0.98,0.03,1.76-0.29c0.78-0.33,1.38-0.62,1.81-0.87"/>
		<path id="STROKE_c680fd90-3d6a-465d-9bc7-35080b8bf047_2_" class="st2" d="M376.74,16.71c0.05,0.01,0.12-0.01,0.21-0.06
			c0.09-0.05,0.73-0.01,1.92,0.12c1.19,0.13,2.53,0.41,4.03,0.86c1.5,0.44,2.81,0.86,3.95,1.25c1.13,0.39,1.91,0.69,2.33,0.89
			c0.42,0.21,0.87,0.43,1.34,0.68c0.47,0.24,0.9,0.48,1.28,0.72c0.38,0.24,0.6,0.38,0.63,0.4c0.04,0.03,0.22,0.21,0.56,0.55
			c0.33,0.34,0.91,0.97,1.74,1.89c0.83,0.92,1.48,1.79,1.93,2.6c0.46,0.81,0.77,1.5,0.93,2.07c0.17,0.57,0.28,1.14,0.36,1.7
			c0.07,0.56,0.05,1.6-0.07,3.11c-0.12,1.51-0.3,2.97-0.54,4.38c-0.24,1.41-0.52,2.92-0.86,4.52c-0.33,1.6-0.79,3.37-1.38,5.29
			c-0.59,1.92-1.05,3.34-1.4,4.24c-0.34,0.91-0.64,1.66-0.89,2.26c-0.25,0.6-0.38,0.9-0.38,0.91c-0.01,0.01-0.19,0.38-0.56,1.1
			c-0.36,0.73-0.84,1.35-1.42,1.88c-0.58,0.53-1.21,0.88-1.89,1.06c-0.67,0.18-1.07,0.28-1.21,0.3c-0.13,0.02-0.58-0.01-1.34-0.06
			c-0.76-0.06-1.98-0.28-3.66-0.66c-1.68-0.38-3.05-0.61-4.12-0.68c-1.07-0.07-2.19,0.01-3.34,0.25"/>
		
			<ellipse id="STROKE_b02ae0f9-8866-4be3-a4ce-9b8a55c6c7d6_1_" transform="matrix(0.0875 -0.9962 0.9962 0.0875 20.5295 109.7525)" class="st3" cx="70.17" cy="43.67" rx="3.52" ry="3.52"/>
		
			<ellipse id="STROKE_3b6ade61-a4d4-49b3-bc53-091503c4196b_1_" transform="matrix(0.0875 -0.9962 0.9962 0.0875 67.7613 153.6599)" class="st3" cx="117.76" cy="39.84" rx="3.52" ry="3.52"/>
	</g>
	<path class="st6" d="M173.23,16.22c0,0-126,0-141,20s-11,33,5,39s36-9,50-11s73-6,79,0L173.23,16.22z"/>
</g>
<g id="spoon">
	<g>
		<path id="STROKE_1854afe9-5b6d-4888-bc2c-c3a17fd7f6fa_1_" class="st2" d="M265.22,23.92c0.38-0.81,4.78-3.42,4.86-3.48
			c0.95-0.73,3.35-1.74,7.21-3.04c3.85-1.29,6.57-2.16,8.16-2.6c1.59-0.44,3.52-1,5.8-1.7c2.28-0.69,5.04-1.3,8.28-1.84
			c3.24-0.53,5.62-0.85,7.13-0.97c1.51-0.11,3.08-0.17,4.69-0.18c1.62-0.01,3.21-0.02,4.78-0.04c1.57-0.02,3.28,0.03,5.12,0.17
			c1.84,0.14,3.48,0.33,4.92,0.58c1.44,0.25,2.69,0.5,3.76,0.74c1.07,0.24,1.92,0.45,2.56,0.61c0.63,0.16,0.99,0.25,1.09,0.26
			c0.09,0.01,1.02,0.27,2.78,0.78c1.76,0.51,3.31,1.02,4.66,1.51c1.35,0.5,2.3,0.86,2.85,1.07c0.55,0.22,1.53,0.57,2.91,1.06
			c1.39,0.49,2.44,0.88,3.14,1.16c0.7,0.29,1.43,0.61,2.19,0.96c0.76,0.35,1.2,0.56,1.32,0.63c0.12,0.06,0.78,0.38,1.97,0.95
			c1.19,0.57,2.27,1.07,3.24,1.52c0.97,0.44,1.83,0.84,2.6,1.17c0.76,0.34,1.55,0.67,2.36,1.01c0.81,0.34,1.89,0.83,3.25,1.47
			c1.36,0.64,2.52,1.23,3.47,1.76c0.95,0.53,1.89,1.11,2.81,1.75c0.92,0.64,2.05,1.49,3.39,2.55c1.34,1.07,2.62,2.13,3.83,3.2
			c1.22,1.07,2.3,2.06,3.26,2.98c0.96,0.92,1.87,1.89,2.75,2.92c0.88,1.02,1.56,1.88,2.06,2.58c0.5,0.69,0.91,1.29,1.23,1.78
			c0.32,0.5,0.64,1.05,0.98,1.67c0.33,0.62,0.5,0.94,0.51,0.97c0.01,0.03,0.24,0.55,0.71,1.55c0.47,1.01,0.88,2.1,1.23,3.27
			c0.35,1.17,0.57,2.29,0.67,3.34c0.1,1.05,0.05,1.99-0.14,2.82c-0.19,0.83-0.43,1.45-0.69,1.87c-0.27,0.42-0.43,0.65-0.47,0.7
			c-0.04,0.05-0.3,0.34-0.77,0.89c-0.47,0.55-0.82,0.95-1.05,1.2c-0.23,0.25-0.57,0.61-1.03,1.08c-0.46,0.47-0.89,0.87-1.29,1.2
			c-0.4,0.33-0.87,0.66-1.38,1c-0.52,0.34-1.45,0.87-2.79,1.6c-1.34,0.73-2.46,1.32-3.34,1.76c-0.89,0.44-1.54,0.77-1.97,0.99
			c-0.43,0.21-0.71,0.35-0.84,0.41c-0.13,0.06-0.88,0.39-2.22,1.01c-1.35,0.62-2.45,1.13-3.3,1.56c-0.85,0.42-1.53,0.75-2.03,0.99
			c-0.5,0.24-0.91,0.43-1.23,0.59c-0.31,0.15-0.84,0.39-1.6,0.71c-0.75,0.32-1.38,0.57-1.9,0.75c-0.51,0.18-1.32,0.42-2.43,0.73
			c-1.11,0.31-2.22,0.6-3.34,0.87c-1.12,0.27-1.98,0.45-2.59,0.56c-0.61,0.1-1.01,0.18-1.2,0.23c-0.19,0.05-1.57,0.26-4.12,0.65
			c-2.55,0.39-5.32,0.67-8.31,0.85c-2.99,0.18-5.35,0.32-7.06,0.4c-1.72,0.09-2.97,0.15-3.74,0.19c-0.78,0.03-1.46,0.07-2.05,0.1
			c-0.59,0.03-1.56,0.06-2.92,0.09c-1.36,0.03-2.5,0.05-3.42,0.06c-0.92,0.01-2.27,0-4.03-0.04c-1.76-0.03-3.49-0.15-5.2-0.36
			c-1.7-0.21-2.74-0.33-3.13-0.37c-0.38-0.04-2.15-0.41-5.29-1.11c-3.14-0.7-5.49-1.27-7.06-1.73s-2.76-0.82-3.59-1.1
			c-0.83-0.27-1.52-0.49-2.05-0.66c-0.54-0.17-1.87-0.7-4.01-1.59c-2.13-0.89-4.24-1.92-6.33-3.09c-2.08-1.16-3.91-2.18-5.47-3.06
			c-1.57-0.87-2.6-1.44-3.12-1.7c-0.51-0.25-1.06-0.52-1.63-0.78c-0.57-0.27-1.01-0.46-1.31-0.59c-0.3-0.13-0.6-0.27-0.89-0.41
			c-0.3-0.15-0.94-0.44-1.93-0.9c-0.99-0.45-1.68-0.76-2.09-0.93c-0.4-0.17-0.79-0.32-1.15-0.45c-0.36-0.13-0.7-0.26-1.03-0.37
			c-0.33-0.11-0.49-0.2-0.48-0.27"/>
		<path id="STROKE_bf3a7947-7164-4ddd-b872-3dd237898e32_2_" class="st2" d="M64.22,28.92c-0.59,0.72-1.87,1.74-2,2
			c-0.13,0.26-0.99,0.79-1,1c-0.01,0.21-0.96,1.54-1,2"/>
		<path id="STROKE_bf3a7947-7164-4ddd-b872-3dd237898e32_1_" class="st2" d="M265.55,23.44l-0.13,0.09
			c-2.3,0.79-4.37,1.44-6.23,1.97c-1.86,0.53-3.33,0.93-4.42,1.21c-1.09,0.28-2.19,0.54-3.29,0.77s-1.9,0.39-2.39,0.46
			c-0.5,0.07-0.79,0.11-0.87,0.11c-0.09,0-0.35,0.02-0.8,0.05c-0.44,0.03-2.98,0.12-7.6,0.25c-4.62,0.13-8.71,0.16-12.29,0.08
			c-3.57-0.08-6.2-0.21-7.91-0.38c-1.7-0.17-3.14-0.3-4.3-0.39c-1.17-0.09-4.14-0.24-8.91-0.46c-4.77-0.22-7.5-0.35-8.18-0.39
			c-0.69-0.03-1.54-0.08-2.56-0.15c-1.02-0.07-2.25-0.17-3.67-0.31c-1.43-0.14-2.54-0.26-3.33-0.36c-0.79-0.1-1.4-0.18-1.82-0.24
			c-0.42-0.06-0.74-0.1-0.95-0.13c-0.21-0.03-1.13-0.14-2.75-0.36c-1.62-0.21-3.48-0.44-5.6-0.69c-2.12-0.25-5.03-0.57-8.73-0.96
			c-3.71-0.39-7.6-0.76-11.7-1.12c-4.09-0.36-7.35-0.7-9.76-1.02c-2.41-0.33-7.42-0.66-15.01-0.99c-7.6-0.33-13.5-0.47-17.7-0.43
			c-4.2,0.05-7.05,0.07-8.55,0.05c-1.5-0.01-2.85-0.01-4.06-0.01c-1.21,0.01-2.15,0.01-2.83,0c-0.68,0-1.95,0.06-3.82,0.19
			c-1.87,0.13-3.48,0.26-4.82,0.38c-1.34,0.12-3.49,0.48-6.44,1.07c-2.95,0.59-5.68,1.31-8.18,2.15c-2.5,0.84-4.31,1.49-5.43,1.96
			c-1.12,0.47-1.99,0.87-2.61,1.19c-0.62,0.33-1.35,0.66-1.69,0.87"/>
		<path id="STROKE_afcef337-e7dd-41fc-8da7-55c98a2b0733_1_" class="st2" d="M265.31,62.27l-0.65-0.21
			c-0.35-0.14-1.63-0.45-3.85-0.94c-2.22-0.49-4-0.81-5.35-0.97c-1.35-0.16-2.76-0.31-4.24-0.46c-1.48-0.14-3.16-0.25-5.05-0.32
			c-1.88-0.07-4.43-0.1-7.62-0.1c-3.2,0-5.71,0.01-7.55,0.02c-1.84,0.01-3.7,0.01-5.59,0c-1.89-0.01-5.03-0.03-9.43-0.07
			c-4.39-0.04-7.96,0.01-10.69,0.14c-2.73,0.13-4.57,0.21-5.52,0.25c-0.95,0.04-2.28,0.09-3.98,0.15c-1.7,0.07-3.09,0.11-4.18,0.14
			s-2.47,0.05-4.17,0.08c-1.7,0.02-3.01,0.05-3.95,0.07c-0.93,0.02-1.68,0.04-2.25,0.06c-0.56,0.01-1.55,0.05-2.97,0.12
			c-1.42,0.06-3.57,0.21-6.47,0.45c-2.9,0.24-5.27,0.43-7.12,0.58c-1.85,0.15-3.6,0.27-5.26,0.35c-1.66,0.09-4.8,0.17-9.41,0.23
			c-4.61,0.07-8.41,0.1-11.4,0.11c-2.99,0.01-6.26,0.05-9.79,0.11c-3.54,0.06-6.28,0.09-8.22,0.08c-1.94-0.01-3.25-0.01-3.93,0
			c-0.68,0.01-2.05-0.02-4.11-0.08c-2.06-0.07-4.18-0.18-6.35-0.35c-2.17-0.17-4.29-0.37-6.36-0.62c-2.07-0.24-4.43-0.66-7.07-1.25
			c-2.64-0.59-4.77-1.11-6.4-1.57c-1.63-0.46-3.43-0.93-5.39-1.41c-1.97-0.49-3.48-0.92-4.54-1.28c-1.06-0.37-1.79-0.66-2.19-0.87
			c-0.4-0.22-1.18-0.71-2.32-1.47c-1.15-0.76-2.34-1.51-3.58-2.24c-1.24-0.73-2.01-1.18-2.3-1.35c-0.29-0.17-0.86-0.49-1.69-0.96
			s-1.59-0.92-2.26-1.34c-0.67-0.42-1.26-0.83-1.78-1.24c-0.52-0.41-0.95-0.81-1.31-1.21c-0.36-0.4-0.62-0.73-0.78-0.99
			c-0.16-0.26-0.27-0.4-0.31-0.44c-0.04-0.03-0.11-0.31-0.2-0.83c-0.09-0.52-0.1-0.97-0.02-1.36c0.08-0.39,0.17-0.63,0.27-0.74
			c0.1-0.11,1.98-6.36,2.23-6.61"/>
		<path id="STROKE_0f9ac66c-1e7a-40f7-977d-797eb28a3d75" class="st2" d="M288.55,58.31l0.06,0.02c0.43-0.14,0.66-0.21,0.71-0.22
			c0.14-0.06,0.27-0.1,0.38-0.13c0.12-0.03,0.2-0.05,0.25-0.07c0.05-0.02,0.29-0.03,0.71-0.05c0.42-0.02,1.43,0.41,3.02,1.27
			c1.6,0.87,3,1.59,4.19,2.17c1.2,0.58,2.19,1.03,2.95,1.35c0.77,0.32,1.86,0.71,3.28,1.17c1.42,0.46,4.07,0.9,7.95,1.34
			c3.88,0.43,7.06,0.75,9.53,0.94c2.47,0.19,5.01,0.23,7.62,0.1c2.62-0.12,4.6-0.22,5.95-0.3c1.35-0.08,2.77-0.11,4.26-0.09
			c1.49,0.02,2.75,0.01,3.78-0.01c1.03-0.02,2.6-0.24,4.7-0.67s3.73-0.8,4.89-1.12c1.16-0.32,2.04-0.56,2.63-0.73
			c0.6-0.17,1.58-0.47,2.93-0.89c1.36-0.43,2.48-0.79,3.36-1.09c0.88-0.3,1.54-0.54,1.99-0.71"/>
	</g>
	<g>
	</g>
	<g>
	</g>
	<g>
	</g>
	<g>
	</g>
	<g>
	</g>
	<g>
	</g>
	<g>
	</g>
	<g>
	</g>
	<g>
	</g>
	<g>
	</g>
	<g>
	</g>
	<g>
	</g>
	<g>
	</g>
	<g>
	</g>
	<g>
	</g>
</g>
</svg>
