<?xml version="1.0" standalone="no"?>
<!DOCTYPE svg PUBLIC "-//W3C//DTD SVG 20010904//EN"
 "http://www.w3.org/TR/2001/REC-SVG-20010904/DTD/svg10.dtd">
<svg version="1.0" xmlns="http://www.w3.org/2000/svg"
 width="400.000000pt" height="400.000000pt" viewBox="0 0 400.000000 400.000000"
 preserveAspectRatio="xMidYMid meet">
<metadata>
Created by potrace 1.14, written by Peter Selinger 2001-2017
</metadata>
<g transform="translate(0.000000,400.000000) scale(0.100000,-0.100000)"
fill="#000000" stroke="none">
<path d="M983 3434 c-73 -30 -118 -60 -184 -126 -87 -86 -203 -306 -236 -443
-15 -65 -12 -185 8 -257 19 -71 90 -221 126 -265 42 -52 80 -134 92 -197 5
-26 7 -138 5 -249 -2 -185 -6 -250 -19 -347 -42 -319 -39 -681 6 -824 26 -81
86 -174 126 -197 15 -9 56 -22 90 -29 76 -15 89 -9 163 83 56 70 101 186 115
297 6 44 6 210 1 270 -3 25 -7 97 -11 160 -3 63 -8 117 -10 120 -1 3 -6 30 -9
61 -4 31 -8 65 -10 75 -2 11 -7 60 -10 109 -4 50 -9 104 -11 120 -9 69 -13
452 -5 481 5 16 33 68 61 115 155 252 179 350 144 594 -22 157 -40 204 -119
317 -64 90 -86 113 -133 137 -51 27 -105 25 -180 -5z"/>
<path d="M1812 3449 c-18 -7 -22 -17 -23 -51 -1 -24 -3 -59 -4 -78 -15 -159
-23 -1268 -11 -1497 3 -56 1 -93 -4 -93 -13 0 -13 -47 0 -52 6 -2 12 -50 15
-108 5 -117 14 -288 20 -365 1 -27 6 -115 10 -195 9 -213 13 -251 30 -276 8
-13 15 -30 15 -39 0 -20 50 -69 93 -92 17 -9 53 -17 79 -17 59 -1 95 24 127
87 21 42 23 62 24 170 0 114 -8 256 -18 308 -3 13 -7 55 -11 94 -3 38 -7 81
-10 95 -4 25 -16 225 -18 310 -1 34 3 45 14 45 8 0 16 10 18 23 3 23 7 24 79
26 23 1 46 5 50 10 4 4 8 33 9 64 1 31 5 111 10 177 19 288 -1 568 -53 737 -9
29 -18 58 -19 63 -7 30 -75 237 -90 275 -19 49 -63 132 -102 194 -31 50 -82
101 -152 153 -44 32 -60 38 -78 32z"/>
<path d="M2810 3429 c-87 -7 -116 -17 -148 -52 -48 -51 -53 -103 -38 -374 9
-147 57 -302 146 -464 68 -127 72 -166 71 -704 -3 -1030 -5 -1103 -30 -1182
l-24 -71 20 -33 c10 -19 30 -40 44 -46 39 -20 153 -16 199 7 51 26 64 50 55
109 -8 55 -8 230 0 1001 7 636 7 631 67 780 17 41 55 111 84 155 123 186 153
384 104 665 -13 69 -27 131 -33 138 -6 8 -38 27 -71 44 -60 30 -64 31 -216 32
-85 1 -189 -2 -230 -5z"/>
</g>
</svg>
