<?xml version="1.0" standalone="no"?>
<!DOCTYPE svg PUBLIC "-//W3C//DTD SVG 20010904//EN"
 "http://www.w3.org/TR/2001/REC-SVG-20010904/DTD/svg10.dtd">
<svg version="1.0" xmlns="http://www.w3.org/2000/svg"
 width="500.000000pt" height="500.000000pt" viewBox="0 0 500.000000 500.000000"
 preserveAspectRatio="xMidYMid meet">
<metadata>
Created by potrace 1.14, written by Peter Selinger 2001-2017
</metadata>
<g transform="translate(0.000000,500.000000) scale(0.100000,-0.100000)"
fill="#000000" stroke="none">
<path d="M2340 4954 c-627 -56 -1152 -295 -1575 -719 -377 -377 -614 -847
-697 -1380 -30 -199 -30 -521 0 -720 83 -533 320 -1003 697 -1380 377 -377
847 -614 1380 -697 199 -30 521 -30 720 0 533 83 1003 320 1380 697 377 377
614 847 697 1380 30 199 30 521 0 720 -83 533 -320 1003 -697 1380 -376 376
-854 618 -1377 696 -127 18 -428 32 -528 23z m-440 -1759 l0 -585 -120 0 -120
0 0 446 c0 419 -1 445 -17 440 -10 -2 -70 -21 -134 -40 -63 -20 -119 -36 -123
-36 -4 0 -5 43 -4 96 l3 97 235 83 c129 45 245 83 258 83 l22 1 0 -585z m1470
274 c0 -13 -1730 -2089 -1741 -2089 -12 0 -169 130 -169 140 0 4 392 478 871
1053 l870 1047 85 -71 c46 -39 84 -75 84 -80z m122 -888 c178 -69 248 -284
153 -476 -38 -78 -107 -164 -270 -335 l-148 -155 252 -3 251 -2 0 -95 0 -95
-405 0 -405 0 0 83 0 82 161 170 c243 256 306 331 340 401 28 56 31 71 26 120
-10 97 -54 139 -148 139 -43 0 -65 -6 -86 -21 -42 -31 -70 -78 -77 -129 l-7
-45 -114 0 c-63 0 -116 3 -118 8 -10 15 13 114 37 167 43 94 147 178 253 205
67 16 241 6 305 -19z"/>
</g>
</svg>
